<svg t="1615516742838" class="icon" viewBox="0 0 1024 1024" version="1.1" xmlns="http://www.w3.org/2000/svg" p-id="5798" width="200" height="200"><path d="M523.963456 511.439413a38.567003 38.567003 0 0 1-40.017531-36.775173V36.945823c0-20.307404 17.918298-36.860498 40.017531-36.860498 22.184559 0 40.102857 16.638419 40.102857 36.945824V474.49359a36.860498 36.860498 0 0 1-11.945531 26.45082 40.358833 40.358833 0 0 1-28.157326 10.495003zM511.932599 1023.988054a533.197346 533.197346 0 0 1-361.949614-138.397518A471.251231 471.251231 0 0 1 40.169417 735.588786a440.022198 440.022198 0 0 1 18.430249-403.076375 491.899936 491.899936 0 0 1 155.71854-164.677689c18.003623-11.945532 42.662614-8.105897 55.888024 8.532523a34.812693 34.812693 0 0 1-9.385775 51.451112 415.704508 415.704508 0 0 0-131.40085 139.080121 368.093031 368.093031 0 0 0-49.403307 184.729117c0 106.485884 44.966395 206.48705 126.622638 281.829227A447.786794 447.786794 0 0 0 512.017925 950.096408 448.128094 448.128094 0 0 0 817.482239 833.371496a380.977141 380.977141 0 0 0 126.451987-281.829226 367.75173 367.75173 0 0 0-49.317982-184.729117A415.363207 415.363207 0 0 0 762.874093 227.903682a35.836596 35.836596 0 0 1-16.211793-23.293787 34.727368 34.727368 0 0 1 6.314067-27.304072l0.682602-0.853253a42.150662 42.150662 0 0 1 55.888024-8.532522 491.132009 491.132009 0 0 1 155.633215 164.677689 439.595572 439.595572 0 0 1 18.515574 402.991049 470.568629 470.568629 0 0 1-109.728243 150.1724 515.364374 515.364374 0 0 1-162.715208 101.281045A547.702635 547.702635 0 0 1 511.932599 1023.988054z" p-id="5799"></path></svg>