<svg t="1621090805499" class="icon" viewBox="0 0 1024 1024" version="1.1" xmlns="http://www.w3.org/2000/svg" p-id="7491" width="200" height="200"><path d="M989.894627 788.313855h-75.875073V480.015394c0-259.996876-139.914658-396.648778-365.492655-409.955704V37.304178a35.826341 35.826341 0 0 0-11.579586-26.166024A40.752463 40.752463 0 0 0 508.989972 0.390251c-18.616902 0-33.715146 14.202585-33.715146 31.667927v38.001512c-217.517072 13.434878-365.556632 150.150755-365.556632 409.955704v308.362437H39.409c-21.751707 0-39.345 16.441732-39.345 36.849951a30.708292 30.708292 0 0 0 9.916219 22.391463 34.930683 34.930683 0 0 0 23.862903 9.276464h295.247437C331.457656 949.788293 412.578729 1024 511.804899 1024s180.347243-74.211707 182.778316-167.104291h289.745534c10.428024 0 20.472195-3.902512 27.82939-10.875854a35.762366 35.762366 0 0 0 11.51561-26.038073 30.708292 30.708292 0 0 0-9.91622-22.391463 34.930683 34.930683 0 0 0-23.862902-9.276464zM511.868874 959.512586c-60.584902 0-109.654194-45.998463-109.654194-102.744829h219.308389c0 56.746365-49.069292 102.744829-109.654195 102.744829z m-328.962583-171.198731V480.015394c0-205.553633 131.533853-342.525412 328.962583-342.525412 206.257364 0 329.026559 136.97178 329.026559 342.525412v308.362437H182.906291z" p-id="7492"></path></svg>