<svg t="1615537468378" class="icon" viewBox="0 0 1024 1024" version="1.1" xmlns="http://www.w3.org/2000/svg" p-id="7031" width="200" height="200"><path d="M385.270689 437.237433H62.718484A62.035834 62.035834 0 0 1 0 376.054912V61.182521C0 27.476669 28.159319 0 62.718484 0h322.552205c34.559165 0 62.718484 27.476669 62.718485 61.182521v315.213716a62.291828 62.291828 0 0 1-62.718485 60.841196zM64.083785 374.689612h319.821604V62.547822H64.083785v312.14179zM385.270689 1023.975254H62.718484A62.035834 62.035834 0 0 1 0 962.792733V647.835011c0-33.705852 28.159319-61.267853 62.718484-61.267853h322.552205c34.559165 0 62.718484 27.562001 62.718485 61.267853v315.128384a62.291828 62.291828 0 0 1-62.718485 61.011859z m-321.186904-62.547822h319.821604v-312.312452H64.083785v312.312452zM961.25677 447.989174h-322.552205a62.803816 62.803816 0 0 1-62.718485-62.718485V62.718484C575.98608 28.159319 604.1454 0 638.704565 0h322.552205c34.559165 0 62.718484 28.159319 62.718484 62.718484v322.637537c0 34.473834-28.159319 62.633153-62.718484 62.633153z m-321.186905-64.083785h319.821604V63.998453H640.069865V383.99072z m35.412478 605.681363v-267.940192c0-17.919567-15.530291-35.156484-33.705853-34.303171a34.644496 34.644496 0 0 0-33.791183 34.388502v267.854861c0 17.919567 15.530291 35.156484 33.791183 34.388502a34.729827 34.729827 0 0 0 33.705853-34.388502z m174.331786 0V816.876259c0-18.004898-15.530291-35.241815-33.791183-34.388502a34.644496 34.644496 0 0 0-33.705852 34.388502v172.710493c0 17.919567 15.530291 35.156484 33.705852 34.388502a34.729827 34.729827 0 0 0 33.791183-34.388502z m174.161125 0V642.373809c0-17.919567-15.530291-35.156484-33.791183-34.388502a34.644496 34.644496 0 0 0-33.705853 34.388502v347.212943c0 17.919567 15.530291 35.156484 33.705853 34.388502a34.644496 34.644496 0 0 0 33.791183-34.388502z" p-id="7032"></path></svg>