<svg t="1617171204520" class="icon" viewBox="0 0 1229 1024" version="1.1" xmlns="http://www.w3.org/2000/svg" p-id="2034" width="200" height="200"><path d="M614.493184 51.2c227.328 0 430.08 148.0704 608.1536 438.272a42.5984 42.5984 0 0 1 0 44.4416C1044.573184 824.32 841.718784 972.8 614.390784 972.8S184.413184 824.4224 6.441984 533.9136a42.7008 42.7008 0 0 1 0-44.4416C184.413184 199.2704 387.165184 51.2 614.493184 51.2z m0 83.7632c-189.44 0-364.3392 123.6992-524.9024 376.832C250.153984 765.0304 425.053184 888.9344 614.493184 888.9344c182.8864 0 352.256-115.5072 508.2112-351.6416l16.5888-25.6-16.5888-25.8048C966.749184 250.2656 797.481984 134.9632 614.493184 134.9632z m0 167.424c113.0496 0 204.8 93.696 204.8 209.3056 0 115.712-91.7504 209.3056-204.8 209.3056-113.152 0-204.8-93.696-204.8-209.3056s91.648-209.3056 204.8-209.3056z m0 83.7632c-67.8912 0-122.88 56.2176-122.88 125.5424 0 69.4272 54.9888 125.6448 122.88 125.6448 67.8912 0 122.88-56.32 122.88-125.6448S682.384384 386.1504 614.493184 386.1504z" p-id="2035"></path></svg>