<svg t="1621239983412" class="icon" viewBox="0 0 1024 1024" version="1.1" xmlns="http://www.w3.org/2000/svg" p-id="3396" width="200" height="200"><path d="M487.082667 64c13.056 0 24.746667 8.448 31.573333 19.114667 1.365333 0.853333 2.730667 0.853333 4.096 2.304l369.152 415.061333a18.090667 18.090667 0 0 1 0 23.04L523.434667 937.813333c-0.682667 0.768-2.048 0.768-3.413334 1.536a37.546667 37.546667 0 0 1-32.256 20.650667c-21.930667 0-39.082667-19.114667-39.082666-43.690667 0-10.666667 3.413333-20.650667 9.642666-28.330666l-0.682666-0.768 323.072-363.690667a18.090667 18.090667 0 0 0 0-23.04L459.690667 139.093333l-2.048-2.218666a53.930667 53.930667 0 0 1-9.642667-29.098667c0-23.808 17.834667-43.690667 39.082667-43.690667z m-320 0c13.056 0 24.746667 8.448 31.573333 19.114667 1.365333 0.853333 2.730667 0.853333 4.096 2.304l369.152 415.061333a18.090667 18.090667 0 0 1 0 23.04L203.434667 937.813333c-0.682667 0.768-2.048 0.768-3.413334 1.536a37.546667 37.546667 0 0 1-32.256 20.650667c-21.930667 0-39.082667-19.114667-39.082666-43.690667 0-10.666667 3.413333-20.650667 9.642666-28.330666l-0.682666-0.768 323.072-363.690667a18.090667 18.090667 0 0 0 0-23.04L139.690667 139.093333l-2.048-2.218666A53.845333 53.845333 0 0 1 128 107.690667C128 83.882667 145.834667 64 167.082667 64z" p-id="3397"></path></svg>