<svg t="1621240488929" class="icon" viewBox="0 0 1024 1024" version="1.1" xmlns="http://www.w3.org/2000/svg" p-id="3777" width="200" height="200"><path d="M797.90592 955.989333c22.784 0 34.133333 11.349333 34.133333 34.048 0 22.613333-11.349333 33.962667-34.133333 33.962667h-571.733333c-22.784 0-34.133333-11.349333-34.133334-33.962667 0-22.698667 11.349333-34.048 34.133334-34.048h571.733333zM512.039253 0a512.170667 512.170667 0 0 1 463.36 293.034667 508.16 508.16 0 0 1-69.290666 542.293333 30.208 30.208 0 0 1-42.410667 3.925333 29.866667 29.866667 0 0 1-3.925333-42.154666 447.146667 447.146667 0 0 0 101.888-242.858667h-72.704c-17.749333 0-32.085333-15.189333-32.085334-33.962667 0-16.64 11.434667-30.634667 26.282667-33.450666l5.802667-0.597334h74.24a447.744 447.744 0 0 0-104.362667-264.704l-60.330667 60.16a32.085333 32.085333 0 0 1-43.008 1.792 31.829333 31.829333 0 0 1-5.973333-42.410666l3.669333-4.352 61.184-61.013334-8.618666-7.68A451.157333 451.157333 0 0 0 548.30592 61.269333v73.386667c0 17.578667-15.36 31.829333-34.133333 31.829333a33.536 33.536 0 0 1-33.621334-26.112l-0.597333-5.717333V61.098667a451.157333 451.157333 0 0 0-270.336 114.517333l61.184 61.098667a31.829333 31.829333 0 0 1 1.792 42.837333 32.085333 32.085333 0 0 1-42.666667 5.973333L225.660587 281.6l-60.416-60.16A447.829333 447.829333 0 0 0 60.88192 486.229333h74.154667c17.664 0 32 15.274667 32 34.048a33.450667 33.450667 0 0 1-26.282667 33.450667l-5.717333 0.512H62.332587A447.146667 447.146667 0 0 0 163.452587 796.16a29.866667 29.866667 0 0 1-4.693334 41.557333 30.208 30.208 0 0 1-41.813333-3.498666 508.16 508.16 0 0 1-68.010667-541.781334A512.170667 512.170667 0 0 1 512.039253 0z m187.989334 438.954667a31.829333 31.829333 0 0 1-0.853334 42.837333l-4.266666 3.754667-63.744 46.250666c14.08 35.84 11.349333 76.373333-8.277334 110.250667a128.085333 128.085333 0 0 1-238.933333-63.744c0-70.4 57.344-127.402667 128-127.402667 30.208 0 58.88 10.581333 81.493333 29.098667l63.829334-46.08a32.085333 32.085333 0 0 1 42.752 5.034667zM512.039253 514.56a64.085333 64.085333 0 0 0-57.173333 31.232 63.573333 63.573333 0 0 0 0 64.938667 64.085333 64.085333 0 0 0 119.125333-32.426667A63.914667 63.914667 0 0 0 512.039253 514.56z" p-id="3778"></path></svg>