<svg t="1616376472589" class="icon" viewBox="0 0 1024 1024" version="1.1" xmlns="http://www.w3.org/2000/svg" p-id="2259" width="200" height="200"><path d="M469.333333 0a256 256 0 0 1 9.642667 511.829333L469.333333 512C229.717333 512 79.36 696.832 65.109333 951.893333l-0.426666 8.106667H512L597.333333 1024H32A32 32 0 0 1 0 992c0-253.781333 120.746667-459.093333 327.082667-523.178667A256 256 0 0 1 469.333333 0z m341.333334 512L1024 640v256L810.666667 1024 597.333333 896v-256L810.666667 512z m0 74.666667l-149.333334 89.6v183.466666l149.333334 89.6 149.333333-89.6v-183.466666L810.666667 586.666667zM469.333333 64a192 192 0 1 0 0 384 192 192 0 0 0 0-384z" p-id="2260"></path></svg>