<svg t="1621239525449" class="icon" viewBox="0 0 1024 1024" version="1.1" xmlns="http://www.w3.org/2000/svg" p-id="3015" width="200" height="200"><path d="M512 0a512 512 0 1 1 0 1024A512 512 0 0 1 512 0z m0 64a448 448 0 1 0 0 896A448 448 0 0 0 512 64z m201.130667 266.496L453.973333 619.434667 310.613333 463.018667a30.208 30.208 0 0 0-45.226666 0 37.205333 37.205333 0 0 0 0 49.408L431.616 693.76a30.72 30.72 0 0 0 22.698667 10.24h0.170666a30.72 30.72 0 0 0 22.698667-10.496l281.685333-314.197333a37.205333 37.205333 0 0 0-0.512-49.322667 30.293333 30.293333 0 0 0-45.226666 0.512z" p-id="3016"></path></svg>