<svg t="1621093081024" class="icon" viewBox="0 0 1024 1024" version="1.1" xmlns="http://www.w3.org/2000/svg" p-id="7872" width="200" height="200"><path d="M591.09846 511.743763l416.705635-416.924954a54.61037 54.61037 0 0 0 0-76.761565l-2.193188-2.266294a54.537264 54.537264 0 0 0-76.761564 0l-416.778742 417.436698-416.705635-417.436698a54.537264 54.537264 0 0 0-76.761564 0L16.337108 18.057244a53.586883 53.586883 0 0 0 0 76.761565L433.042743 511.743763l-416.705635 416.924954a54.61037 54.61037 0 0 0 0 76.761564l2.193187 2.266294a54.537264 54.537264 0 0 0 76.761565 0l416.705635-416.924954 416.778742 416.924954a54.537264 54.537264 0 0 0 76.761564 0l2.266294-2.266294a54.61037 54.61037 0 0 0 0-76.761564L591.09846 511.743763z" p-id="7873"></path></svg>