<svg t="1621090320662" class="icon" viewBox="0 0 1024 1024" version="1.1" xmlns="http://www.w3.org/2000/svg" p-id="7237" width="200" height="200"><path d="M61.50656 1012.032a35.904 35.904 0 0 1-50.752 0l-0.192-0.128a35.904 35.904 0 0 1 0-50.816l186.496-186.496H125.82656a36.032 36.032 0 0 1 0.64-72h127.36c36.672 0.64 66.24 30.528 66.24 67.328v126.912a36.032 36.032 0 0 1-36.032 35.392h-0.64a36.032 36.032 0 0 1-35.392-36.032V825.6L61.57056 1012.032z m899.392 0L774.40256 825.6v70.592a36.032 36.032 0 0 1-35.456 36.032h-0.576a36.032 36.032 0 0 1-36.032-35.456V769.92c0-36.8 29.568-66.752 66.24-67.328h127.36a36.032 36.032 0 0 1 0.64 72h-71.232l186.496 186.496c14.08 14.08 14.08 36.8 0 50.816l-0.192 0.128a35.904 35.904 0 0 1-50.752 0zM126.46656 320.256a36.032 36.032 0 0 1-0.64-72h71.232L10.56256 61.76a35.904 35.904 0 0 1 0-50.816L10.75456 10.88c14.08-14.08 36.8-14.08 50.816 0l186.432 186.496V126.656c0-19.648 15.808-35.648 35.456-35.968h0.64c19.648 0 35.648 15.744 35.968 35.392v126.848c0 36.864-29.568 66.752-66.24 67.328h-127.36z m643.2 0h-1.088a67.328 67.328 0 0 1-66.24-67.328V126.72a36.16 36.16 0 0 1 36.032-35.968h0.64a36.032 36.032 0 0 1 35.392 35.968v70.656L960.89856 10.816c14.016-14.08 36.736-14.08 50.752 0l0.192 0.128c14.08 14.08 14.08 36.8 0 50.816L825.34656 248.32h70.592a36.032 36.032 0 0 1 0 72.064h-126.208z" p-id="7238"></path></svg>