<svg t="1621092272931" class="icon" viewBox="0 0 1024 1024" version="1.1" xmlns="http://www.w3.org/2000/svg" p-id="7745" width="200" height="200"><path d="M236.981842 933.513624a51.782147 51.782147 0 0 0 0 74.967091 56.170464 56.170464 0 0 0 77.526943 0l473.938293-458.213489c10.312546-9.946853 16.090498-23.40436 16.090498-37.520115a52.074701 52.074701 0 0 0-16.090498-37.446976L314.508785 17.013507a56.097326 56.097326 0 0 0-53.75689-15.359111 53.976306 53.976306 0 0 0-39.641135 38.324639 51.928424 51.928424 0 0 0 15.871082 51.928425L672.156664 512.747111 236.981842 933.440485v0.073139z" p-id="7746"></path></svg>