<?xml version="1.0" standalone="no"?><!DOCTYPE svg PUBLIC "-//W3C//DTD SVG 1.1//EN" "http://www.w3.org/Graphics/SVG/1.1/DTD/svg11.dtd"><svg t="1620875416657" class="icon" viewBox="0 0 1024 1024" version="1.1" xmlns="http://www.w3.org/2000/svg" p-id="10537" xmlns:xlink="http://www.w3.org/1999/xlink" width="200" height="200"><defs><style type="text/css"></style></defs><path d="M989.269333 512.085333a36.010667 36.010667 0 0 0-38.570666 33.194667 438.613333 438.613333 0 0 1-138.752 288.597333A438.186667 438.186667 0 0 1 512 951.978667a439.637333 439.637333 0 0 1-392.021333-240.042667h100.010666a36.010667 36.010667 0 1 0 0-71.936H36.010667A36.010667 36.010667 0 0 0 0 676.010667v183.978666a36.010667 36.010667 0 1 0 72.021333 0V773.973333A513.024 513.024 0 0 0 228.949333 938.666667 509.866667 509.866667 0 0 0 512 1024a509.952 509.952 0 0 0 349.013333-137.386667 509.610667 509.610667 0 0 0 161.536-335.872 35.925333 35.925333 0 0 0-33.28-38.656zM987.989333 128a36.010667 36.010667 0 0 0-36.010666 36.010667V250.026667A512.341333 512.341333 0 0 0 162.986667 137.386667 510.293333 510.293333 0 0 0 1.365333 473.258667a36.010667 36.010667 0 0 0 71.850667 5.461333 438.528 438.528 0 0 1 138.752-288.597333A438.613333 438.613333 0 0 1 512 72.021333a439.552 439.552 0 0 1 392.021333 240.042667H804.010667a36.010667 36.010667 0 0 0 0 71.936h183.978666A36.010667 36.010667 0 0 0 1024 347.989333V164.010667a36.010667 36.010667 0 0 0-36.010667-36.010667z" p-id="10538"></path></svg>