<?xml version="1.0" standalone="no"?><!DOCTYPE svg PUBLIC "-//W3C//DTD SVG 1.1//EN" "http://www.w3.org/Graphics/SVG/1.1/DTD/svg11.dtd"><svg t="1620875559432" class="icon" viewBox="0 0 1024 1024" version="1.1" xmlns="http://www.w3.org/2000/svg" p-id="10665" xmlns:xlink="http://www.w3.org/1999/xlink" width="200" height="200"><defs><style type="text/css"></style></defs><path d="M266.666667 544h490.666666c5.888 0 10.666667-3.584 10.666667-8.021333V488.106667c0-4.437333-4.778667-8.021333-10.666667-8.021334h-490.666666c-5.888 0-10.666667 3.584-10.666667 8.021334v47.957333c0 4.437333 4.778667 8.021333 10.666667 8.021333z" p-id="10666"></path><path d="M992 0H32A32 32 0 0 0 0 32v960c0 17.664 14.336 32 32 32h960a32 32 0 0 0 32-32V32A32 32 0 0 0 992 0z m-40.021333 951.978667H72.021333V72.021333h879.957334v879.957334z" p-id="10667"></path></svg>