<svg t="1620440880435" class="icon" viewBox="0 0 1024 1024" version="1.1" xmlns="http://www.w3.org/2000/svg" p-id="2158" width="200" height="200"><path d="M988.160853 512c19.797333 0 35.84 16.213333 35.84 36.352v439.296a36.096 36.096 0 0 1-35.84 36.352H35.840853a36.096 36.096 0 0 1-35.84-36.352V548.352C0.000853 528.298667 16.04352 512 35.840853 512c19.626667 0 35.754667 16.213333 35.754667 36.352v402.944h880.810667V548.352c0-20.053333 16.042667-36.352 35.84-36.352zM512.000853 0c20.48 0 36.949333 15.701333 36.949334 35.157333v481.877334l155.989333-148.48a37.802667 37.802667 0 0 1 26.112-10.24c9.386667 0 18.944 3.413333 26.112 10.24a33.962667 33.962667 0 0 1 0 49.749333L535.040853 629.674667a37.717333 37.717333 0 0 1-26.197333 10.325333 37.717333 37.717333 0 0 1-26.112-10.24l-215.893333-205.482667a33.962667 33.962667 0 0 1 0-49.749333c6.826667-6.570667 16.213333-10.24 26.112-10.24 9.813333 0 19.285333 3.669333 26.112 10.24l155.989333 148.48V35.157333C475.05152 15.701333 491.520853 0 512.000853 0z" p-id="2159"></path></svg>