<svg t="1615538732085" class="icon" viewBox="0 0 1024 1024" version="1.1" xmlns="http://www.w3.org/2000/svg" p-id="8156" width="200" height="200"><path d="M966.826667 682.666667h-111.189334v284.16a57.173333 57.173333 0 0 1-57.173333 57.173333H225.621333a57.258667 57.258667 0 0 1-57.258666-57.173333V682.666667H57.173333A57.173333 57.173333 0 0 1 0 625.493333V258.816c0-31.573333 25.6-57.258667 57.173333-57.258667h111.189334V57.173333A57.258667 57.258667 0 0 1 225.706667 0h572.672a57.173333 57.173333 0 0 1 57.258666 57.173333v144.384h111.104c31.573333 0 57.258667 25.6 57.258667 57.258667v366.506667a57.173333 57.173333 0 0 1-57.173333 57.344z m-729.770667 249.685333a22.869333 22.869333 0 0 0 22.954667 22.954667h503.978666c12.629333 0 22.869333-10.24 22.869334-22.954667V565.845333a22.869333 22.869333 0 0 0-22.869334-22.869333H260.010667a22.869333 22.869333 0 0 0-22.869334 22.869333v366.506667z m549.888-840.704a22.869333 22.869333 0 0 0-22.954667-22.869333H260.010667a22.869333 22.869333 0 0 0-22.869334 22.869333v109.994667h549.802667V91.648z m168.106667 201.557333a22.869333 22.869333 0 0 0-22.869334-22.869333h-840.533333a22.869333 22.869333 0 0 0-22.954667 22.869333v297.813334a22.869333 22.869333 0 0 0 22.954667 22.954666h76.714667v-82.517333a57.173333 57.173333 0 0 1 57.173333-57.173333h572.757333a57.173333 57.173333 0 0 1 57.258667 57.173333v82.517333h76.8c12.714667 0 22.954667-10.24 22.954667-22.954666l-0.170667-297.813334z m-99.584 116.906667a34.389333 34.389333 0 1 1 0.170666 0h-0.170666zM341.162667 645.973333h341.333333a34.389333 34.389333 0 0 1 0 68.693334H341.333333a34.389333 34.389333 0 0 1 0-68.693334h-0.170666z m0 137.386667h341.333333a34.389333 34.389333 0 0 1 0 68.778667H341.333333a34.389333 34.389333 0 1 1 0-68.778667h-0.170666z" p-id="8157"></path></svg>