<svg t="1621241138212" class="icon" viewBox="0 0 1024 1024" version="1.1" xmlns="http://www.w3.org/2000/svg" p-id="4666" width="200" height="200"><path d="M975.045072 730.475967l34.557034 207.086226a63.994507 63.994507 0 0 1-72.185804 73.892324l-218.434584-31.22932a511.956057 511.956057 0 1 1 256.063354-249.74923z m-37.458118 208.70742l-36.946162-222.188929 8.361949-17.74781a438.831667 438.831667 0 1 0-219.543823 214.168284l16.382594-7.338037 231.745442 33.106492zM320.167949 575.865238a63.994507 63.994507 0 1 1 0-127.989014 63.994507 63.994507 0 0 1 0 127.989014z m191.983521 0a63.994507 63.994507 0 1 1 0-127.989014 63.994507 63.994507 0 0 1 0 127.989014z m191.983522 0a63.994507 63.994507 0 1 1 0-127.989014 63.994507 63.994507 0 0 1 0 127.989014z" p-id="4667"></path></svg>