<svg t="1616376290026" class="icon" viewBox="0 0 1024 1024" version="1.1" xmlns="http://www.w3.org/2000/svg" p-id="2009" width="200" height="200"><path d="M209.493333 576H64v-512H640v512H521.642667c-20.48 0-37.12 7.424-37.12 32 0 24.576 16.725333 32 37.12 32h145.322666c20.48 0 37.12-7.424 37.12-32V0H0v608h0.512c0 24.576 16.810667 32 37.205333 32h171.776c20.48 0 37.205333-7.424 37.205334-32 0-24.576-16.810667-32-37.205334-32z m605.098667-128h145.493333v512h-576v-512h118.357334c20.48 0 37.205333-7.424 37.205333-32 0-24.576-16.725333-32-37.205333-32H357.205333c-20.48 0-37.205333 7.424-37.205333 32V1024h704.085333V416h-0.512c0-24.576-16.725333-32-37.12-32H814.592c-20.394667 0-37.12 7.424-37.12 32 0 24.576 16.725333 32 37.12 32z" p-id="2010"></path></svg>