<svg t="1615526447782" class="icon" viewBox="0 0 1024 1024" version="1.1" xmlns="http://www.w3.org/2000/svg" p-id="2722" width="200" height="200"><path d="M960 0H294.058667a64 64 0 0 0-64 64v128H64A64 64 0 0 0 0 256v704c0 35.328 28.672 64 64 64H768a64 64 0 0 0 64-64V793.002667h128a64 64 0 0 0 64-64V64a64 64 0 0 0-64-64z m-204.8 724.565333V947.2H76.8V268.8h678.4v455.765333z m189.44-8.106666H823.978667V261.290667a61.525333 61.525333 0 0 0-61.525334-61.610667H307.029333V76.458667h640l-2.474666 640z" p-id="2723"></path></svg>