<?xml version="1.0" standalone="no"?><!DOCTYPE svg PUBLIC "-//W3C//DTD SVG 1.1//EN" "http://www.w3.org/Graphics/SVG/1.1/DTD/svg11.dtd"><svg t="1625103992344" class="icon" viewBox="0 0 1024 1024" version="1.1" xmlns="http://www.w3.org/2000/svg" p-id="5728" xmlns:xlink="http://www.w3.org/1999/xlink" width="200" height="200"><defs><style type="text/css"></style></defs><path d="M926.559573 960H97.460907C43.700907 960 0.01024 915.882667 0.01024 861.696v-151.04c0-17.578667 12.288-32.256 28.672-34.304 85.162667-10.752 149.333333-81.408 149.333333-164.352S113.93024 358.4 28.767573 347.648A33.877333 33.877333 0 0 1 0.01024 313.344v-151.04C0.01024 108.117333 43.78624 64 97.54624 64h829.013333c53.76 0 97.450667 44.117333 97.450667 98.304v151.04a33.877333 33.877333 0 0 1-28.672 34.389333c-85.162667 10.752-149.333333 81.408-149.333333 164.266667 0 82.944 64.170667 153.685333 149.333333 164.352a33.877333 33.877333 0 0 1 28.672 34.304v151.04c0 54.186667-43.690667 98.304-97.450667 98.304zM64.01024 742.570667v123.818666c0 16.042667 14.933333 29.610667 32.597333 29.610667h830.805334c17.664 0 32.597333-13.568 32.597333-29.610667V742.570667a238.336 238.336 0 0 1 0-461.226667v-123.733333c0-16.042667-14.933333-29.610667-32.597333-29.610667H96.607573c-17.664 0-32.597333 13.568-32.597333 29.610667v123.733333a238.250667 238.250667 0 0 1 0 461.141333z m553.386667-138.069334h-210.773334c-22.272 0-35.584 13.312-35.584 35.584s13.312 35.584 35.584 35.584h210.688c22.186667 0 35.584-13.312 35.584-35.584 0.085333-22.442667-13.226667-35.584-35.498666-35.584z m-210.773334-139.605333h210.688c22.186667 0 35.584-13.312 35.584-35.669333 0-22.186667-13.312-35.584-35.584-35.584h-210.773333c-22.186667 0-35.498667 13.312-35.498667 35.584 0 22.357333 13.397333 35.669333 35.584 35.669333z" p-id="5729"></path></svg>