<svg t="1617244209829" class="icon" viewBox="0 0 1024 1024" version="1.1" xmlns="http://www.w3.org/2000/svg" p-id="1932" width="200" height="200"><path d="M939.008 271.36L658.602667 19.2A72.96 72.96 0 0 0 609.621333 0.853333L168.96 0S64 6.4 64 96v832S68.608 1024 169.130667 1024h685.824s105.045333-4.437333 105.045333-96v-610.986667a61.610667 61.610667 0 0 0-20.992-45.738666v0.085333z m-279.04-162.645333l183.722667 166.4H694.869333s-34.986667-1.450667-34.986666-31.914667V108.714667z m229.973333 819.2c0 32.085333-34.986667 31.914667-34.986666 31.914666H168.96c-32.682667 0-34.986667-32-34.986667-32v-832c0-29.866667 34.986667-32 34.986667-32h420.864v179.2c0 88.661333 105.130667 96 105.130667 96h194.986666v588.8zM288.768 462.933333c0 17.749333 15.701333 32.085333 34.986667 32.085334h378.197333c19.370667 0 34.986667-14.506667 34.986667-32.085334s-15.616-32-34.986667-32H323.754667c-19.370667 0-35.072 14.506667-35.072 32z m413.184 129.536H323.754667c-19.370667 0-35.072 14.506667-35.072 32 0 17.578667 15.701333 32.085333 34.986666 32.085334h378.197334c19.370667 0 35.072-14.506667 35.072-32.085334s-15.616-32-34.986667-32z m0 161.536H323.754667c-19.370667 0-35.072 14.421333-35.072 32s15.701333 32 34.986666 32h378.197334c19.370667 0 35.072-14.421333 35.072-32s-15.701333-32-35.072-32z" p-id="1933"></path></svg>