<svg t="1615516666313" class="icon" viewBox="0 0 1024 1024" version="1.1" xmlns="http://www.w3.org/2000/svg" p-id="4243" width="200" height="200"><path d="M783.530667 0H112.469333C50.346667 0 0 50.090667 0 111.786667v736.426666c0 61.696 50.346667 111.786667 112.469333 111.786667h260.266667a32 32 0 0 0 32.170667-31.914667 32.085333 32.085333 0 0 0-32.085334-32H115.712a53.76 53.76 0 0 1-51.456-53.674666V116.906667a53.76 53.76 0 0 1 54.016-52.992h659.456a53.76 53.76 0 0 1 54.016 53.589333v226.133333a32 32 0 1 0 64.256 0V111.786667C896 50.090667 845.653333 0 783.530667 0z m184.234666 826.282667h-57.514666L824.234667 722.602667c48.042667-24.32 72.277333-76.202667 59.050666-125.952C869.973333 546.901333 822.442667 512 768 512c-54.528 0-101.973333 34.901333-115.285333 84.650667-13.312 49.749333 11.008 101.632 58.965333 125.952L625.834667 826.282667H568.32a58.026667 58.026667 0 0 0-40.533333 16.128 51.370667 51.370667 0 0 0-15.786667 38.656v89.941333c0 14.08 5.973333 27.562667 16.469333 37.461333A58.026667 58.026667 0 0 0 568.32 1024h399.36a58.026667 58.026667 0 0 0 39.850667-15.530667 51.541333 51.541333 0 0 0 16.469333-37.546666v-89.856a51.541333 51.541333 0 0 0-16.469333-37.546667 58.026667 58.026667 0 0 0-39.765334-15.445333v-1.792zM771.157333 567.125333c34.986667 0 63.232 26.709333 63.232 59.562667 0 32.938667-28.330667 59.562667-63.146666 59.562667-34.986667 0-63.232-26.624-63.232-59.562667 0-32.853333 28.245333-59.562667 63.146666-59.562667z m0 178.688l63.232 80.469334H699.136l72.021333-80.469334z m199.68 136.448l-1.194666 88.746667H572.672v-88.746667h398.250667zM453.973333 593.92c21.333333 0 31.914667 10.666667 31.914667 31.914667 0 21.333333-10.581333 32-31.914667 32H178.346667c-21.333333 0-31.914667-10.666667-31.914667-32s10.666667-31.914667 31.914667-31.914667h275.626666z m69.717334-172.629333c21.333333 0 31.914667 10.666667 31.914666 31.914666 0 21.333333-10.666667 32-31.914666 32H178.346667c-21.333333 0-31.914667-10.666667-31.914667-32s10.666667-31.914667 31.914667-31.914666h345.344z m168.789333-152.149334c21.333333 0 31.914667 10.581333 31.914667 31.914667s-10.666667 32-31.914667 32H178.346667c-21.333333 0-31.914667-10.666667-31.914667-32s10.666667-31.914667 31.914667-31.914667h514.133333z" p-id="4244"></path></svg>