<svg t="1621239782696" class="icon" viewBox="0 0 1024 1024" version="1.1" xmlns="http://www.w3.org/2000/svg" p-id="3142" width="200" height="200"><path d="M512 0a512 512 0 1 0 0 1024A512 512 0 0 0 512 0z m0 960A448 448 0 0 1 512 64a448 448 0 0 1 0 896z m111.616-643.328A168.618667 168.618667 0 0 0 512 275.968c-41.984 0-81.578667 14.506667-111.616 40.704-31.146667 27.306667-48.384 64-48.384 103.253333v7.68c0 4.352 3.584 8.021333 8.021333 8.021334h47.957334a8.021333 8.021333 0 0 0 8.021333-8.021334v-7.68c0-44.032 43.093333-79.957333 96-79.957333s96 35.925333 96 80.042667c0 31.061333-22.016 59.562667-56.064 72.704a111.786667 111.786667 0 0 0-72.021333 105.813333v21.504c0 4.352 3.584 7.936 8.021333 7.936h47.957333a8.021333 8.021333 0 0 0 8.021334-7.936V597.333333c0-19.712 12.373333-37.717333 30.890666-44.8 58.965333-22.698667 97.109333-74.752 97.109334-132.522666 0.085333-39.253333-17.066667-75.946667-48.298667-103.253334zM471.893333 731.989333a40.021333 40.021333 0 1 0 80.042667 0 40.021333 40.021333 0 0 0-80.042667 0z" p-id="3143"></path></svg>