<svg t="1615516901651" class="icon" viewBox="0 0 1024 1024" version="1.1" xmlns="http://www.w3.org/2000/svg" p-id="6173" width="200" height="200"><path d="M77.824 946.005333V77.824h490.666667v315.392h315.392v63.061333h77.824V352.426667a62.293333 62.293333 0 0 0-19.2-44.714667L635.733333 17.066667A61.866667 61.866667 0 0 0 593.066667 0H61.866667C27.733333 0 0 27.733333 0 61.866667v910.250666c0 28.586667 23.296 51.882667 51.882667 51.882667H924.16a37.802667 37.802667 0 0 0 37.717333-37.717333v-103.253334h-77.824v62.976H77.824zM864.256 512l146.090667 127.573333a37.888 37.888 0 0 1 0.682666 57.685334L862.378667 832l-49.834667-45.909333 94.634667-85.674667H576V635.733333h327.936l-88.405333-77.141333 48.64-46.677333zM646.4 134.485333l190.72 180.906667H646.4v-180.906667z" p-id="6174"></path></svg>