<svg t="1621088401820" class="icon" viewBox="0 0 1024 1024" version="1.1" xmlns="http://www.w3.org/2000/svg" p-id="4886" width="200" height="200"><path d="M990.89121 360.563L683.89421 313.845 546.68321 22.527a38.079 38.079 0 0 0-69.374 0L340.09821 313.845 33.10121 360.563a38.015 38.015 0 0 0-22.143 11.776 41.919 41.919 0 0 0 0.768 57.342l222.072 226.744-52.478 320.18a41.855 41.855 0 0 0 3.84 25.663 37.759 37.759 0 0 0 52.286 17.024l274.55-151.163 274.55 151.163a36.863 36.863 0 0 0 24.575 4.032 40.319 40.319 0 0 0 31.551-46.719l-52.478-320.18 222.072-226.744a41.15 41.15 0 0 0 11.264-23.167 40.127 40.127 0 0 0-32.64-45.95z" p-id="4887"></path></svg>