<svg t="1615516914269" class="icon" viewBox="0 0 1024 1024" version="1.1" xmlns="http://www.w3.org/2000/svg" p-id="6298" width="200" height="200"><path d="M946.267811 945.926506V77.817515H456.495292v315.36572H141.812182v63.056078h-77.646862V352.3973a62.288143 62.288143 0 0 1 19.113073-44.710941L389.514207 17.065245a61.690859 61.690859 0 0 1 42.663112-16.979919h530.046496c34.045163 0 61.690859 27.731022 61.690859 61.861512v910.174819a51.878343 51.878343 0 0 1-51.793017 51.878343H101.623531a37.71419 37.71419 0 0 1-37.628864-37.71419v-103.24473h77.646863v62.970752h804.626281zM286.269478 511.957337l-49.830515 45.905508L331.065745 643.530372H0V708.207649h327.908674l-88.397967 77.134906 48.635947 46.673444L434.310474 704.367969a37.884843 37.884843 0 0 0 5.290226-52.731605l-4.607616-4.948921L286.354804 511.957337z m93.005582-377.48321l-190.618781 180.891593h190.704108v-180.891593z" p-id="6299"></path></svg>