<svg t="1615516724836" class="icon" viewBox="0 0 1024 1024" version="1.1" xmlns="http://www.w3.org/2000/svg" p-id="5673" width="200" height="200"><path d="M512 0a512 512 0 1 1 0 1024A512 512 0 0 1 512 0z m0 64a448 448 0 1 0 0 896A448 448 0 0 0 512 64zM548.864 512l142.762667 142.677333a25.941333 25.941333 0 0 1 0 35.84 26.026667 26.026667 0 0 1-35.84 0L513.024 547.84 364.288 696.576a26.794667 26.794667 0 0 1-36.949333 0 26.794667 26.794667 0 0 1 0-36.864L476.16 510.890667 333.312 368.298667a26.026667 26.026667 0 0 1 0-35.84 26.026667 26.026667 0 0 1 35.84 0L512 475.136l147.797333-147.797333a26.794667 26.794667 0 0 1 36.949334 0 26.794667 26.794667 0 0 1 0 36.949333L548.864 512.085333z" p-id="5674"></path></svg>