<svg t="1615516932670" class="icon" viewBox="0 0 1024 1024" version="1.1" xmlns="http://www.w3.org/2000/svg" p-id="6423" width="200" height="200"><path d="M525.653333 0C800.938667 0 1024.170667 229.205333 1024.170667 512s-223.232 512-498.517334 512a490.410667 490.410667 0 0 1-352.426666-149.930667A513.792 513.792 0 0 1 64.853333 708.010667a37.290667 37.290667 0 0 1 19.797334-47.616c18.090667-7.68 38.826667 0.853333 46.677333 19.285333 21.504 53.162667 52.906667 101.461333 92.586667 142.08a418.218667 418.218667 0 0 0 489.216 83.626667c163.754667-82.346667 258.389333-262.4 235.605333-448.170667-22.784-185.770667-157.866667-336.128-336.384-374.186667-178.517333-38.144-360.789333 44.458667-453.802667 205.568l76.8 44.629334a26.453333 26.453333 0 0 1 13.056 22.357333 26.624 26.624 0 0 1-11.946666 22.954667L39.509333 506.368a25.088 25.088 0 0 1-26.112 0.853333A26.453333 26.453333 0 0 1 0.170667 484.010667V241.493333a26.453333 26.453333 0 0 1 12.8-22.784 25.088 25.088 0 0 1 25.6-0.256l57.514666 33.536c21.333333-37.290667 47.274667-71.594667 77.056-102.144A490.410667 490.410667 0 0 1 525.653333 0z" p-id="6424"></path></svg>