<svg t="1615536126540" class="icon" viewBox="0 0 1024 1024" version="1.1" xmlns="http://www.w3.org/2000/svg" p-id="6156" width="200" height="200"><path d="M988.160853 512c19.797333 0 35.84 16.213333 35.84 36.352v439.296a36.096 36.096 0 0 1-35.84 36.352H35.840853a36.096 36.096 0 0 1-35.84-36.352V548.352C0.000853 528.298667 16.04352 512 35.840853 512c19.626667 0 35.754667 16.213333 35.754667 36.352v402.944h880.810667V548.352c0-20.053333 16.042667-36.352 35.84-36.352zM515.158187 0c9.813333 0 19.2 3.754667 26.112 10.24l215.893333 205.482667a33.962667 33.962667 0 0 1 0 49.749333 37.802667 37.802667 0 0 1-26.112 10.24 37.802667 37.802667 0 0 1-26.112-10.24L548.950187 116.906667v487.850666A36.096 36.096 0 0 1 512.000853 640a36.096 36.096 0 0 1-36.949333-35.157333V122.965333l-155.989333 148.48a37.802667 37.802667 0 0 1-26.112 10.24 37.888 37.888 0 0 1-26.112-10.24 33.962667 33.962667 0 0 1 0-49.749333L488.960853 10.325333C495.78752 3.754667 505.25952 0 515.158187 0z" p-id="6157"></path></svg>