<?xml version="1.0" standalone="no"?><!DOCTYPE svg PUBLIC "-//W3C//DTD SVG 1.1//EN" "http://www.w3.org/Graphics/SVG/1.1/DTD/svg11.dtd"><svg t="1617070289266" class="icon" viewBox="0 0 1024 1024" version="1.1" xmlns="http://www.w3.org/2000/svg" p-id="2601" xmlns:xlink="http://www.w3.org/1999/xlink" width="200" height="200"><defs><style type="text/css"></style></defs><path d="M1021.866667 311.466667l2.133333 4.096-2.133333 1.28v493.994666c0 82.432-59.733333 149.162667-133.12 149.162667H134.485333c-73.386667 0-133.034667-66.730667-133.034666-149.162667V314.709333L0 313.856l1.450667-2.816V213.162667c0-82.432 59.733333-149.162667 133.12-149.162667h753.834666c73.386667 0 133.12 66.730667 133.12 149.162667V311.466667h0.341334z m-66.56-37.802667v-60.501333c0-40.96-30.037333-74.581333-66.56-74.581334H134.485333c-36.522667 0-66.56 33.621333-66.56 74.581334v57.173333L517.546667 543.573333c4.266667 2.56 6.826667 3.754667 9.045333 4.608 2.56-0.853333 5.034667-2.133333 8.96-4.266666l419.84-270.165334zM567.722667 609.365333c-31.573333 18.261333-49.92 18.261333-80.64 0.426667L68.010667 355.328v455.509333c0 40.96 29.952 74.581333 66.56 74.581334h753.834666c36.522667 0 66.56-33.621333 66.56-74.581334V359.936L567.722667 609.28z" p-id="2602"></path></svg>