<svg t="1617789835199" class="icon" viewBox="0 0 1024 1024" version="1.1" xmlns="http://www.w3.org/2000/svg" p-id="2124" width="200" height="200"><path d="M415.99896 959.9976H127.99968c-38.399904 0-63.99984-25.599936-63.99984-63.99984v-767.99808c0-38.399904 25.599936-63.99984 63.99984-63.99984h575.99856c38.399904 0 63.99984 25.599936 63.99984 63.99984v223.99944c0 19.199952 12.799968 31.99992 31.99992 31.99992s31.99992-12.799968 31.99992-31.99992V127.99968c0-70.399824-57.599856-127.99968-127.99968-127.99968H127.99968C57.599856 0 0 57.599856 0 127.99968v767.99808c0 70.399824 57.599856 127.99968 127.99968 127.99968h287.99928c19.199952 0 31.99992-12.799968 31.99992-31.99992s-12.799968-31.99992-31.99992-31.99992zM639.9984 287.99928C639.9984 268.799328 627.198432 255.99936 607.99848 255.99936h-383.99904c-19.199952 0-31.99992 12.799968-31.99992 31.99992s12.799968 31.99992 31.99992 31.99992h383.99904c19.199952 0 31.99992-12.799968 31.99992-31.99992zM223.99944 447.99888c-19.199952 0-31.99992 12.799968-31.99992 31.99992S204.799488 511.99872 223.99944 511.99872h191.99952c19.199952 0 31.99992-12.799968 31.99992-31.99992s-12.799968-31.99992-31.99992-31.99992h-191.99952z m511.99872 0A286.719283 286.719283 0 0 0 447.99888 735.99816 286.719283 286.719283 0 0 0 735.99816 1023.99744 286.719283 286.719283 0 0 0 1023.99744 735.99816 286.719283 286.719283 0 0 0 735.99816 447.99888z m0 511.99872C614.398464 959.9976 511.99872 857.597856 511.99872 735.99816S614.398464 511.99872 735.99816 511.99872s223.99944 102.399744 223.99944 223.99944-102.399744 223.99944-223.99944 223.99944z m118.186371-335.700494a31.743921 31.743921 0 0 0-45.994551 0l-72.19182 72.191819-72.19182-72.191819a31.743921 31.743921 0 0 0-45.994551 0 31.743921 31.743921 0 0 0 0 45.909218l72.277152 72.19182-72.277152 72.19182a31.743921 31.743921 0 0 0 0 45.994551 31.743921 31.743921 0 0 0 45.994551 0l72.19182-72.191819 72.19182 72.191819a31.743921 31.743921 0 0 0 45.994551 0 31.743921 31.743921 0 0 0 0-45.994551L781.907379 742.398144l72.277152-72.19182a31.743921 31.743921 0 0 0 0-45.909218z" p-id="2125"></path></svg>