<svg t="1621240985141" class="icon" viewBox="0 0 1024 1024" version="1.1" xmlns="http://www.w3.org/2000/svg" p-id="4412" width="200" height="200"><path d="M855.125333 685.226667c-58.88 0-110.848 30.464-141.056 76.458666L444.672 569.941333a226.389333 226.389333 0 0 0-10.154667-141.312L727.893333 280.405333a168.106667 168.106667 0 0 0 127.232 58.197334c93.013333 0 168.789333-75.946667 168.789334-169.301334A169.216 169.216 0 0 0 855.04 0a169.216 169.216 0 0 0-164.522667 206.933333L389.717333 359.082667a224.597333 224.597333 0 0 0-163.925333-70.826667A226.389333 226.389333 0 0 0 0 514.645333a226.389333 226.389333 0 0 0 225.792 226.474667c75.690667 0 142.848-37.632 183.893333-95.146667l277.162667 197.12A169.216 169.216 0 0 0 855.210667 1024a169.386667 169.386667 0 0 0-0.085334-338.773333z m0-602.88a86.869333 86.869333 0 0 1 0 173.909333 86.869333 86.869333 0 0 1 0-173.909333zM225.792 658.858667A144.042667 144.042667 0 0 1 82.090667 514.56c0-79.445333 64.426667-144.128 143.701333-144.128 79.189333 0 143.616 64.682667 143.616 144.213333 0 79.445333-64.426667 144.128-143.616 144.128z m629.333333 282.624a86.869333 86.869333 0 0 1 0-173.824 86.869333 86.869333 0 0 1 0 173.824z" p-id="4413"></path></svg>