<svg t="1617790818097" class="icon" viewBox="0 0 1024 1024" version="1.1" xmlns="http://www.w3.org/2000/svg" p-id="2374" width="200" height="200"><path d="M614.485333 565.930667c185.770667 0 337.749333 144.981333 345.258667 325.973333l0.256 13.909333v20.224c0 92.16-141.824 97.621333-313.088 97.962667l-303.701333-0.170667C188.074667 1022.72 71.936 1013.162667 64.426667 934.4l-0.426667-8.362667v-20.224c0-182.784 147.285333-332.288 331.264-339.626666l14.250667-0.256H614.4z m0 64H409.6c-150.869333 0-274.090667 116.821333-281.173333 262.570666l-0.341334 13.312v22.698667c0.170667 2.048 0.768 2.56 2.730667 4.096 7.253333 5.802667 22.613333 11.776 45.994667 16.384l14.165333 2.56c38.741333 6.144 85.76 8.021333 181.418667 8.362667h279.210666c98.56-0.341333 145.237333-2.56 186.026667-9.642667l7.082667-1.365333c24.234667-4.693333 40.448-10.837333 48.384-16.981334 2.218667-1.706667 2.816-2.133333 2.901333-3.754666l0.085333-22.357334c0-151.893333-126.122667-275.882667-281.514666-275.882666zM512 0c149.674667 0 271.530667 120.832 271.530667 269.482667 0 144.128-114.517333 262.144-257.962667 269.141333L512 538.965333c-149.674667 0-271.530667-120.917333-271.530667-269.482666C240.469333 125.44 354.986667 7.338667 498.432 0.341333L512 0z m0 64c-114.432 0-207.530667 92.330667-207.530667 205.482667 0 113.152 93.013333 205.482667 207.530667 205.482666 114.517333 0 207.530667-92.330667 207.530667-205.482666C719.530667 156.330667 626.517333 64 512 64z" p-id="2375"></path></svg>