<svg t="1615536293939" class="icon" viewBox="0 0 1024 1024" version="1.1" xmlns="http://www.w3.org/2000/svg" p-id="6281" width="200" height="200"><path d="M919.210667 896H97.109333L328.533333 448.853333l183.381334 255.146667 179.2-145.322667 228.096 337.152zM64 128h896v714.069333L724.48 494.08a32 32 0 0 0-46.677333-6.826667l-153.6 124.501334-174.165334-242.432a32.170667 32.170667 0 0 0-28.245333-13.312 32.512 32.512 0 0 0-26.197333 17.237333L64 820.565333V128z m0-64A64 64 0 0 0 0 128v768c0 35.328 28.672 64 64 64h896a64 64 0 0 0 64-64v-768a64 64 0 0 0-64-64H64z m703.744 147.029333a109.653333 109.653333 0 1 0 0 219.392 109.653333 109.653333 0 0 0 0-219.306666m0 73.045333a36.693333 36.693333 0 0 1 0 73.216 36.693333 36.693333 0 0 1 0-73.216" p-id="6282"></path></svg>