<?xml version="1.0" encoding="UTF-8"?>
<svg width="12px" height="12px" viewBox="0 0 12 12" version="1.1" xmlns="http://www.w3.org/2000/svg" xmlns:xlink="http://www.w3.org/1999/xlink">
    <title>icon-refresh-black</title>
    <g id="B2C-PC模版" stroke="none" stroke-width="1">
        <g id="按钮图标" transform="translate(-291.000000, -1136.000000)">
            <g id="icon-refresh-black" transform="translate(291.000000, 1136.000000)">
                <path d="M6.15808441,0 C9.38443917,0 12,2.68641003 12,6 C12,9.31358988 9.38443917,12 6.15808441,12 C4.60834724,12.0020608 3.12167092,11.3696297 2.02724579,10.2426922 C1.48447078,9.68564761 1.053702,9.02449354 0.759465083,8.29672389 C0.676060314,8.07721508 0.778838562,7.82952695 0.990764661,7.73926249 C1.20263783,7.64908864 1.44593555,7.74946504 1.53816249,7.96515016 C1.79014123,8.58794048 2.15887253,9.15368352 2.62343021,9.63030378 C4.13422633,11.1813991 6.43769418,11.5751304 8.35610972,10.610147 C10.2745782,9.64516362 11.3839657,7.53483098 11.1170952,5.35802776 C10.8502246,3.18122453 9.26609862,1.41915577 7.17462745,0.972762597 C5.0830857,0.52638755 2.94653326,1.49434292 1.8573485,3.38161489 L2.75713897,3.90495302 C2.84927769,3.95861154 2.90725697,4.05799124 2.90972717,4.16679425 C2.91214445,4.27559726 2.85878798,4.3776771 2.76919005,4.43564859 L0.461928673,5.93381025 C0.36922534,5.99392011 0.252049316,5.99759882 0.155975915,5.94330605 C0.0599025151,5.88901327 0.000141154675,5.78537496 0,5.67274826 L0,2.83053234 C0,2.72060578 0.0569382669,2.61894274 0.149429867,2.56352642 C0.241921468,2.50816446 0.356062667,2.50731274 0.449312974,2.56146054 L1.1237853,2.95363342 C1.37474067,2.51737031 1.67827615,2.1154298 2.02724579,1.7573077 C3.12167092,0.630370175 4.60834724,-0.00204280069 6.15808441,0 Z" id="Fill-1"></path>
            </g>
        </g>
    </g>
</svg>