<svg t="1615538454490" class="icon" viewBox="0 0 1024 1024" version="1.1" xmlns="http://www.w3.org/2000/svg" p-id="8031" width="200" height="200"><path d="M987.779018 182.342138H757.910174v-72.697942C757.910174 49.233231 709.274227 0 648.777935 0H376.075327C315.579035 0 266.260478 49.233231 266.260478 109.644196v73.380552H36.391634A36.519623 36.519623 0 0 0 0.042663 219.288393c0 20.56362 16.382635 36.434297 36.348971 36.434297H987.267061a36.519623 36.519623 0 0 0 36.348971-36.434297 35.495709 35.495709 0 0 0-35.837014-36.946255zM339.64103 109.644196c0-19.88101 16.467961-36.348971 36.434297-36.348971h272.702608c19.966336 0 35.837014 15.870677 35.837014 36.348971v73.380552H339.64103v-73.380552zM171.292392 331.919007a36.348971 36.348971 0 0 1 19.369053 32.850596v548.903591c0 19.966336 18.174485 36.348971 39.932672 36.348971h563.153071a42.748438 42.748438 0 0 0 28.072327-10.580452 35.325056 35.325056 0 0 0 11.775019-25.768519V366.561453a36.348971 36.348971 0 0 1 19.283726-32.850596 42.577785 42.577785 0 0 1 41.12724 0 36.348971 36.348971 0 0 1 19.283726 32.850596v547.709024c0.597284 60.410966-53.328889 109.644196-119.627364 109.644197H231.276727c-66.298475 0-120.309974-49.233231-120.309974-109.644197v-549.500874a36.348971 36.348971 0 0 1 19.369052-32.850596 42.577785 42.577785 0 0 1 41.041914 0z m411.784352 336.014665l-1.706525 48.635947s92.066994 18.771769 140.788268-2.901091l-59.301725 96.759936s-8.191317 17.577202-28.157654 17.577202a418.866428 418.866428 0 0 1-15.614698 0.170653l-17.747855-0.341305-27.048412-0.938589-1.194567 46.332139-55.718024-107.937672 65.701192-97.271894z m-217.581869 49.830514c21.075577 3.583701 133.108908 7.67936 133.108908 7.67936l-4.095659 103.756687v6.484793l-116.128989-8.191317c-14.078827-2.986418-22.270144-14.078827-28.754937-25.256562-12.286976-21.672861 9.983168-76.793601 15.870677-84.472961zM272.830597 555.900342l119.030081 4.692942 49.830514 106.743105-40.444629-25.76852s-62.202816 72.100658-68.005 126.112158l-52.219648-100.940922s-11.092409-16.382635-1.194567-33.959837c9.983168-17.577202 31.656029-52.816932 31.656028-52.816932l-38.652779-24.061994z m426.375136-19.283727l51.025081 106.657779c4.692942 14.078827-0.597284 27.048413-6.99675 38.140821-12.286976 21.758187-70.394134 29.864178-79.780019 28.157654-7.67936-20.478293-59.813682-121.419215-59.813682-121.419215l90.275144-48.038664 5.290226-3.498375z m-253.418882-142.494792c24.061995 0 59.899008 46.929423 63.397384 56.315307-13.481543 16.979918-73.380552 113.739855-73.380552 113.739855l-86.179485-55.718023-5.290226-3.498375 65.701192-97.954504c9.385885-11.092409 22.867428-12.88426 35.837013-12.88426z m36.434297 2.901092l112.033331 4.692942H597.326223c5.972836 0.341305 18.686443 2.559787 26.19515 15.870677 10.495125 16.979918 29.266894 53.926173 29.266895 53.926173l39.932672-22.270144-63.994667 103.24473-115.531706-9.385885 42.23648-22.952754s-30.461462-90.872427-73.380551-123.125739z" p-id="8032"></path></svg>