<?xml version="1.0" standalone="no"?><!DOCTYPE svg PUBLIC "-//W3C//DTD SVG 1.1//EN" "http://www.w3.org/Graphics/SVG/1.1/DTD/svg11.dtd"><svg t="1617070286264" class="icon" viewBox="0 0 1024 1024" version="1.1" xmlns="http://www.w3.org/2000/svg" p-id="2471" xmlns:xlink="http://www.w3.org/1999/xlink" width="200" height="200"><defs><style type="text/css"></style></defs><path d="M975.045072 730.475967l34.557034 207.086226a63.994507 63.994507 0 0 1-72.185804 73.892324l-218.434584-31.22932a511.956057 511.956057 0 1 1 256.063354-249.74923z m-37.458118 208.70742l-36.946162-222.188929 8.361949-17.74781a438.831667 438.831667 0 1 0-219.543823 214.168284l16.382594-7.338037 231.745442 33.106492zM320.167949 575.865238a63.994507 63.994507 0 1 1 0-127.989014 63.994507 63.994507 0 0 1 0 127.989014z m191.983521 0a63.994507 63.994507 0 1 1 0-127.989014 63.994507 63.994507 0 0 1 0 127.989014z m191.983522 0a63.994507 63.994507 0 1 1 0-127.989014 63.994507 63.994507 0 0 1 0 127.989014z" p-id="2472"></path></svg>