<?xml version="1.0" standalone="no"?><!DOCTYPE svg PUBLIC "-//W3C//DTD SVG 1.1//EN" "http://www.w3.org/Graphics/SVG/1.1/DTD/svg11.dtd"><svg t="1617070281964" class="icon" viewBox="0 0 1024 1024" version="1.1" xmlns="http://www.w3.org/2000/svg" p-id="2341" xmlns:xlink="http://www.w3.org/1999/xlink" width="200" height="200"><defs><style type="text/css"></style></defs><path d="M819.2 0c20.394667 0 39.936 7.68 54.272 21.418667 14.506667 13.653333 22.528 32.341333 22.528 51.712v877.738666c0 40.362667-34.389333 73.130667-76.8 73.130667H204.8c-42.410667 0-76.8-32.768-76.8-73.130667V73.130667C128 32.768 162.389333 0 204.8 0z m12.8 703.914667h-640v240.042666a16.213333 16.213333 0 0 0 12.373333 15.445334l4.437334 0.597333h606.378666a16.469333 16.469333 0 0 0 16.810667-16.042667V704zM486.4 787.626667a51.2 51.2 0 1 1 51.2 88.746666 51.2 51.2 0 0 1-51.2-88.746666zM815.189333 64H208.810667a16.469333 16.469333 0 0 0-16.810667 16.042667v559.872h640V80.042667a16.213333 16.213333 0 0 0-12.373333-15.445334L815.189333 64z m-211.2 64c19.882667 0 36.010667 14.336 36.010667 32s-16.128 32-36.010667 32H419.072c-19.541333-0.426667-35.072-14.677333-35.072-32s15.530667-31.573333 34.986667-32h185.002666z" p-id="2342"></path></svg>