<svg t="1617174696085" class="icon" viewBox="0 0 1024 1024" version="1.1" xmlns="http://www.w3.org/2000/svg" p-id="1872" width="200" height="200"><path d="M823.847385 0C912.620308 0 984.615385 61.912615 984.615385 138.24v122.013538c0 15.202462-14.414769 27.569231-32.137847 27.569231-17.801846 0-27.726769-12.366769-27.726769-27.569231V144.305231c0-45.843692-43.165538-82.865231-96.334769-82.865231H196.923077C143.753846 61.44 100.588308 98.461538 100.509538 144.305231L100.036923 806.912c-0.078769 45.764923 43.086769 82.944 96.413539 82.944H378.88c17.801846-0.236308 32.295385 12.051692 32.610462 27.254154 0.315077 15.36-13.863385 27.884308-31.665231 28.120615l-177.309539 2.363077H200.073846C111.222154 947.515077 39.384615 885.602462 39.384615 809.275077l0.551385-671.113846C40.014769 61.991385 112.009846 0.236308 200.625231 0.236308z m5.356307 482.697846l146.51077 175.182769c11.815385 13.390769 11.815385 40.408615 0 53.878154a28.514462 28.514462 0 0 1-43.559385 0L841.019077 599.433846v305.388308c0 22.449231-11.815385 35.918769-31.665231 40.408615-19.771077 0-31.665231-13.469538-35.603692-35.918769V599.433846L682.614154 707.347692a28.514462 28.514462 0 0 1-43.559385 0c-11.815385-13.469538-11.815385-40.408615 0-53.878154l146.510769-170.692923a28.514462 28.514462 0 0 1 43.638154 0z m-196.135384-233.629538a31.507692 31.507692 0 1 1 0 63.015384H254.424615a31.507692 31.507692 0 0 1-27.332923-47.261538 31.507692 31.507692 0 0 1 27.332923-15.753846z" p-id="1873"></path></svg>