<svg t="1621088449319" class="icon" viewBox="0 0 1024 1024" version="1.1" xmlns="http://www.w3.org/2000/svg" p-id="7110" width="200" height="200"><path d="M258.56 713.088c13.952-14.08 36.736-14.08 50.752 0l0.192 0.192c14.016 14.016 14.016 36.736 0 50.752l-186.496 186.496h71.232a36.032 36.032 0 0 1-0.64 72.064h-127.36A67.328 67.328 0 0 1 0 955.2v-126.848a36.032 36.032 0 0 1 36.032-35.392h0.64a36.032 36.032 0 0 1 35.392 36.032v70.592l186.432-186.496z m505.216 0l186.496 186.496v-70.592c0-19.712 15.808-35.712 35.392-36.032h0.64c19.648 0 35.648 15.808 35.968 35.392v126.848c0 36.864-29.568 66.752-66.24 67.392h-127.36a36.032 36.032 0 0 1-0.64-72.064h71.232l-186.432-186.496a35.904 35.904 0 0 1 0-50.752l0.128-0.192c14.08-14.08 36.8-14.08 50.816 0zM193.6 0.256a36.032 36.032 0 0 1 0.64 72.064H122.944l186.496 186.496c14.016 14.016 14.016 36.736 0 50.816l-0.192 0.128a35.904 35.904 0 0 1-50.816 0L72.064 123.264V193.92a36.032 36.032 0 0 1-35.456 35.968h-0.64A36.032 36.032 0 0 1 0 194.56V67.648C0 30.72 29.568 0.896 66.24 0.32h127.36z m761.344 0h1.088c36.672 0.64 66.24 30.528 66.24 67.392v126.848a36.032 36.032 0 0 1-36.032 35.392h-0.576a36.032 36.032 0 0 1-35.392-35.968V123.264L763.776 309.76a35.904 35.904 0 0 1-50.816 0l-0.128-0.128a35.904 35.904 0 0 1 0-50.816L899.2 72.32h-71.232a36.032 36.032 0 0 1 0.64-72.064h126.272z" p-id="7111"></path></svg>