<?xml version="1.0" encoding="UTF-8"?>
<svg width="12px" height="12px" viewBox="0 0 12 12" version="1.1" xmlns="http://www.w3.org/2000/svg" xmlns:xlink="http://www.w3.org/1999/xlink">
    <title>icon-submit-blue</title>
    <g id="B2C-PC模版" stroke="none" stroke-width="1">
        <g id="按钮图标" transform="translate(-291.000000, -412.000000)">
            <g id="icon-submit-blue" transform="translate(291.000000, 412.000000)">
                <path d="M6,0 C9.3137085,0 12,2.6862915 12,6 C12,9.3137085 9.3137085,12 6,12 C2.6862915,12 0,9.3137085 0,6 C0,2.6862915 2.6862915,0 6,0 Z M6,0.75 C3.10050506,0.75 0.75,3.10050506 0.75,6 C0.75,8.89949494 3.10050506,11.25 6,11.25 C8.89949494,11.25 11.25,8.89949494 11.25,6 C11.25,3.10050506 8.89949494,0.75 6,0.75 Z M8.35674063,3.87289086 L5.32060044,7.25919029 L3.63997041,5.42643187 C3.57256373,5.35011684 3.47611305,5.30645959 3.37483167,5.30645959 C3.27357749,5.30645959 3.17710505,5.35011684 3.10969837,5.42643187 C2.96343388,5.5909185 2.96343388,5.84028019 3.10969837,6.00476682 L5.0580348,8.13022002 C5.1260562,8.20596365 5.22242528,8.2494231 5.32367946,8.25 L5.32574121,8.25 C5.42759378,8.248566 5.52415326,8.20390331 5.59175034,8.12693996 L8.89317616,4.44515467 C9.03780322,4.27916811 9.0352954,4.02980093 8.88734995,3.86681972 C8.81896952,3.79136179 8.72198572,3.74886383 8.62070978,3.75 C8.51941208,3.7511824 8.42340204,3.79586707 8.35674063,3.87289086 Z" id="icon_check-circle"></path>
            </g>
        </g>
    </g>
</svg>