<svg t="1621088249156" class="icon" viewBox="0 0 1024 1024" version="1.1" xmlns="http://www.w3.org/2000/svg" p-id="4566" width="200" height="200"><path d="M521.570032 80.254244l114.877487 243.194681 14.335686 30.079342 33.023278 5.055889 257.018377 38.975147c4.09591 0.639986 7.743831 4.223908 9.215799 9.087802a16.89563 16.89563 0 0 1-3.64792 16.639636l-208.123448 211.771367 5.119888 31.423313 43.967039 267.066158a16.127647 16.127647 0 0 1-5.50388 15.359664 8.959804 8.959804 0 0 1-10.111779 0.639986l-259.834316-142.588881-30.079342 16.575637-229.882971 125.949245a7.743831 7.743831 0 0 1-4.159909 1.279972 9.663789 9.663789 0 0 1-5.50388-1.855959 15.99965 15.99965 0 0 1-5.695875-15.359664l43.903039-267.066158 5.183887-31.423313-22.335511-22.719503L77.483746 423.158743a17.215623 17.215623 0 0 1-3.583922-16.639636c1.535966-4.927892 5.247885-8.575812 9.279797-9.151799l257.082377-39.039146 33.023277-4.927893 14.271688-30.207339L502.43445 80.254244c1.983957-4.415903 5.631877-7.167843 9.535792-7.167843s7.423838 2.623943 9.59979 7.167843zM511.970242 0c-28.79937 0-55.038796 17.023628-67.710519 43.90304L326.950289 292.025612l-262.266263 39.679132a76.734321 76.734321 0 0 0-60.990666 53.694825c-8.767808 28.607374-1.407969 59.774692 19.071583 80.638236l189.819848 193.019778-44.79902 272.634036c-4.799895 29.439356 6.783852 59.518698 30.079342 77.054315a73.1504 73.1504 0 0 0 79.614258 5.951869l234.490871-128.637186 234.554869 128.829182a72.958404 72.958404 0 0 0 79.614258-5.887871 80.638236 80.638236 0 0 0 30.079342-77.118313l-44.79902-272.634036 189.819848-192.955779c20.479552-20.927542 27.967388-52.222858 19.071583-80.702235a76.414328 76.414328 0 0 0-60.990666-53.758824l-262.39426-39.679132L579.68076 44.031037A75.006359 75.006359 0 0 0 511.970242 0z" p-id="4567"></path></svg>