<?xml version="1.0" encoding="UTF-8"?>
<svg width="12px" height="12px" viewBox="0 0 12 12" version="1.1" xmlns="http://www.w3.org/2000/svg" xmlns:xlink="http://www.w3.org/1999/xlink">
    <title>icon-save-blue</title>
    <g id="B2C-PC模版" stroke="none" stroke-width="1">
        <g id="按钮图标" transform="translate(-291.000000, -184.000000)">
            <g id="icon-save-blue" transform="translate(291.000000, 184.000000)">
                <path d="M11.9978133,1.56003614 C11.9978133,0.318054217 11.2980723,0.00722891566 10.4378133,0.00722891566 L1.57807229,0.00722891566 C0.717813253,0.00722891566 0.0180722892,0.318054217 0.0180722892,1.56003614 L0.0180722892,10.4472289 C0.0180722892,11.6891205 0.717813253,12.0000361 1.57807229,12.0000361 L10.4363855,12.0000361 C11.2965904,12.0000361 11.9964036,11.6891205 11.9964036,10.4472289 L11.9964036,9.88337349 L11.1245602,9.88337349 L11.120241,10.5759217 C11.120241,10.8824458 10.8889157,11.1325663 10.5809639,11.1325663 L1.44796988,11.1325663 C1.13996386,11.1325663 0.889843373,10.8838554 0.889843373,10.5773313 L0.889843373,1.42986145 C0.889843373,1.12340964 1.13996386,0.874698795 1.44796988,0.874698795 L2.24604217,0.874698795 L2.24604217,3.97883133 C2.24604217,4.83471687 2.94578313,5.53156627 3.80606024,5.53156627 L8.29807229,5.53156627 C9.1583494,5.53156627 9.85807229,4.83471687 9.85807229,3.97883133 L9.85807229,0.874698795 L10.566506,0.874698795 C10.8744398,0.874698795 11.1245602,1.12340964 11.1245602,1.42986145 L11.1245602,9.88337349 L11.9964036,9.88337349 L11.9964036,1.56003614 L11.9978133,1.56003614 Z M9.07010241,4.06989759 C9.07010241,4.3995 8.80120482,4.66698795 8.47012048,4.66698795 L3.63542169,4.66698795 C3.30433735,4.66698795 3.03543976,4.3995 3.03543976,4.06989759 L3.03543976,0.874698795 L9.07010241,0.874698795 L9.07010241,4.06989759 Z M7.66913855,3.8934759 L7.0908253,3.8934759 C7.01275301,3.8934759 6.94915663,3.81977711 6.94915663,3.72871084 L6.94915663,2.3334759 C6.94915663,2.24389157 7.01275301,2.17012048 7.0908253,2.17012048 L7.66913855,2.17012048 C7.74722892,2.17012048 7.8108253,2.24389157 7.8108253,2.3334759 L7.8108253,3.72871084 C7.8108253,3.81977711 7.74722892,3.8934759 7.66913855,3.8934759 Z" id="icon_save"></path>
            </g>
        </g>
    </g>
</svg>