<?xml version="1.0" encoding="UTF-8"?>
<svg width="12px" height="12px" viewBox="0 0 12 12" version="1.1" xmlns="http://www.w3.org/2000/svg" xmlns:xlink="http://www.w3.org/1999/xlink">
    <title>icon-settlement-blue</title>
    <g id="B2C-PC模版" stroke="none" stroke-width="1" fill="none" fill-rule="evenodd">
        <g id="按钮图标" transform="translate(-375.000000, -222.000000)" fill="#0088D2">
            <path d="M385.285884,222 C386.232355,222 386.999725,222.76721 387,223.713749 L387,223.713749 L387,232.285884 C387,233.232355 386.232812,233.999725 385.286251,234 L385.286251,234 L376.714116,234 C375.767554,234 375.000183,233.232812 375,232.286251 L375,232.286251 L375,223.714116 C375,222.767554 375.76721,222.000183 376.713749,222 L376.713749,222 Z M384.857189,222.85723 L377.142719,222.85723 C376.195905,222.85723 375.85723,223.195905 375.85723,224.142719 L375.85723,224.142719 L375.85723,231.857189 C375.85723,232.804095 376.195905,233.14277 377.142719,233.14277 L377.142719,233.14277 L384.857189,233.14277 C385.804095,233.14277 386.14277,232.804095 386.14277,231.857189 L386.14277,231.857189 L386.14277,224.142719 C386.14277,223.195905 385.804095,222.85723 384.857189,222.85723 L384.857189,222.85723 Z M379.640662,229.359338 C379.807928,229.526971 379.807928,229.798516 379.640662,229.966148 L379.034,230.572 L379.640662,231.178144 C379.808203,231.345685 379.808203,231.617299 379.640662,231.784863 C379.473029,231.952404 379.201393,231.952404 379.033852,231.784863 L378.427,231.177 L377.821856,231.783329 C377.652529,231.939701 377.389934,231.934528 377.226947,231.771542 C377.063961,231.608556 377.058765,231.34596 377.215137,231.176633 L377.821,230.57 L377.216579,229.964615 C377.136104,229.884163 377.090946,229.774987 377.090946,229.661278 C377.090946,229.547456 377.136104,229.438279 377.216579,229.357827 C377.384395,229.191705 377.654933,229.192415 377.821856,229.359338 L378.426,229.964 L379.033852,229.357827 C379.202125,229.191522 379.473121,229.19214 379.640662,229.359338 Z M378.428666,224.142719 C378.665581,224.142719 378.85727,224.334407 378.85727,224.571345 L378.857,225.428 L379.714156,225.428666 C379.950819,225.428666 380.142759,225.620538 380.142759,225.85727 C380.142759,226.093933 379.950819,226.285896 379.714156,226.285896 L378.857,226.285 L378.85727,227.142759 C378.85727,227.379422 378.66533,227.571385 378.428575,227.571385 C378.191911,227.571385 377.999949,227.379422 377.999949,227.142759 L377.999,226.285 L377.142719,226.285896 C376.906056,226.285896 376.714116,226.093933 376.714116,225.85727 C376.714116,225.620538 376.906056,225.428666 377.142719,225.428666 L377.999,225.428 L377.999949,224.571345 C377.999949,224.334316 378.191293,224.142719 378.428666,224.142719 Z M382.285844,230.99996 L384.857189,230.99996 C385.093944,230.99996 385.285816,231.191923 385.285816,231.428563 C385.285816,231.665318 385.093944,231.857189 384.857189,231.857189 L382.285844,231.857189 C382.049089,231.857189 381.857241,231.665318 381.857241,231.428563 C381.857241,231.191923 382.049089,230.99996 382.285844,230.99996 M382.285844,229.285844 L384.857189,229.285844 C385.010242,229.285844 385.151691,229.367578 385.228229,229.500077 C385.304767,229.632668 385.304767,229.795998 385.228229,229.928497 C385.151691,230.061088 385.010242,230.14273 384.857189,230.14273 L382.285844,230.14273 C382.132791,230.14273 381.991343,230.061088 381.914805,229.928497 C381.83829,229.795998 381.83829,229.632668 381.914805,229.500077 C381.991343,229.367578 382.132791,229.285844 382.285844,229.285844 M382.285844,225.428666 L384.857189,225.428666 C385.093944,225.428666 385.285816,225.620538 385.285816,225.85727 C385.285816,226.093933 385.093944,226.285896 384.857189,226.285896 L382.285844,226.285896 C382.049089,226.285896 381.857241,226.093933 381.857241,225.85727 C381.857241,225.620538 382.049089,225.428666 382.285844,225.428666" id="icon-settlement-blue"></path>
        </g>
    </g>
</svg>