<svg t="1615538251744" class="icon" viewBox="0 0 1024 1024" version="1.1" xmlns="http://www.w3.org/2000/svg" p-id="7781" width="200" height="200"><path d="M993.888978 408.503813a137.620647 137.620647 0 0 0-107.929398-51.533088H645.102117c13.30987-36.687463 21.671199-74.910681 24.913347-113.731137 4.863222-59.297179-4.351304-111.939423-26.619741-152.124993C616.008105 41.37322 569.338239 10.402176 508.505306 1.528929c-27.643577-4.095345-51.277129 1.109156-70.474058 15.528182-38.820455 29.008692-45.901989 84.295846-54.177998 148.285607-6.654935 51.191809-13.992428 109.123874-39.161734 150.674559-16.722658 27.728897-49.400096 64.586999-138.815123 64.587H112.62198C50.509252 380.689596 0 430.516291 0 491.861142v420.796673C0 974.087986 50.509252 1024 112.62198 1024h679.827228c31.056364 0 61.174212-10.323682 85.660961-29.43529a136.511491 136.511491 0 0 0 48.46158-75.507919l93.595691-395.030129a133.951901 133.951901 0 0 0-26.193143-115.608169l-0.085319 0.08532zM75.08132 912.743134V491.946462c0-20.476724 16.807977-37.028742 37.54066-37.028742h79.261985v494.854156H112.62198a37.370021 37.370021 0 0 1-37.625979-37.028742zM947.048472 507.133365l-93.510371 394.944809a62.283368 62.283368 0 0 1-61.088893 47.779022H267.050605V449.54258c63.477844-11.944756 111.171546-43.854317 142.31323-95.472725 33.189356-54.860556 41.636005-120.983309 49.229457-179.341971 3.412787-26.278462 6.569616-51.191809 11.688796-70.303419 5.37514-20.476724 11.091559-26.449101 13.224551-28.155495 2.55959-1.877033 7.252173-2.303631 14.077747-1.279795 37.62598 5.46046 63.819122 22.353757 79.944543 51.533088 33.104037 59.894417 18.429051 160.912921-13.053912 229.936544a52.215645 52.215645 0 0 0 3.754066 50.509251 53.495441 53.495441 0 0 0 45.048793 24.23079h272.767023c19.282248 0 37.114062 8.531968 49.058818 23.377593 11.944756 14.760305 16.296059 34.127873 11.944755 52.556924z" p-id="7782"></path></svg>