<svg t="1621088412643" class="icon" viewBox="0 0 1170 1024" version="1.1" xmlns="http://www.w3.org/2000/svg" p-id="6856" width="200" height="200"><path d="M1101.970286 923.209143c38.034286 0 68.315429 22.674286 68.315428 50.468571 0 27.648-31.158857 50.322286-69.193143 50.322286H69.193143C31.158857 1024 0 1001.325714 0 973.604571c0-27.721143 31.158857-50.395429 69.193143-50.395428z m0-461.531429c38.034286 0 68.315429 22.674286 68.315428 50.322286 0 27.721143-31.158857 50.395429-69.193143 50.395429H69.193143C31.158857 562.395429 0 539.721143 0 512c0-27.721143 31.158857-50.395429 69.193143-50.395429zM1123.401143 0c25.746286 0 46.884571 22.674286 46.884571 50.395429 0 27.721143-21.138286 50.395429-46.884571 50.395428H46.811429C21.211429 100.790857 0 78.116571 0 50.395429 0 22.674286 21.138286 0 46.884571 0z" p-id="6857"></path></svg>