<svg t="1615516754059" class="icon" viewBox="0 0 1024 1024" version="1.1" xmlns="http://www.w3.org/2000/svg" p-id="5923" width="200" height="200"><path d="M584.887714 767.56246V365.90415c0-46.676672 73.726956-46.676672 73.726956 0v401.65831c0 46.59134-73.726956 46.59134-73.726956 0z m-221.010202 0V365.90415c0-46.676672 73.641623-46.676672 73.641623 0v401.65831c0 46.59134-73.641623 46.59134-73.641623 0z m623.521833-584.610385H804.105942v-73.556291C804.105942 48.468647 755.637295 0 694.454162 0H327.952688c-61.097801 0-109.65178 48.468647-109.65178 109.395784v73.556291H35.092836c-46.762004 0-46.762004 73.470959 0 73.470959h954.098484c46.676672 0 46.676672-73.470959-1.791975-73.470959zM290.150557 109.395784c0-19.626389 17.919746-35.839492 35.924824-35.839493h368.293449a34.986171 34.986171 0 0 1 36.010157 35.839493v73.556291H290.150557v-73.556291zM768.010453 1023.985494H254.311064a108.798459 108.798459 0 0 1-109.65178-109.395784v-548.68556c0-21.589027 17.919746-35.924824 35.924825-35.924825a34.986171 34.986171 0 0 1 35.924824 35.839493v548.770892c0 19.711721 18.005078 35.839492 35.924824 35.839492h513.955386c19.797053 0 35.924824-16.127772 35.924825-35.839492v-546.978918c0-48.383315 73.641623-48.383315 73.641623 0v546.978918A106.153163 106.153163 0 0 1 768.181118 1023.985494z" p-id="5924"></path></svg>