<svg t="1621239070925" class="icon" viewBox="0 0 1024 1024" version="1.1" xmlns="http://www.w3.org/2000/svg" p-id="2634" width="200" height="200"><path d="M357.717333 65.962667A38.4 38.4 0 0 1 384 102.4v819.2a38.4 38.4 0 0 1-76.8 0V217.6l-46.08 61.44a38.4 38.4 0 0 1-61.44-46.08L314.88 79.36a38.4 38.4 0 0 1 42.837333-13.397333zM678.4 64c21.077333 0 38.229333 17.066667 38.4 38.144V806.4l46.08-61.44a38.4 38.4 0 1 1 61.44 46.08l-115.2 153.6a38.4 38.4 0 0 1-69.12-23.04V102.229333A38.4 38.4 0 0 1 678.4 64z" p-id="2635"></path></svg>