<svg t="1621091323469" class="icon" viewBox="0 0 1024 1024" version="1.1" xmlns="http://www.w3.org/2000/svg" p-id="7618" width="200" height="200"><path d="M384 1.024H64a64 64 0 0 0-64 64v320a64 64 0 0 0 64 64h320a64 64 0 0 0 64-64v-320a64 64 0 0 0-64-64zM384 352a32 32 0 0 1-32 32h-256a32 32 0 0 1-32-32v-256a32 32 0 0 1 32-32h256a32 32 0 0 1 32 32v256zM960 0h-320a64 64 0 0 0-64 64v320a64 64 0 0 0 64 64h320a64 64 0 0 0 64-64V64a64 64 0 0 0-64-64z m0 352a32 32 0 0 1-32 32h-256a32 32 0 0 1-32-32v-256a32 32 0 0 1 32-32h256a32 32 0 0 1 32 32v256zM384 576H64a64 64 0 0 0-64 64v320a64 64 0 0 0 64 64h320a64 64 0 0 0 64-64v-320a64 64 0 0 0-64-64z m0 352a32 32 0 0 1-32 32h-256a32 32 0 0 1-32-32v-256a32 32 0 0 1 32-32h256a32 32 0 0 1 32 32v256zM960 576h-320a64 64 0 0 0-64 64v320a64 64 0 0 0 64 64h320a64 64 0 0 0 64-64v-320a64 64 0 0 0-64-64z m0 351.744a32 32 0 0 1-32 32h-256a32 32 0 0 1-32-32V672a32 32 0 0 1 32-32h256a32 32 0 0 1 32 32v255.744z" p-id="7619"></path></svg>