<svg t="1621241128621" class="icon" viewBox="0 0 1024 1024" version="1.1" xmlns="http://www.w3.org/2000/svg" p-id="4539" width="200" height="200"><path d="M827.463979 360.493712v-44.944449a315.549263 315.549263 0 0 0-630.927958 0v44.859165A140.717915 140.717915 0 0 0 64.261181 500.699925v382.838011C64.261181 960.890147 127.371034 1024 204.979096 1024h614.041808c77.608062 0 140.717915-63.109853 140.717915-140.462064v-382.923295A140.717915 140.717915 0 0 0 827.463979 360.493712zM512 69.506121a246.469559 246.469559 0 0 1 246.469559 245.957858v44.603315H265.530441v-44.603315A246.469559 246.469559 0 0 1 512 69.591405z m378.659116 813.946532a71.638211 71.638211 0 0 1-71.638212 71.552927H204.979096a71.638211 71.638211 0 0 1-71.638212-71.638211V500.785209a71.638211 71.638211 0 0 1 71.638212-71.638211h614.041808a71.638211 71.638211 0 0 1 71.638212 71.638211v382.838011z m-378.317982-371.836429c-70.529524 0-127.925377 58.930957-127.925377 131.33672 0 60.807196 40.339136 112.06263 95.005914 127.072541V861.961189c0 18.762389 14.75406 33.857583 32.919463 33.857583a33.431165 33.431165 0 0 0 33.004748-33.857583V770.110769a131.080869 131.080869 0 0 0 95.091196-127.072541c0-72.405763-57.395852-131.33672-128.095944-131.336721z m0 195.128841a63.024569 63.024569 0 0 1-62.086449-63.706837c0-35.136837 27.887732-63.706838 62.086449-63.706838 34.284001 0 62.171733 28.570001 62.171733 63.706838a62.939285 62.939285 0 0 1-62.171733 63.706837z" p-id="4540"></path></svg>