<svg t="1621090562957" class="icon" viewBox="0 0 1024 1024" version="1.1" xmlns="http://www.w3.org/2000/svg" p-id="7364" width="200" height="200"><path d="M913.736164 0.383808c59.618191 0 108.105947 41.707146 109.385308 101.389305 0.511744 24.947526 0.255872 50.022989 0 74.970515a36.525737 36.525737 0 0 1-10.426787 26.034983c-6.844578 6.972514-11.962019 9.595202-21.685157 9.65917a28.913543 28.913543 0 0 1-23.156422-9.65917 36.525737 36.525737 0 0 1-10.426787-26.354823c-0.31984-22.516742-0.127936-44.969515-0.127936-67.486257-0.127936-26.994503-14.712644-41.515242-41.707146-41.515242H109.978043c-27.634183 0-41.835082 14.264868-41.835082 41.963018v805.74113c0 27.826087 14.072964 41.771114 42.026987 41.771114h804.845577c28.145927 0 42.282859-14.072964 42.282858-42.346826 0-23.22039-0.255872-46.568716 0.255872-69.597202 0.63968-17.143428 9.97901-29.297351 26.994503-31.6002 10.106947-1.5992 16.75962-0.95952 24.755622 5.437282 8.05997 6.396802 12.985507 15.864068 13.625188 26.162918-0.191904 30.064968 1.27936 60.129935-1.471265 90.002999-4.413793 51.238381-51.174413 86.804598-102.668665 88.467766h-7.548226c-266.490755 0-532.853573 0.127936-799.216392 0-48.231884 0-82.518741-23.092454-102.988506-66.526737a108.553723 108.553723 0 0 1-8.827586-47.336332c0.191904-50.406797 0-100.941529 0-151.476261v-246.276862l0.063968-397.753123c0-48.615692 25.075462-88.275862 67.806097-105.099451a117.061469 117.061469 0 0 1 41.195402-8.315842C377.428318 0.191904 645.582241 0.255872 913.736164 0.383808zM826.227919 300.649675c2.942529 2.110945 5.309345 4.605697 7.740129 7.164418l174.76062 174.632684c19.510245 19.574213 19.510245 39.66017-0.191904 59.362318-58.914543 58.914543-117.829085 117.957021-176.743628 176.743629-14.072964 14.072964-32.431784 16.75962-47.528236 7.036481a36.141929 36.141929 0 0 1-5.693153-56.931534c24.81959-25.331334 50.022989-50.150925 75.034482-75.034483l43.178411-43.17841-0.831584-1.855073H479.393336c-21.493253 0-35.950025-10.682659-40.043978-29.617191a36.077961 36.077961 0 0 1 30.448775-42.922539c4.029985-0.447776 8.05997-0.447776 12.153923-0.447776h416.367817c-3.390305-3.262369-5.117441-5.181409-7.036482-7.036482a54443.626187 54443.626187 0 0 1-111.816092-112.071964c-15.16042-15.16042-16.11994-36.269865-3.070465-51.174413a36.269865 36.269865 0 0 1 49.895053-4.669665z" p-id="7365"></path></svg>