<svg t="1621239967138" class="icon" viewBox="0 0 1024 1024" version="1.1" xmlns="http://www.w3.org/2000/svg" p-id="3269" width="200" height="200"><path d="M536.917333 960a38.997333 38.997333 0 0 1-31.573333-19.114667c-1.365333-0.853333-2.730667-0.853333-4.096-2.304L132.096 523.52a18.090667 18.090667 0 0 1 0-23.04L500.565333 86.186667c0.682667-0.768 2.048-0.768 3.413334-1.536A37.546667 37.546667 0 0 1 536.234667 64c21.930667 0 39.082667 19.114667 39.082666 43.690667 0 10.666667-3.413333 20.650667-9.642666 28.330666l0.682666 0.768-323.072 363.690667a18.090667 18.090667 0 0 0 0 23.04l321.024 361.472 2.048 2.218667a53.930667 53.930667 0 0 1 9.642667 29.098666c0 23.808-17.834667 43.690667-39.082667 43.690667z m320 0a38.997333 38.997333 0 0 1-31.573333-19.114667c-1.365333-0.853333-2.730667-0.853333-4.096-2.304L452.096 523.52a18.090667 18.090667 0 0 1 0-23.04L820.565333 86.186667c0.682667-0.768 2.048-0.768 3.413334-1.536A37.546667 37.546667 0 0 1 856.234667 64c21.930667 0 39.082667 19.114667 39.082666 43.690667 0 10.666667-3.413333 20.650667-9.642666 28.330666l0.682666 0.768-323.072 363.690667a18.090667 18.090667 0 0 0 0 23.04l321.024 361.472 2.048 2.218667a53.845333 53.845333 0 0 1 9.642667 29.098666c0 23.808-17.834667 43.690667-39.082667 43.690667z" p-id="3270"></path></svg>