<svg t="1617179441774" class="icon" viewBox="0 0 1024 1024" version="1.1" xmlns="http://www.w3.org/2000/svg" p-id="1902" width="200" height="200"><path d="M1007.018667 537.941333L527.872 798.549333a33.194667 33.194667 0 0 1-32.170667 0.256L13.141333 536.234667V535.893333a29.013333 29.013333 0 0 1 4.096-49.322666l90.197334-49.066667L170.666667 471.893333l-74.24 40.448L511.744 738.133333 927.658667 512l-74.24-40.448 63.658666-34.645333 89.770667 49.152a29.013333 29.013333 0 0 1 0.170667 51.968z m0-219.904L527.872 578.56a32.938667 32.938667 0 0 1-32.170667 0.256L12.970667 316.074667 13.056 315.733333a29.013333 29.013333 0 0 1 4.096-49.322666L495.872 5.973333a33.621333 33.621333 0 0 1 33.450667-0.938666l477.44 260.778666c4.864 2.56 9.045333 6.4 11.946666 11.093334a29.013333 29.013333 0 0 1-11.776 41.130666h0.085334zM513.365333 65.706667L96.512 292.522667l415.146667 225.792 416-226.218667L513.365333 65.706667zM17.152 706.389333l89.856-48.981333 63.573333 34.56-74.069333 40.277333 415.146667 225.792 416-226.304-73.813334-40.362666 63.402667-34.56 89.6 48.981333a29.013333 29.013333 0 0 1 0.170667 52.053333l-479.146667 260.608a32.938667 32.938667 0 0 1-32.170667 0.170667L12.970667 756.053333l0.170666-0.341333a29.013333 29.013333 0 0 1 4.096-49.322667z" p-id="1903"></path></svg>