<svg t="1621240768291" class="icon" viewBox="0 0 1024 1024" version="1.1" xmlns="http://www.w3.org/2000/svg" p-id="4158" width="200" height="200"><path d="M733.269333 64C652.032 64 569.002667 100.096 512 175.616A275.968 275.968 0 0 0 290.56 64C145.237333 64 0 175.616 0 375.808c0 237.909333 313.002667 467.626667 492.885333 579.242667 5.205333 3.328 12.117333 4.949333 19.029334 4.949333 6.912 0 13.824-1.706667 19.029333-4.949333 179.882667-111.530667 492.885333-342.954667 492.885333-579.242667 0-200.192-145.237333-311.808-290.56-311.808zM512 887.808C233.472 710.570667 69.205333 521.813333 69.205333 375.808c0-160.853333 110.677333-246.186667 221.354667-246.186667 65.706667 0 124.586667 29.525333 164.266667 83.712l27.733333 37.717334c5.12 6.570667 12.032 11.52 20.736 13.141333 3.413333 0 5.12 1.706667 8.618667 1.706667 3.413333 0 5.12 0 8.618666-1.706667a34.56 34.56 0 0 0 20.821334-13.141333l27.648-37.717334c41.472-54.186667 98.56-83.626667 164.266666-83.626666 108.970667 0 221.44 85.333333 221.44 246.101333 0 146.005333-164.352 336.384-442.794666 512z" p-id="4159"></path></svg>