<svg t="1615536742986" class="icon" viewBox="0 0 1024 1024" version="1.1" xmlns="http://www.w3.org/2000/svg" p-id="6656" width="200" height="200"><path d="M921.173333 0.512H342.869333c-56.32 0-107.52 46.08-107.52 107.52v127.829333H92.16c-51.2 0-92.074667 40.96-92.074667 92.16v603.904C0 983.04 40.96 1024 92.16 1024h603.818667c51.2 0 92.16-40.96 92.16-92.16V788.650667h127.914666c56.32 0 107.52-46.08 107.52-107.434667V107.946667c0-56.32-46.08-107.52-102.4-107.52zM721.493333 931.84c0 10.24-10.24 20.48-20.394666 20.48H92.074667c-10.24 0-20.48-10.24-20.48-20.48V328.021333c0-10.24 10.24-20.48 20.48-20.48h603.904c10.24 0 20.48 10.24 20.48 20.48v603.904h5.12z m-173.909333-230.4c10.24 0 20.48 0 25.6 10.24 5.12 5.12 10.24 15.36 10.24 25.6 0 15.36-15.36 30.72-35.84 30.72H245.674667c-10.24 0-20.48-5.12-25.6-10.24a39.082667 39.082667 0 0 1-10.24-25.6c0-15.36 15.36-30.72 35.84-30.72zM921.173333 72.192c20.48 0 35.84 15.36 35.84 35.84v578.304c0 20.48-15.36 35.84-35.84 35.84h-128V328.021333c0-51.2-40.96-92.16-92.074666-92.16H307.029333V107.946667c0-20.48 15.36-35.84 35.84-35.84h578.304zM547.584 491.776c10.24 0 20.48 5.12 25.6 10.24s10.24 15.36 10.24 25.6c0 15.36-15.36 30.72-35.84 30.72H245.674667c-10.24 0-20.48-5.12-25.6-10.24a39.082667 39.082667 0 0 1-10.24-25.6c0-15.36 15.36-30.72 35.84-30.72z" p-id="6657"></path></svg>