<svg t="1621240810596" class="icon" viewBox="0 0 1024 1024" version="1.1" xmlns="http://www.w3.org/2000/svg" p-id="4285" width="200" height="200"><path d="M995.636712 12.200807L989.749198 9.470365a31.400076 31.400076 0 0 1 12.628291 8.191325l1.791852 1.791852a70.138214 70.138214 0 0 1 18.345153 64.506678L840.598836 941.062842a68.090383 68.090383 0 0 1-38.396832 47.782725 63.397436 63.397436 0 0 1-62.032216-6.058167L402.192338 735.170495l-0.085327 254.784314c0 9.044587-3.413052 17.662543-9.385892 24.062015A31.31475 31.31475 0 0 1 369.768346 1024a31.31475 31.31475 0 0 1-22.696794-9.983176 35.154433 35.154433 0 0 1-9.385893-24.062015V699.760083c0-19.625048 7.850019-38.140853 21.587553-51.025124l522.708876-551.890469L65.665434 405.043064a2.559789 2.559789 0 0 0-0.853262 0.341305l0.255978 0.170653 0.682611 0.597284 0.341305 0.170652 170.14063 124.576389c11.604376 8.532629 16.638627 23.976689 12.457639 38.22618a32.423992 32.423992 0 0 1-30.717466 23.891362 30.802792 30.802792 0 0 1-18.345153-5.97284L29.487086 462.46766l-0.853263-0.767937-5.887514-4.522293a69.711582 69.711582 0 0 1-21.672879-61.605585 66.981141 66.981141 0 0 1 47.014788-56.144701L940.345273 2.729588h0.170653a62.714826 62.714826 0 0 1 55.120786 9.385892z m-47.44142 111.009508l-519.63713 548.562744 347.19269 254.101703a2.133157 2.133157 0 0 0 2.218484-0.341305v-0.511958l170.225956-801.811184z" p-id="4286"></path></svg>