<svg t="1617171242595" class="icon" viewBox="0 0 1024 1024" version="1.1" xmlns="http://www.w3.org/2000/svg" p-id="2159" width="200" height="200"><path d="M668.416996 0.005973a30.463695 30.463695 0 0 1 31.061023 31.146355V337.922594a30.549028 30.549028 0 0 1-31.061023 31.146355H546.135552v91.135089h293.714396a30.463695 30.463695 0 0 1 31.061023 31.146355v163.497032h122.025446a30.463695 30.463695 0 0 1 31.061023 30.890358v307.111595a30.719693 30.719693 0 0 1-31.061023 31.061023H686.763479a30.463695 30.463695 0 0 1-30.97569-31.061023V685.99378a30.549028 30.549028 0 0 1 30.97569-31.146355h122.025447V522.411416H215.216195v132.265344h122.025446a30.463695 30.463695 0 0 1 31.061023 31.061023v307.196928a30.549028 30.549028 0 0 1-30.975691 31.061022H31.068703A30.463695 30.463695 0 0 1 0.00768 992.849378V686.079113a30.719693 30.719693 0 0 1 31.061023-31.146356h122.025446V491.521058a30.549028 30.549028 0 0 1 30.97569-31.146355h300.029v-91.305754h-122.025446a30.463695 30.463695 0 0 1-31.061023-31.061022V31.152328A30.63436 30.63436 0 0 1 362.073393 0.005973zM306.180618 717.140135H62.129725v244.562888h244.050893V717.140135z m655.524112 0H717.824502v244.562888h244.050893l-0.170665-244.562888zM637.185308 62.213351H393.049083v244.64822h244.050893V62.298684z" p-id="2160"></path></svg>