<?xml version="1.0" standalone="no"?><!DOCTYPE svg PUBLIC "-//W3C//DTD SVG 1.1//EN" "http://www.w3.org/Graphics/SVG/1.1/DTD/svg11.dtd"><svg t="1620869130422" class="icon" viewBox="0 0 1024 1024" version="1.1" xmlns="http://www.w3.org/2000/svg" p-id="3825" xmlns:xlink="http://www.w3.org/1999/xlink" width="200" height="200"><defs><style type="text/css"></style></defs><path d="M990.805333 242.346667L903.338667 73.984C881.664 32.512 828.074667 0 781.312 0H243.456c-46.762667 0-100.522667 32.341333-122.282667 73.472L33.621333 238.421333A338.005333 338.005333 0 0 0 0 373.930667v554.069333C0 980.906667 43.008 1024 96 1024h832c52.906667 0 96-43.093333 96-96V377.856c0-40.277333-14.506667-99.84-33.194667-135.509333z m-900.522666 26.026666l87.381333-164.864C188.586667 82.773333 219.904 64 243.370667 64h538.026666c23.296 0 54.357333 18.858667 65.194667 39.594667l87.466667 168.277333c4.096 8.021333 8.021333 18.261333 11.52 29.269333H77.482667a203.093333 203.093333 0 0 1 12.8-32.768z m869.717333 659.626667a32 32 0 0 1-32 32h-832a32 32 0 0 1-32-32V373.930667c0-2.56 0.512-5.973333 0.768-8.789334h894.122667c0.426667 4.266667 1.109333 8.96 1.109333 12.8v550.058667z m-178.944-386.56l-161.28 172.117333-65.024-64.938666a32 32 0 1 0-45.226667 45.226666L597.333333 781.397333c6.314667 6.229333 14.421333 9.386667 22.613334 9.386667a31.829333 31.829333 0 0 0 12.970666-3.072 31.317333 31.317333 0 0 0 12.714667-7.936L827.733333 585.130667a32.085333 32.085333 0 0 0-46.762666-43.776z m-364.458667 46.677333H224.426667a32 32 0 0 0 0 64h192a32 32 0 1 0 0-64z m-97.109333 136.533334H223.488a32 32 0 0 0 0 64h96a31.914667 31.914667 0 1 0 0-64z" p-id="3826"></path></svg>