<svg t="1615536949871" class="icon" viewBox="0 0 1024 1024" version="1.1" xmlns="http://www.w3.org/2000/svg" p-id="6781" width="200" height="200"><path d="M1013.80984 406.617801c-8.871022-49.38771-41.540267-82.483446-84.701202-82.483446h-1.705966c-43.672724 0-79.156813-37.701844-79.156813-83.592324 0-10.49169 5.032599-25.589487 7.250355-30.792683A106.622862 106.622862 0 0 0 821.121003 83.593177L699.400343 12.198508 694.367744 9.895455A89.392608 89.392608 0 0 0 655.64232 1.706819c-28.233734 0-56.467468 11.685866-75.31839 31.986859-18.253834 19.192115-50.923079 42.39325-65.85028 42.39325-14.927201 0-47.596446-23.201135-65.850279-42.990339A102.613843 102.613843 0 0 0 373.304981 0.000853c-13.306533 0-26.527768 2.303054-38.725424 8.103338L208.338088 80.778334l-4.947301 3.411931c-37.701844 27.295453-52.031957 81.374569-33.266333 125.559083 2.217756 5.800284 7.250355 20.898081 7.250355 31.304472 0 45.89048-35.484089 83.677622-82.483447 83.677623h-2.217755c-39.9196 0-73.100634 33.095737-81.886359 83.080534C8.398896 421.715599 0.21026 471.103308 0.21026 512.387681 0.21026 553.586755 7.887106 602.974465 10.70195 617.560472c8.871022 49.302412 42.052057 82.483446 81.886358 82.483447h5.117898c43.672724 0 79.071515 37.701844 79.071514 83.592324 0 9.894602-4.435511 24.992399-7.165056 30.792682a107.902337 107.902337 0 0 0 33.778123 126.070873l119.588202 70.882879 4.947301 2.303054c12.197655 5.800284 25.41889 8.188636 38.725424 8.188636 28.233734 0 57.576346-12.197655 76.427268-33.692825 17.742044-20.386291 52.031957-45.37869 66.959157-45.37869 15.524289 0 48.705324 24.992399 66.959158 45.89048a99.543104 99.543104 0 0 0 115.152691 26.783663l124.023714-72.077055 4.947301-3.411932c37.701844-27.295453 52.031957-81.374569 33.266333-124.961995a107.73174 107.73174 0 0 1-7.250355-31.38977c0-45.89048 35.484089-83.592324 82.483447-83.592324 40.431389-0.597088 74.209512-32.583947 83.592324-83.080535 2.217756-13.98892 10.576988-63.376629 10.576988-104.575703a631.97503 631.97503 0 0 0-9.9799-105.76988z m-71.991757 196.356664c-1.705966 9.894602-6.653267 20.386291-12.794743 20.386291-86.321869 0-154.901695 70.285791-154.901695 160.360785 0 26.698365 9.9799 53.39673 12.709445 60.902979 4.947301 11.685866 1.108878 26.186575-7.676846 32.583947l-118.564623 68.494527a28.91612 28.91612 0 0 1-29.342612-8.103338c-6.653267-7.50625-63.632524-71.479967-121.720659-71.479967-58.685223 0-120.185291 69.091615-120.697081 69.774001a32.583947 32.583947 0 0 1-22.177555 9.297514 22.092257 22.092257 0 0 1-8.871022-1.705966l-1.108878-0.682386-112.934936-66.788561c-7.676846-7.50625-11.088778-20.898081-7.165056-30.195595 2.814844-6.397372 13.306533-34.289913 13.306533-62.182453 0-88.28373-68.665123-160.360785-152.769237-160.360785h-5.032599c-1.705966-0.51179-7.676846-6.312073-9.9799-19.703905a607.665018 607.665018 0 0 1-9.382812-91.269171c0-27.295453 5.032599-64.400209 9.382812-90.586783 2.217756-13.306533 7.762144-19.106817 9.382812-20.300994h2.303053c87.430747 0 155.498783-70.285791 155.498783-160.360785 0-27.892541-10.49169-55.699783-12.709445-60.988277a28.404331 28.404331 0 0 1 7.165056-31.90156l1.108878-0.597088L365.031046 78.47528a31.986859 31.986859 0 0 1 8.273935-1.194176c8.273934 0 17.742044 3.411932 22.177555 8.700425 2.217756 2.900142 61.414769 66.788561 118.991114 66.788561 56.467468 0 115.664481-63.291331 117.882237-65.679683A32.498648 32.498648 0 0 1 655.045232 78.47528c3.411932 0 6.653267 0.597088 8.871022 1.705966l1.108878 0.682386 115.152692 67.385649a29.42791 29.42791 0 0 1 7.762144 30.707384 177.761636 177.761636 0 0 0-13.306533 62.267752c0 88.28373 68.665123 160.275487 152.769237 160.275487 10.576988 0 13.903621 13.903621 15.012499 19.789203 4.435511 25.589487 9.382812 63.291331 9.382812 91.183872-0.597088 27.295453-5.544389 65.679683-9.9799 90.586784zM512.255895 319.86944A192.006451 192.006451 0 0 0 320.078848 511.534698 192.51824 192.51824 0 0 0 512.255895 703.711745 191.665258 191.665258 0 0 0 703.921152 511.534698 191.238766 191.238766 0 0 0 512.255895 319.86944z m0 311.935847A120.099992 120.099992 0 0 1 392.582394 512.046488c0-65.85028 53.908519-119.758799 119.758799-119.7588a119.758799 119.758799 0 0 1 0 239.602897z" p-id="6782"></path></svg>