<svg t="1615538968467" class="icon" viewBox="0 0 1024 1024" version="1.1" xmlns="http://www.w3.org/2000/svg" p-id="8406" width="200" height="200"><path d="M511.914667 0c138.069333 0 253.781333 93.525333 280.746666 217.429333h87.04c44.288 0 80.298667 34.389333 80.298667 76.544v653.653334c-0.256 42.154667-36.181333 76.288-80.554667 76.373333H144.298667c-44.288 0-80.298667-34.304-80.298667-76.458667v-653.653333c0-42.069333 36.010667-76.373333 80.298667-76.373333h86.784C258.048 93.44 373.76 0 511.829333 0z m367.786666 283.050667l-81.066666-0.085334v138.752c0 17.92-15.36 32.768-34.389334 32.768a33.536 33.536 0 0 1-34.389333-32.768V282.965333H293.888v138.752c0 18.090667-15.36 32.768-34.389333 32.768a33.536 33.536 0 0 1-34.389334-32.768l-0.085333-138.752h-80.725333c-6.229333 0-11.434667 5.12-11.434667 11.008v653.653334c0 5.802667 5.205333 10.837333 11.434667 10.837333h735.402666c6.229333 0 11.434667-5.034667 11.434667-10.922667v-653.653333c0-5.802667-5.205333-10.837333-11.434667-10.837333zM646.314667 691.626667c19.029333 0 34.474667 14.592 34.474666 32.768 0 18.090667-15.36 32.768-34.218666 32.768H377.173333a33.536 33.536 0 0 1-34.389333-32.768c0-18.176 15.36-32.768 34.389333-32.768h269.141334zM512 65.536c-100.096 0-184.576 64.426667-210.090667 151.893333H721.92C696.32 130.048 611.925333 65.621333 512 65.621333z" p-id="8407"></path></svg>