<svg t="1615537612327" class="icon" viewBox="0 0 1024 1024" version="1.1" xmlns="http://www.w3.org/2000/svg" p-id="7156" width="200" height="200"><path d="M896 1024h-768A128 128 0 0 1 0 896v-768A128 128 0 0 1 128 0h768A128 128 0 0 1 1024 128v768a128 128 0 0 1-128 128zM128 64a64 64 0 0 0-64 64v768c0 35.328 28.672 64 64 64h768a64 64 0 0 0 64-64v-768a64 64 0 0 0-64-64h-768z m672 384h-576a32 32 0 1 1 0-64H704l-51.2-38.4a32 32 0 0 1 38.4-51.2l128 96a32 32 0 0 1-19.2 57.6z m-448 288A32 32 0 0 1 332.8 729.6L204.8 633.6a32 32 0 0 1 19.2-57.6h576a32 32 0 0 1 0 64H320l51.2 38.4a32 32 0 0 1-19.2 57.6z" p-id="7157"></path></svg>