<svg t="1615538338269" class="icon" viewBox="0 0 1024 1024" version="1.1" xmlns="http://www.w3.org/2000/svg" p-id="7906" width="200" height="200"><path d="M926.559573 960H97.460907C43.700907 960 0.01024 915.882667 0.01024 861.696v-151.04c0-17.578667 12.288-32.256 28.672-34.304 85.162667-10.752 149.333333-81.408 149.333333-164.352S113.93024 358.4 28.767573 347.648A33.877333 33.877333 0 0 1 0.01024 313.344v-151.04C0.01024 108.117333 43.78624 64 97.54624 64h829.013333c53.76 0 97.450667 44.117333 97.450667 98.304v151.04a33.877333 33.877333 0 0 1-28.672 34.389333c-85.162667 10.752-149.333333 81.408-149.333333 164.266667 0 82.944 64.170667 153.685333 149.333333 164.352a33.877333 33.877333 0 0 1 28.672 34.304v151.04c0 54.186667-43.690667 98.304-97.450667 98.304zM64.01024 742.570667v123.818666c0 16.042667 14.933333 29.610667 32.597333 29.610667h830.805334c17.664 0 32.597333-13.568 32.597333-29.610667V742.570667a238.336 238.336 0 0 1 0-461.226667v-123.733333c0-16.042667-14.933333-29.610667-32.597333-29.610667H96.607573c-17.664 0-32.597333 13.568-32.597333 29.610667v123.733333a238.250667 238.250667 0 0 1 0 461.141333z m380.245333-412.842667l69.12 76.8 69.12-76.8a30.378667 30.378667 0 0 1 39.168-3.498667 25.941333 25.941333 0 0 1 3.754667 36.693334l-73.984 82.176h92.586667c15.36 0.426667 27.648 11.946667 27.989333 26.282666 0 13.994667-13.056 26.197333-29.866667 26.197334H539.316907v43.690666h104.618666c15.36 0.426667 27.648 11.946667 27.989334 26.282667 0 13.994667-13.056 26.282667-29.866667 26.282667H539.316907v82.176a29.354667 29.354667 0 0 1-27.989334 27.989333c-15.36-0.341333-27.648-11.946667-27.989333-26.197333v-84.053334H380.767573a28.416 28.416 0 0 1-24.32-13.056 24.746667 24.746667 0 0 1 0-26.197333 28.416 28.416 0 0 1 24.32-13.141333h102.656V497.493333H380.767573a28.501333 28.501333 0 0 1-24.917333-12.8 24.746667 24.746667 0 0 1 0-26.709333 28.501333 28.501333 0 0 1 24.917333-12.885333h94.378667l-73.898667-82.261334c-9.301333-10.496-9.301333-27.904 3.754667-36.693333 13.056-8.789333 29.866667-8.789333 39.253333 3.413333z" p-id="7907"></path></svg>