<svg t="1615516518502" class="icon" viewBox="0 0 1024 1024" version="1.1" xmlns="http://www.w3.org/2000/svg" p-id="4002" width="200" height="200"><path d="M0.042663 492.076327c12.798933-17.918507 30.71744-23.03808 53.75552-20.478294h414.173486V62.544121c0-25.597867 5.119573-46.07616 25.597867-61.43488h30.71744c20.392967 15.35872 25.512541 33.277227 25.512541 58.875094v409.053912h411.613699c12.798933 0 30.71744 0 38.3968 7.67936 10.239147 7.67936 20.478293 25.597867 23.03808 38.3968 2.559787 17.918507-12.798933 30.71744-30.71744 35.837014-7.67936 2.559787-17.918507 0-25.597867 0H552.359303v416.733272c0 25.597867-5.119573 46.07616-30.71744 56.229981h-20.478293c-23.03808-10.239147-33.277227-28.157654-30.717441-56.315307V550.951421H58.917757c-25.597867 0-46.07616-5.119573-58.789768-25.597867v-33.191901z" p-id="4003"></path></svg>