<?xml version="1.0" standalone="no"?><!DOCTYPE svg PUBLIC "-//W3C//DTD SVG 1.1//EN" "http://www.w3.org/Graphics/SVG/1.1/DTD/svg11.dtd"><svg t="1626167815141" class="icon" viewBox="0 0 1024 1024" version="1.1" xmlns="http://www.w3.org/2000/svg" p-id="5797" xmlns:xlink="http://www.w3.org/1999/xlink" width="200" height="200"><defs><style type="text/css"></style></defs><path d="M512 0a512 512 0 1 1 0 1024A512 512 0 0 1 512 0z m0 64a448 448 0 1 0 0 896A448 448 0 0 0 512 64.073143z m36.571429 685.933714a9.069714 9.069714 0 0 1-9.142858 8.923429h-54.857142a9.069714 9.069714 0 0 1-9.142858-8.923429V447.780571c0-4.900571 4.096-8.923429 9.142858-8.923428h54.857142c5.046857 0 9.142857 4.022857 9.142858 8.923428v302.153143zM512 365.714286a54.857143 54.857143 0 1 1 0-109.714286A54.857143 54.857143 0 0 1 512 365.714286z" p-id="5798"></path></svg>