<?xml version="1.0" encoding="UTF-8"?>
<svg width="12px" height="13px" viewBox="0 0 12 13" version="1.1" xmlns="http://www.w3.org/2000/svg" xmlns:xlink="http://www.w3.org/1999/xlink">
    <title>Icon-download</title>
    <g id="B2C-PC模版" stroke="none" stroke-width="1" fill="none" fill-rule="evenodd">
        <g id="2.5.1商品-导入" transform="translate(-316.000000, -346.000000)" fill="#0088D2">
            <g id="编组-36" transform="translate(204.000000, 294.000000)">
                <g id="编组-26" transform="translate(0.000000, 40.000000)">
                    <g id="Icon/Save备份" transform="translate(112.000000, 12.000000)">
                        <path d="M9.95887198,2.13162821e-13 C11.0864268,2.13162821e-13 12,0.785765625 12,1.75457813 L12,1.75457813 L12,3.30371875 C12,3.49714063 11.8165021,3.65460938 11.5921034,3.65460938 C11.3660754,3.65460938 11.2404777,3.49714063 11.2404777,3.30371875 L11.2404777,3.30371875 L11.2404777,1.83156439 C11.2404777,1.25045502 10.6923181,0.779626891 10.0167721,0.779626891 L10.0167721,0.779626891 L2.00075229,0.779626891 C1.32514361,0.779626891 0.776999698,1.25045502 0.776200792,1.83156439 L0.776200792,1.83156439 L0.769778209,10.2435321 C0.768979303,10.8254539 1.31712322,11.2970633 1.9935308,11.2970633 L1.9935308,11.2970633 L4.31064935,11.2970633 C4.53667725,11.2938914 4.72178861,11.4500625 4.72496857,11.6434844 C4.7290101,11.8377031 4.54867652,11.9968125 4.32349451,12 L4.32349451,12 L2.07161179,12.0295937 L2.03954588,12.0295937 C0.91199104,12.0287969 2.13162821e-14,11.2430313 2.13162821e-14,10.2742188 L2.13162821e-14,10.2742188 L0.00722148902,1.75457813 C0.00802039562,0.785765625 0.921593584,0.00159375 2.04756627,0.00159375 L2.04756627,0.00159375 Z M9.72484198,6 C9.976227,6 10.127084,6.17104352 10.177348,6.45606689 L10.177348,10.3895221 L11.3337581,9.02138044 C11.4846152,8.85033692 11.7360132,8.85033692 11.8868572,9.02138044 C12.0377143,9.19236495 12.0377143,9.53443725 11.8868572,9.70542176 L10.026556,11.8717174 C9.87569901,12.0427609 9.624314,12.0427609 9.47345696,11.8717174 L7.61314278,9.64843184 C7.46228574,9.47744733 7.46228574,9.13537503 7.61314278,8.96439052 C7.76399981,8.793347 8.01538483,8.793347 8.16618981,8.96439052 L9.32265198,10.3895221 L9.32265198,6.51307156 C9.32265198,6.22803344 9.47345696,6.05698992 9.72484198,6 Z M7.53776106,3.16242188 C7.75904253,3.16242188 7.93845188,3.341375 7.93845188,3.56214063 C7.93845188,3.78284375 7.75904253,3.96179688 7.53776106,3.96179688 L7.53776106,3.96179688 L2.72945557,3.96179688 C2.58627898,3.96179688 2.45397378,3.885625 2.38244814,3.76196875 C2.31085984,3.6383125 2.31085984,3.48596875 2.38244814,3.3623125 C2.45397378,3.23865625 2.58627898,3.16242188 2.72945557,3.16242188 L2.72945557,3.16242188 Z" id="Fill-4备份"></path>
                    </g>
                </g>
            </g>
        </g>
    </g>
</svg>