<?xml version="1.0" encoding="UTF-8"?>
<svg width="12px" height="12px" viewBox="0 0 12 12" version="1.1" xmlns="http://www.w3.org/2000/svg" xmlns:xlink="http://www.w3.org/1999/xlink">
    <title>Icon-add</title>
    <g id="B2C-PC模版" stroke="none" stroke-width="1" fill="none" fill-rule="evenodd">
        <g id="2.5.1商品-导入" transform="translate(-228.000000, -346.000000)" fill="#0088D2">
            <g id="编组-36" transform="translate(204.000000, 294.000000)">
                <g id="编组-26" transform="translate(0.000000, 40.000000)">
                    <g id="Icon/Save" transform="translate(24.000000, 12.000000)">
                        <path d="M0,5.76702475 C0.149851485,5.55724752 0.359569307,5.49732178 0.629272277,5.52724752 L5.48385149,5.52724752 L5.48385149,0.732653465 C5.48385149,0.433009901 5.54377723,0.193247525 5.78349505,0.0134554455 L6.14312376,0.0134554455 C6.38282673,0.193247525 6.44275248,0.403024752 6.44275248,0.702668317 L6.44275248,5.49732178 L11.2673465,5.49732178 C11.417198,5.49732178 11.6269158,5.49732178 11.7168416,5.58717327 C11.8366931,5.67709901 11.9565446,5.88687624 11.9865446,6.03672772 C12.0165297,6.24644554 11.8366931,6.39629703 11.6269158,6.45622277 C11.5370495,6.48620792 11.417198,6.45622277 11.3272723,6.45622277 L6.47275248,6.45622277 L6.47275248,11.3407426 C6.47275248,11.6403713 6.41282673,11.8801485 6.11312376,12 L5.87342079,12 C5.60370297,11.8801485 5.48385149,11.6703713 5.51379208,11.3407426 L5.51379208,6.45622277 L0.68919802,6.45622277 C0.389554455,6.45622277 0.149851485,6.39629703 0,6.15657921 L0,5.76702475 Z" id="icon_plus"></path>
                    </g>
                </g>
            </g>
        </g>
    </g>
</svg>