<?xml version="1.0" encoding="UTF-8"?>
<svg width="12px" height="12px" viewBox="0 0 12 12" version="1.1" xmlns="http://www.w3.org/2000/svg" xmlns:xlink="http://www.w3.org/1999/xlink">
    <title>Icon-dele</title>
    <g id="B2C-PC模版" stroke="none" stroke-width="1" fill="none" fill-rule="evenodd">
        <g id="2.5.1商品-导入" transform="translate(-404.000000, -346.000000)" fill="#FF474A">
            <g id="编组-36" transform="translate(204.000000, 294.000000)">
                <g id="编组-26" transform="translate(0.000000, 40.000000)">
                    <g id="Icon/Save备份-2" transform="translate(200.000000, 12.000000)">
                        <path d="M6.85403834,8.99500296 L6.85403834,4.28758114 C6.85403834,3.74099021 7.71786959,3.74099021 7.71786959,4.28758114 L7.71786959,8.99500296 C7.71786959,9.54119586 6.85403834,9.54119586 6.85403834,8.99500296 Z M4.26429886,8.99500296 L4.26429886,4.28758114 C4.26429886,3.74099021 5.12720138,3.74099021 5.12720138,4.28758114 L5.12720138,8.99500296 C5.12726035,9.54119586 4.26429886,9.54119586 4.26429886,8.99500296 Z M11.5706737,2.14393875 L9.42288891,2.14393875 L9.42288891,1.28224504 C9.42288891,0.567790939 8.85452456,0.000296354724 8.13846362,0.000296354724 L3.84323309,0.000296354724 C3.12717215,0.000296354724 2.55840979,0.567790939 2.55840979,1.28224504 L2.55840979,2.14393875 L0.410507061,2.14393875 C-0.136835687,2.14393875 -0.136835687,3.00523443 0.410507061,3.00523443 L11.5920491,3.00523443 C12.139495,3.00523443 12.139495,2.14393875 11.5706737,2.14393875 Z M3.40086564,1.28218607 C3.40086564,1.05121389 3.61134693,0.861990061 3.82232943,0.861990061 L8.13846362,0.861990061 C8.37036453,0.861990061 8.55986845,1.03025126 8.55986845,1.28218607 L8.55986845,2.14393875 L3.40086564,2.14393875 L3.40086564,1.28218607 Z M9.00183788,12 L2.97987358,12 C2.26373893,12 1.6954483,11.4324464 1.6954483,10.7181103 L1.6954483,4.28758114 C1.6954483,4.0352483 1.90591485,3.8669871 2.11644036,3.8669871 C2.34788428,3.8669871 2.53744716,4.0352483 2.53744716,4.28758114 L2.53744716,10.7181103 C2.53744716,10.9490825 2.74797267,11.1382473 2.95849819,11.1382473 L8.98093422,11.1382473 C9.21282038,11.1382473 9.40198525,10.9490825 9.40198525,10.7181103 L9.40198525,4.3084848 C9.40198525,3.74099021 10.2654037,3.74099021 10.2654037,4.3084848 L10.2654037,10.7181103 C10.2867202,11.4324464 9.71795779,12 9.00183788,12 Z" id="shanchu"></path>
                    </g>
                </g>
            </g>
        </g>
    </g>
</svg>