<?xml version="1.0" encoding="UTF-8"?>
<svg width="1440px" height="836px" viewBox="0 0 1440 836" version="1.1" xmlns="http://www.w3.org/2000/svg" xmlns:xlink="http://www.w3.org/1999/xlink">
    <title>403</title>
    <g id="B2C-PC模版" stroke="none" stroke-width="1" fill="none" fill-rule="evenodd">
        <g id="403">
            <rect id="背景" fill="#F2F3F4" x="0" y="0" width="1440" height="836"></rect>
            <text id="Copyright-©-2021-云时通" font-family="PingFangSC-Regular, PingFang SC" font-size="14" font-weight="normal" line-spacing="22" fill="#000000" fill-opacity="0.4">
                <tspan x="611.353" y="805">Copyright © 2021 云时通版权所有</tspan>
            </text>
            <text id="很抱歉，您需授权后才可以访问此页面…" font-family="PingFangSC-Regular, PingFang SC" font-size="20" font-weight="normal" line-spacing="28" fill="#000000" fill-opacity="0.25">
                <tspan x="540" y="521">很抱歉，您需授权后才可以访问此页面…</tspan>
            </text>
            <g id="编组-2" transform="translate(440.000000, 160.000000)">
                <circle id="椭圆形" fill="#E5E5E5" cx="280" cy="156" r="100"></circle>
                <rect id="矩形" fill="#E5E5E5" transform="translate(183.557368, 105.946152) rotate(-330.000000) translate(-183.557368, -105.946152) " x="169.057368" y="99.9461524" width="29" height="12" rx="6"></rect>
                <rect id="矩形备份-8" fill="#E5E5E5" transform="translate(202.918584, 90.196152) rotate(-330.000000) translate(-202.918584, -90.196152) " x="192.918584" y="84.1961524" width="20" height="12" rx="6"></rect>
                <rect id="矩形备份-6" fill="#E5E5E5" transform="translate(375.000000, 193.000000) rotate(-330.000000) translate(-375.000000, -193.000000) " x="359" y="187" width="32" height="12" rx="6"></rect>
                <rect id="矩形备份-7" fill="#F2F3F4" transform="translate(194.052559, 98.696152) rotate(-330.000000) translate(-194.052559, -98.696152) " x="184.052559" y="92.6961524" width="20" height="12" rx="6"></rect>
                <rect id="矩形备份-9" fill="#F2F3F4" transform="translate(368.700962, 203.250000) rotate(-330.000000) translate(-368.700962, -203.250000) " x="360.200962" y="197.25" width="17" height="12" rx="6"></rect>
                <rect id="矩形备份-10" fill="#E5E5E5" transform="translate(362.000000, 213.000000) rotate(-330.000000) translate(-362.000000, -213.000000) " x="351" y="207" width="22" height="12" rx="6"></rect>
                <path d="M213,107 C213.828427,107 214.5,107.671573 214.5,108.5 L214.5,112.5 L218.5,112.5 C219.328427,112.5 220,113.171573 220,114 C220,114.828427 219.328427,115.5 218.5,115.5 L214.5,115.5 L214.5,119.5 C214.5,120.328427 213.828427,121 213,121 C212.171573,121 211.5,120.328427 211.5,119.5 L211.5,115.5 L207.5,115.5 C206.671573,115.5 206,114.828427 206,114 C206,113.171573 206.671573,112.5 207.5,112.5 L211.5,112.5 L211.5,108.5 C211.5,107.671573 212.171573,107 213,107 Z" id="矩形-2" fill="#F2F3F4"></path>
                <path d="M356,56 C356.828427,56 357.5,56.6715729 357.5,57.5 L357.5,61.5 L361.5,61.5 C362.328427,61.5 363,62.1715729 363,63 C363,63.8284271 362.328427,64.5 361.5,64.5 L357.5,64.5 L357.5,68.5 C357.5,69.3284271 356.828427,70 356,70 C355.171573,70 354.5,69.3284271 354.5,68.5 L354.5,64.5 L350.5,64.5 C349.671573,64.5 349,63.8284271 349,63 C349,62.1715729 349.671573,61.5 350.5,61.5 L354.5,61.5 L354.5,57.5 C354.5,56.6715729 355.171573,56 356,56 Z" id="矩形-2备份" fill="#D9D9D9"></path>
                <circle id="椭圆形" stroke="#F2F3F4" stroke-width="3" fill="#E5E5E5" cx="349" cy="189" r="5.5"></circle>
                <circle id="椭圆形备份-4" fill="#F2F3F4" cx="328" cy="92" r="4"></circle>
                <circle id="椭圆形备份" stroke="#D9D9D9" stroke-width="3" cx="190" cy="56" r="5.5"></circle>
                <circle id="椭圆形备份-2" fill="#D9D9D9" cx="222" cy="56" r="4"></circle>
                <circle id="椭圆形备份-3" fill="#D9D9D9" cx="367" cy="87" r="4"></circle>
                <text id="4" font-family="HelveticaNeue-Bold, Helvetica Neue" font-size="240" font-weight="bold" line-spacing="248" fill="#BFBFBF">
                    <tspan x="6" y="266">4</tspan>
                </text>
                <text id="3" font-family="HelveticaNeue-Bold, Helvetica Neue" font-size="240" font-weight="bold" line-spacing="248" fill="#BFBFBF">
                    <tspan x="420" y="266">3</tspan>
                </text>
                <rect id="矩形" fill="#BFBFBF" x="40" y="280" width="480" height="4" rx="2"></rect>
                <rect id="矩形备份" fill="#BFBFBF" x="222" y="288" width="120" height="4" rx="2"></rect>
                <rect id="矩形备份" fill="#BFBFBF" x="106" y="288" width="96" height="4" rx="2"></rect>
                <rect id="矩形备份-2" fill="#BFBFBF" x="59" y="296" width="117" height="4" rx="2"></rect>
                <rect id="矩形备份" fill="#BFBFBF" x="206" y="288" width="8" height="4" rx="2"></rect>
                <path d="M322,296 L466,296 L466,296 C468.973029,292 472.306362,290 476,290 C479.693638,290 483.026971,292 486,296 L530,296 C531.104569,296 532,296.895431 532,298 C532,299.104569 531.104569,300 530,300 L484,300 L484,300 C482.360305,296 479.693638,294 476,294 C472.306362,294 469.639695,296 468,300 L322,300 C320.895431,300 320,299.104569 320,298 C320,296.895431 320.895431,296 322,296 Z" id="矩形备份" fill="#BFBFBF"></path>
                <rect id="矩形备份" fill="#BFBFBF" x="300" y="296" width="16" height="4" rx="2"></rect>
                <rect id="矩形" fill="#BFBFBF" x="536" y="280" width="24" height="4" rx="2"></rect>
                <rect id="矩形备份-5" fill="#BFBFBF" x="524" y="280" width="8" height="4" rx="2"></rect>
                <rect id="矩形备份-3" fill="#BFBFBF" x="0" y="280" width="24" height="4" rx="2"></rect>
                <rect id="矩形备份-4" fill="#BFBFBF" x="28" y="280" width="8" height="4" rx="2"></rect>
                <polygon id="Fill-1备份" fill="#F5F5F5" points="236 194 271.040205 194 263.625687 208.5 300.799038 208.5 282.961609 191.044777 282.961609 169.620986 303.5 162.540623 326 168.25 326 128 236 128"></polygon>
                <polygon id="Fill-1" fill="#EBF8FF" points="283 192 304 208.5 326 192 326 168 304 162.263433 283 168"></polygon>
                <path d="M325,126 C326.104569,126 327,126.895431 327,128 L327,193 C327,194.104569 326.104569,195 325,195 L322.804,195 L308.504945,207.386392 C308.808948,207.660905 309,208.058141 309,208.5 C309,209.328427 308.328427,210 307.5,210 L254.5,210 C253.671573,210 253,209.328427 253,208.5 C253,207.671573 253.671573,207 254.5,207 L262.091,207 L269.019,195 L237,195 C235.895431,195 235,194.104569 235,193 L235,128 C235,126.895431 235.895431,126 237,126 L325,126 Z M285.195,195 L272.250239,195.000439 C272.251227,195.256787 272.186452,195.516801 272.049038,195.754809 L265.556,207 L296.443,207 L293.836,202.485 L285.195,195 Z M304.058,164 L304.000805,164.000964 L303.651,164.087 L284.54541,169.830197 C284.209787,169.930912 284.039886,170.111914 284.006274,170.303026 L284,170.375029 L284,189.809774 C284,189.873441 284.054015,189.999295 284.140068,190.104781 L284.210273,190.178787 L303.399387,206.799586 C303.674422,207.042637 304.192343,207.064733 304.52858,206.851131 L304.623576,206.779965 L323.756123,190.208335 C323.888718,190.08998 323.96968,189.947029 323.992985,189.856896 L324,189.809774 L324,170.375029 C324,170.182593 323.868006,169.992282 323.571451,169.872381 L323.452465,169.830852 L304.058,164 Z M281,177 L238,177 L238,192 L281.820051,192.000836 C281.351853,191.426223 281.056357,190.727924 281.007265,190.01883 L281,189.809774 L281,177 Z M324,129 L238,129 L238,174 L281,174 L281,170.375029 C281,168.878174 281.968096,167.559924 283.482546,167.022416 L283.683147,166.956784 L302.849802,161.195703 C303.232822,161.097578 303.616779,161 304.000201,161 C304.328963,161 304.657233,161 304.985432,161.123241 L305.149528,161.195703 L324,166.862 L324,129 Z M276.5,150 C277.328427,150 278,150.671573 278,151.5 C278,152.328427 277.328427,153 276.5,153 L247.5,153 C246.671573,153 246,152.328427 246,151.5 C246,150.671573 246.671573,150 247.5,150 L276.5,150 Z M260.5,141 C261.328427,141 262,141.671573 262,142.5 C262,143.328427 261.328427,144 260.5,144 L247.5,144 C246.671573,144 246,143.328427 246,142.5 C246,141.671573 246.671573,141 247.5,141 L260.5,141 Z M303.5,175 C305.985281,175 308,177.014719 308,179.5 C308,181.45892 306.74831,183.125493 305.001092,183.743555 L305,187 L307.5,187 C308.328427,187 309,187.671573 309,188.5 C309,189.328427 308.328427,190 307.5,190 L305,190 L305,194.5 C305,195.328427 304.328427,196 303.5,196 C302.671573,196 302,195.328427 302,194.5 L301.999913,183.743911 C300.25217,183.126132 299,181.459296 299,179.5 C299,177.014719 301.014719,175 303.5,175 Z M303.499797,178.000072 C303.100846,177.996132 302.716989,178.152995 302.435007,178.434945 C302.152689,178.717231 301.996144,179.100794 302.000085,179.499952 C301.995809,179.898858 302.152689,180.282672 302.434671,180.564958 C302.716989,180.847328 303.100846,181.004191 303.499797,180.999915 C303.899082,181.004191 304.28294,180.847328 304.564922,180.564958 C304.847323,180.282672 305.003868,179.898858 304.999927,179.499952 C305.003868,179.100794 304.846988,178.717231 304.564922,178.434945 C304.282605,178.152995 303.898747,177.996132 303.499797,178.000072 Z" id="矩形" fill="#BFBFBF" fill-rule="nonzero"></path>
                <path d="M360,76 C374.03305,50.9631856 419.859744,18.1353284 441.659629,37.1911714 C452.523727,47.3230701 423.164795,59.062209 418.683664,45.6256826 C413.619335,25.5346304 427.391447,14.3260695 460,12" id="路径-2" stroke="#D9D9D9" stroke-linecap="round" stroke-dasharray="3"></path>
                <polygon id="Fill-1" fill="#BFBFBF" points="482 0 458 5.50005219 462.37287 9.60000586 479.254238 1.39995203 464.000007 11.1999971 464.000007 16 466.440744 13.5999399 468.881361 16"></polygon>
            </g>
            <g id="1.通用/1.Buttons按钮/次按钮/亮色/默认" transform="translate(676.000000, 568.000000)">
                <rect id="矩形" stroke-opacity="0.15" stroke="#000000" fill="#FFFFFF" x="0.5" y="0.5" width="87" height="31" rx="2"></rect>
                <text id="次按钮" font-family="PingFangSC-Regular, PingFang SC" font-size="14" font-weight="normal" line-spacing="22" fill="#000000" fill-opacity="0.6">
                    <tspan x="16" y="20">返回首页</tspan>
                </text>
            </g>
        </g>
    </g>
</svg>