<?xml version="1.0" encoding="UTF-8"?>
<svg width="1440px" height="836px" viewBox="0 0 1440 836" version="1.1" xmlns="http://www.w3.org/2000/svg" xmlns:xlink="http://www.w3.org/1999/xlink">
    <title>404</title>
    <g id="B2C-PC模版" stroke="none" stroke-width="1" fill="none" fill-rule="evenodd">
        <g id="404">
            <rect id="背景" fill="#F2F3F4" x="0" y="0" width="1440" height="836"></rect>
            <text id="很抱歉，您所请求的资源不存在…" font-family="PingFangSC-Regular, PingFang SC" font-size="20" font-weight="normal" line-spacing="28" fill="#000000" fill-opacity="0.25">
                <tspan x="570" y="521">很抱歉，您所请求的资源不存在…</tspan>
            </text>
            <g id="编组-2" transform="translate(440.000000, 160.000000)">
                <circle id="椭圆形" fill="#E5E5E5" cx="280" cy="156" r="100"></circle>
                <rect id="矩形" fill="#E5E5E5" transform="translate(183.557368, 105.946152) rotate(-330.000000) translate(-183.557368, -105.946152) " x="169.057368" y="99.9461524" width="29" height="12" rx="6"></rect>
                <rect id="矩形备份-8" fill="#E5E5E5" transform="translate(202.918584, 90.196152) rotate(-330.000000) translate(-202.918584, -90.196152) " x="192.918584" y="84.1961524" width="20" height="12" rx="6"></rect>
                <rect id="矩形备份-6" fill="#E5E5E5" transform="translate(375.000000, 193.000000) rotate(-330.000000) translate(-375.000000, -193.000000) " x="359" y="187" width="32" height="12" rx="6"></rect>
                <rect id="矩形备份-7" fill="#F2F3F4" transform="translate(194.052559, 98.696152) rotate(-330.000000) translate(-194.052559, -98.696152) " x="184.052559" y="92.6961524" width="20" height="12" rx="6"></rect>
                <rect id="矩形备份-9" fill="#F2F3F4" transform="translate(368.700962, 203.250000) rotate(-330.000000) translate(-368.700962, -203.250000) " x="360.200962" y="197.25" width="17" height="12" rx="6"></rect>
                <rect id="矩形备份-10" fill="#E5E5E5" transform="translate(362.000000, 213.000000) rotate(-330.000000) translate(-362.000000, -213.000000) " x="351" y="207" width="22" height="12" rx="6"></rect>
                <path d="M213,107 C213.828427,107 214.5,107.671573 214.5,108.5 L214.5,112.5 L218.5,112.5 C219.328427,112.5 220,113.171573 220,114 C220,114.828427 219.328427,115.5 218.5,115.5 L214.5,115.5 L214.5,119.5 C214.5,120.328427 213.828427,121 213,121 C212.171573,121 211.5,120.328427 211.5,119.5 L211.5,115.5 L207.5,115.5 C206.671573,115.5 206,114.828427 206,114 C206,113.171573 206.671573,112.5 207.5,112.5 L211.5,112.5 L211.5,108.5 C211.5,107.671573 212.171573,107 213,107 Z" id="矩形-2" fill="#F2F3F4"></path>
                <path d="M356,56 C356.828427,56 357.5,56.6715729 357.5,57.5 L357.5,61.5 L361.5,61.5 C362.328427,61.5 363,62.1715729 363,63 C363,63.8284271 362.328427,64.5 361.5,64.5 L357.5,64.5 L357.5,68.5 C357.5,69.3284271 356.828427,70 356,70 C355.171573,70 354.5,69.3284271 354.5,68.5 L354.5,64.5 L350.5,64.5 C349.671573,64.5 349,63.8284271 349,63 C349,62.1715729 349.671573,61.5 350.5,61.5 L354.5,61.5 L354.5,57.5 C354.5,56.6715729 355.171573,56 356,56 Z" id="矩形-2备份" fill="#D9D9D9"></path>
                <circle id="椭圆形" stroke="#F2F3F4" stroke-width="3" fill="#E5E5E5" cx="349" cy="189" r="5.5"></circle>
                <circle id="椭圆形备份-4" fill="#F2F3F4" cx="328" cy="92" r="4"></circle>
                <circle id="椭圆形备份" stroke="#D9D9D9" stroke-width="3" cx="190" cy="56" r="5.5"></circle>
                <circle id="椭圆形备份-2" fill="#D9D9D9" cx="222" cy="56" r="4"></circle>
                <circle id="椭圆形备份-3" fill="#D9D9D9" cx="367" cy="87" r="4"></circle>
                <text id="4" font-family="HelveticaNeue-Bold, Helvetica Neue" font-size="240" font-weight="bold" line-spacing="248" fill="#BFBFBF">
                    <tspan x="6" y="266">4</tspan>
                </text>
                <text id="4" font-family="HelveticaNeue-Bold, Helvetica Neue" font-size="240" font-weight="bold" line-spacing="248" fill="#BFBFBF">
                    <tspan x="420" y="266">4</tspan>
                </text>
                <rect id="矩形" fill="#BFBFBF" x="40" y="280" width="480" height="4" rx="2"></rect>
                <rect id="矩形备份" fill="#BFBFBF" x="222" y="288" width="120" height="4" rx="2"></rect>
                <rect id="矩形备份" fill="#BFBFBF" x="106" y="288" width="96" height="4" rx="2"></rect>
                <rect id="矩形备份-2" fill="#BFBFBF" x="59" y="296" width="117" height="4" rx="2"></rect>
                <rect id="矩形备份" fill="#BFBFBF" x="206" y="288" width="8" height="4" rx="2"></rect>
                <path d="M322,296 L466,296 L466,296 C468.973029,292 472.306362,290 476,290 C479.693638,290 483.026971,292 486,296 L530,296 C531.104569,296 532,296.895431 532,298 C532,299.104569 531.104569,300 530,300 L484,300 L484,300 C482.360305,296 479.693638,294 476,294 C472.306362,294 469.639695,296 468,300 L322,300 C320.895431,300 320,299.104569 320,298 C320,296.895431 320.895431,296 322,296 Z" id="矩形备份" fill="#BFBFBF"></path>
                <rect id="矩形备份" fill="#BFBFBF" x="300" y="296" width="16" height="4" rx="2"></rect>
                <rect id="矩形" fill="#BFBFBF" x="536" y="280" width="24" height="4" rx="2"></rect>
                <rect id="矩形备份-5" fill="#BFBFBF" x="524" y="280" width="8" height="4" rx="2"></rect>
                <rect id="矩形备份-3" fill="#BFBFBF" x="0" y="280" width="24" height="4" rx="2"></rect>
                <rect id="矩形备份-4" fill="#BFBFBF" x="28" y="280" width="8" height="4" rx="2"></rect>
                <polygon id="Fill-1" fill="#EBF8FF" points="232 152 329 152 329 128 232 128"></polygon>
                <polygon id="Fill-1备份" fill="#F5F5F5" points="232 208 329 208 329 152 232 152"></polygon>
                <path d="M328,128 C329.104569,128 330,128.895431 330,130 L330,206 C330,207.104569 329.104569,208 328,208 L232,208 C230.895431,208 230,207.104569 230,206 L230,130 C230,128.895431 230.895431,128 232,128 L328,128 Z M327,131 L233,131 L233,205 L327,205 L327,131 Z M284.182944,170.118396 C284.866111,170.269324 285.207425,171.023625 284.866111,171.627066 L277.524168,189.278051 C277.353665,189.881696 276.5,190.18328 275.816829,189.881696 C275.133893,189.730768 274.792579,188.976467 275.133893,188.373094 L282.475528,170.721837 C282.81715,170.118396 283.500086,169.816607 284.182944,170.118396 Z M293.188097,171.42843 L299.628499,178.857305 C300.123834,179.619102 300.123834,180.571541 299.628499,181.142781 L293.188097,188.571312 C292.692464,189.142896 291.866781,189.142896 291.371445,188.571312 C290.876185,187.999986 290.876185,187.047632 291.371445,186.475962 L296.986239,179.999871 L291.371445,173.52378 C290.876185,172.952454 290.876185,172.0001 291.371445,171.42843 C291.866781,170.85719 292.692464,170.85719 293.188097,171.42843 Z M268.628286,171.428499 C269.123905,172.000176 269.123905,172.95254 268.628286,173.523786 L263.013742,180.000032 L268.628286,186.476193 C269.123905,187.047869 269.123905,188.000233 268.628286,188.571565 C268.132967,189.142812 267.307309,189.142812 266.811766,188.571565 L260.37149,181.142955 C259.87617,180.38115 259.87617,179.4287 260.37149,178.85711 L266.811766,171.428499 C267.307309,170.857167 268.132967,170.857167 268.628286,171.428499 Z M330,149 L330,152 L230,152 L230,149 L330,149 Z M240.869593,136.648643 C242.174007,136.648643 243.043551,137.513488 243.043551,138.810853 C243.043551,140.108218 242.174007,140.973063 240.869593,140.973063 C239.565179,140.973063 238.695635,140.108218 238.695635,138.810853 C238.695635,137.513488 239.565179,136.648643 240.869593,136.648643 Z M248.391368,136.648643 C249.695782,136.648643 250.565326,137.513488 250.565326,138.810853 C250.565326,140.108218 249.695782,140.973063 248.391368,140.973063 C247.086954,140.973063 246.217411,140.108218 246.217411,138.810853 C246.217411,137.513488 247.086954,136.648643 248.391368,136.648643 Z" id="矩形" fill="#BFBFBF" fill-rule="nonzero"></path>
                <path d="M360,76 C374.03305,50.9631856 419.859744,18.1353284 441.659629,37.1911714 C452.523727,47.3230701 423.164795,59.062209 418.683664,45.6256826 C413.619335,25.5346304 427.391447,14.3260695 460,12" id="路径-2" stroke="#D9D9D9" stroke-linecap="round" stroke-dasharray="3"></path>
                <polygon id="Fill-1" fill="#BFBFBF" points="482 0 458 5.50005219 462.37287 9.60000586 479.254238 1.39995203 464.000007 11.1999971 464.000007 16 466.440744 13.5999399 468.881361 16"></polygon>
            </g>
            <text id="Copyright-©-2021-云时通" font-family="PingFangSC-Regular, PingFang SC" font-size="14" font-weight="normal" line-spacing="22" fill="#000000" fill-opacity="0.4">
                <tspan x="611.353" y="805">Copyright © 2021 云时通版权所有</tspan>
            </text>
        </g>
    </g>
</svg>