<?xml version="1.0" encoding="utf-8"?>
<svg version="1.1" xmlns:xlink="http://www.w3.org/1999/xlink" width="75px" height="75px" xmlns="http://www.w3.org/2000/svg">
  <g transform="matrix(1 0 0 1 -400 -159 )">
    <path d="M 75 37.5  C 75 16.7877428412646  58.2121713863352 0  37.5 0  C 16.7892857393185 0  0 16.7877428412646  0 37.5  C 0 58.2122571587354  16.7892857393185 75  37.5 75  C 58.2122571587352 75  75 58.2122571587354  75 37.5  Z M 71.8749428323604 37.5  C 71.8749428323604 45.8405142031254  68.8872856783933 53.4941141940496  63.9296571267072 59.4511713775839  C 60.5025428199608 58.019914227064  52.4108571132731 55.2124285326606  47.4044571520423 53.7353999125416  C 46.9756285733168 53.6010856112148  46.910057165026 53.5796570858315  46.910057165026 51.8005713266056  C 46.910057165026 50.3327141548865  47.512800006224 48.8556856185296  48.1018285610218 47.6043427778975  C 48.7410857347808 46.2431999574301  49.4979428159965 43.9575427390801  49.7679428556665 41.906742748617  C 50.5293428586442 41.0246570420742  51.5639143022755 39.2851713277555  52.2276000251261 35.9709427131904  C 52.8119142808861 33.0474855304976  52.5389999899083 31.9852284481533  52.1527714797979 30.9876855526725  C 52.1117143092365 30.8807998241451  52.0689429471079 30.7769998079637  52.0399714762543 30.6731998755442  C 51.8934857865817 29.9897141302403  52.0934571848372 26.4283712945669  52.5938572192691 23.6662284590491  C 52.940314390959 21.771257067696  52.5068572018335 17.7429427340437  49.8976286303554 14.4071999054574  C 48.2496857714723 12.3015427693954  45.0958285940173 9.71374272330081  39.3370286171704 9.35348566033567  L 36.17837145204 9.35665706131939  C 30.5174571325963 9.71374280706284  27.3635143502655 12.3015427693954  25.7155714913825 14.4071999054574  C 23.1062572312667 17.7429427340437  22.6728858145412 21.771257067696  23.017714315777 23.6662284590491  C 23.5197428531388 26.4282856059291  23.719542874118 29.9896284416024  23.5762285854295 30.6610284871985  C 23.5440857135923 30.7769142030879  23.501485728739 30.8807142192693  23.4603428695399 30.9876856364346  C 23.074371425343 31.9852285319154  22.8011999846898 33.0474856142597  23.3855143242118 35.9709427969524  C 24.0492000470624 39.2851713277555  25.0837714906937 41.0246570420741  25.8452571823094 41.9067428323791  C 26.1152572219791 43.9575428228423  26.8721143031952 46.2431999574301  27.5115428542299 47.6043428616597  C 27.9799713941004 48.5991428831082  28.1982000005176 49.9512000275758  28.1982000005176 51.8645143157285  C 28.1982000005176 53.6438571408679  28.1326285922268 53.6650286003377  27.7313142749384 53.7903429143025  C 22.5525428655273 55.3194000335879  14.3096571701297 58.2977143618794  11.2366285854189 59.6435143092554  C 6.18128575360523 53.6592000139595  3.12497147900192 45.9318857650476  3.12497147900192 37.5  C 3.12497147900192 18.5455714523828  18.5455714523828 3.1250571676396  37.5 3.1250571676396  C 56.4544285476172 3.1250571676396  71.8749428323604 18.545485763745  71.8749428323604 37.5  Z " fill-rule="nonzero" fill="#d7d7d7" stroke="none" transform="matrix(1 0 0 1 400 159 )" />
  </g>
</svg>