<?xml version="1.0" encoding="UTF-8"?>
<svg width="80px" height="20px" viewBox="0 0 80 20" version="1.1" xmlns="http://www.w3.org/2000/svg" xmlns:xlink="http://www.w3.org/1999/xlink">
    <title>logo-yst</title>
    <g id="B2C-PC模版" stroke="none" stroke-width="1" fill="none" fill-rule="evenodd">
        <g id="13.3.2设置-消息提醒-编辑邮件" transform="translate(-105.000000, -10.000000)" fill="#FFFFFF" fill-rule="nonzero">
            <g id="logo" transform="translate(105.000000, 10.000000)">
                <path d="M51.3446574,7.80063987 L53.0336436,7.80063987 C54.0048217,10.8117791 55.0031779,12.5552487 56.0276162,13.0310491 L56.0276162,13.3475705 C54.2869039,13.4541334 53.2267396,12.5735749 52.8032875,11.4457269 C52.445808,10.4941264 51.9585751,9.28007775 51.3446574,7.80063987 Z M57.7926574,16.1211489 L57.7926574,4.94810074 L50.8074519,4.94810074 L50.8074519,4.39311356 L57.7926574,4.39311356 L57.7926574,0.430826328 L59.2512875,0.430826328 L59.2512875,4.39311356 L61.0178628,4.39311356 L61.0178628,4.94810074 L59.2512875,4.94810074 L59.2512875,16.1211489 C59.2512875,17.9698241 57.8621368,18.7895219 56.2239998,18.7895219 C54.5683286,18.7895219 54.2145751,18.6730039 53.0566574,17.9544392 L53.0566574,17.2462819 C53.9945204,17.6128042 55.0132601,17.9067008 56.0081094,17.9067008 C56.9404929,17.9067008 57.8435067,17.3358762 57.7926574,16.1211489 Z M47.6598354,17.3892709 C48.3454245,17.3725285 48.6452601,17.096053 48.6577532,16.2795227 L48.6577532,10.098418 L45.4336436,10.098418 L45.4336436,16.8345099 C45.7911231,17.2564631 46.0216984,17.3788634 46.6619176,17.3892709 L47.6598354,17.3892709 Z M46.6619176,2.41163057 C45.9723834,2.46570392 45.7407121,2.59760671 45.4336436,3.12521784 L45.4336436,9.54410956 L48.6577532,9.54410956 L48.6577532,3.60079186 C48.6570957,2.77091294 48.4583012,2.46570392 47.6598354,2.41163057 L46.6619176,2.41163057 Z M45.4336436,17.9652991 L43.9750135,17.9652991 L43.9750135,1.69872204 L45.4336436,1.69872204 L45.4336436,2.38629076 C45.4336436,1.75573662 46.0493149,1.78537516 46.8153423,1.77790896 L47.8901916,1.77790896 C49.5274519,1.72587184 50.2952327,2.3598197 50.1930957,3.67952628 L50.1930957,16.2795227 C50.1979176,17.6193654 49.6287121,17.8761573 47.856219,17.8856597 L46.7739176,17.8856597 C46.0944656,17.885886 45.4336436,17.954213 45.4336436,17.4232081 L45.4336436,17.9652991 L45.4336436,17.9652991 Z" id="Fill-1"></path>
                <path d="M73.4726576,12.8428106 L77.0638904,12.8428106 L77.0638904,9.84615125 L73.4726576,9.84615125 L73.4726576,12.8428106 Z M75.1537534,6.37527545 L73.4726576,6.37527545 L73.4726576,9.29387906 L77.0638904,9.29387906 L77.0638904,8.26829531 C77.1655891,6.90130285 76.5290959,6.27029622 75.1537534,6.37527545 Z M68.4298082,12.8428106 L72.0210411,12.8428106 L72.0210411,9.84615125 L68.4298082,9.84615125 L68.4298082,12.8428106 Z M69.958137,6.37527545 C69.2953425,6.37527545 68.7859726,6.63930727 68.4298082,7.16375093 L68.4298082,9.29387906 L72.0210411,9.29387906 L72.0210411,6.37527545 L69.958137,6.37527545 Z M68.4298082,16.9446931 L66.9781918,16.9446931 L66.9781918,5.74426882 L68.4298082,5.74426882 L68.4298082,6.92754766 C68.632548,6.08726131 69.2190685,5.69245795 70.1871781,5.74426882 L71.7922192,5.74426882 L68.8913973,3.67115526 L70.7252603,3.67115526 L71.6385754,4.24605229 L76.4526027,2.58946193 C76.4526027,2.58946193 76.9891507,2.40348579 76.9891507,2.29782781 C76.9891507,2.19284858 76.5290959,2.19465857 76.5290959,2.19465857 L67.0020822,2.23040581 L67.0020822,1.60007793 L76.8903014,1.56433069 C77.7255891,1.56433069 78.0458082,1.78039785 78.0366027,2.35303241 C78.0280548,2.87883356 77.7330411,3.09829445 77.2554521,3.28789056 L72.8613699,5.03452777 L73.8748493,5.77639609 L75.3825754,5.74426882 C77.6236712,5.69245795 78.6934795,6.53297054 78.5924384,8.26829531 L78.5924384,14.7358304 C78.598978,16.3808822 78.1198904,17.1139268 76.7587946,17.1026531 C75.4833973,17.0913019 75.0862466,17.0569122 74.2840548,16.3010165 L74.2840548,15.9145843 C75.2004384,16.336085 75.4897534,16.4648203 76.1008219,16.4501142 C76.7349041,16.4351818 77.0638904,15.9462591 77.0638904,14.8942043 L77.0638904,13.3950828 L73.4726576,13.3950828 L73.4726576,16.7075848 L72.0210411,16.7075848 L72.0210411,13.3950828 L68.4298082,13.3950828 L68.4298082,16.9446931 Z M63.5335891,6.24111018 C63.5366576,5.33068685 63.1763288,4.9481009 62.3169315,4.96348579 L61.017863,4.9481009 L61.017863,4.39311372 L63.0044932,4.41143983 C64.4721096,4.41257108 64.9102466,4.94221844 64.8951233,6.17843939 L64.8828493,10.6194681 L63.5283288,10.6194681 C63.5283288,9.88891219 63.5335891,6.24111018 63.5335891,6.24111018 L63.5335891,6.24111018 Z" id="Fill-4"></path>
                <polyline id="Fill-7" points="79.9136437 18.8223279 67.4174244 18.8205179 67.4174244 17.8901847 79.9136437 17.8829448"></polyline>
                <path d="M64.9016985,16.9745578 C64.89863,17.8847548 65.2587396,17.8901848 66.118356,17.8747999 L67.4174245,17.8901848 L67.4174245,18.8223279 L65.4305752,18.8042281 C63.963178,18.8028706 63.525041,18.2734494 63.5401643,17.036776 L63.5495889,8.84183479 L64.9054245,8.84183479 C64.9052053,9.57239069 64.9016985,16.9745578 64.9016985,16.9745578" id="Fill-10"></path>
                <path d="M39.3849862,17.3725288 C37.7089314,17.3562389 34.2500821,18.7678023 30.7809314,18.6725518 C28.8337533,18.6725518 27.6043835,18.3021833 27.093041,17.5618987 C26.5808218,16.8745562 26.7303013,16.0616459 27.703452,14.581303 C28.7278903,13.0477917 30.0339725,11.2502486 31.6219177,9.18822124 L25.3216438,9.18822124 L25.3216438,7.99566623 L42.3015889,7.99566623 L42.3015889,9.18822124 L33.6195067,9.18822124 C32.0828492,10.9330485 30.5464109,13.0222257 29.0095342,15.4537166 C28.5486027,16.1410591 28.5012602,16.1084793 28.5012602,16.5317899 C28.5012602,17.1659641 29.4737533,17.4833905 31.4209314,17.4833905 C33.419178,17.5612199 37.8829588,16.1417378 39.5335889,16.2096123 C40.7287671,16.2589344 41.7247122,16.7573596 42.0429588,16.9216159 L41.6852602,18.0121329 C41.0877807,17.6922177 40.1998903,17.3806738 39.3849862,17.3725288" id="Fill-13"></path>
                <polygon id="Fill-16" points="26.9350139 3.39784701 40.9185756 3.39784701 40.9185756 2.44669898 26.9350139 2.44669898"></polygon>
                <path d="M15.5634394,9.47880169 L11.8346941,9.40516075 C5.51233849,14.1865438 1.37847352,11.6118647 1.37847352,9.91995894 C1.37847352,8.22805319 4.29653507,3.29961772 10.5377778,2.63753771 C16.7792428,1.97545771 14.8338684,5.94770833 14.8338684,5.94770833 L10.9433419,6.02134924 L12.4020394,3.66736347 L9.48420006,3.66736347 L5.75545473,8.66943987 L16.2930103,8.66943987 C17.4299232,7.43130894 18.0746034,6.39483025 18.4375,5.56734497 C16.8430219,2.26772726 13.5431746,0 9.72864962,0 C4.3554252,0 0,4.49645465 0,10.0431526 C0,11.6926174 0.38756373,13.2480236 1.07046702,14.6212776 C8.03594725,16.1085488 15.5634394,9.47880169 15.5634394,9.47880169" id="Fill-20"></path>
                <path d="M14.6366564,15.5242278 C9.11145431,18.8141909 4.49984571,17.4004521 1.875,15.9374609 C3.62438286,18.3956571 6.49145756,20 9.73410856,20 C14.9577918,20 19.2092528,15.8393982 19.375,10.6451613 C18.6853416,12.2528171 17.2742859,13.9536768 14.6366564,15.5242278" id="Fill-23"></path>
            </g>
        </g>
    </g>
</svg>