<?xml version="1.0" encoding="UTF-8"?>
<svg width="640px" height="510px" viewBox="0 0 640 510" version="1.1" xmlns="http://www.w3.org/2000/svg" xmlns:xlink="http://www.w3.org/1999/xlink">
    <!-- Generator: Sketch 64 (93537) - https://sketch.com -->
    <title>login_scenes</title>
    <desc>Created with Sketch.</desc>
    <defs>
        <linearGradient x1="0%" y1="48.7682993%" x2="118.523343%" y2="44.4260636%" id="linearGradient-1">
            <stop stop-color="#FFD561" offset="0%"></stop>
            <stop stop-color="#D48702" offset="100%"></stop>
        </linearGradient>
        <linearGradient x1="50%" y1="0%" x2="50%" y2="100%" id="linearGradient-2">
            <stop stop-color="#DEB569" offset="0%"></stop>
            <stop stop-color="#F6A96A" offset="100%"></stop>
        </linearGradient>
        <linearGradient x1="50%" y1="0%" x2="50%" y2="100%" id="linearGradient-3">
            <stop stop-color="#85A5FF" offset="0%"></stop>
            <stop stop-color="#0088D2" offset="100%"></stop>
        </linearGradient>
        <linearGradient x1="50%" y1="0%" x2="50%" y2="100%" id="linearGradient-4">
            <stop stop-color="#50C2FF" offset="0%"></stop>
            <stop stop-color="#D6E4FF" offset="100%"></stop>
        </linearGradient>
        <linearGradient x1="1.38887381e-06%" y1="49.9999323%" x2="99.999977%" y2="49.9999323%" id="linearGradient-5">
            <stop stop-color="#BDCCD4" offset="0%"></stop>
            <stop stop-color="#DBE4FB" offset="100%"></stop>
        </linearGradient>
        <linearGradient x1="-0.000101540188%" y1="50.0000837%" x2="100.000136%" y2="50.0000837%" id="linearGradient-6">
            <stop stop-color="#A0B5C1" offset="0%"></stop>
            <stop stop-color="#DBE4FB" offset="100%"></stop>
        </linearGradient>
        <linearGradient x1="6.89811177e-05%" y1="49.9999978%" x2="99.9999393%" y2="49.9999978%" id="linearGradient-7">
            <stop stop-color="#B5CDDA" offset="0%"></stop>
            <stop stop-color="#DBE4FB" offset="100%"></stop>
        </linearGradient>
        <linearGradient x1="-5.42860072e-05%" y1="49.9998501%" x2="100.000123%" y2="49.9998501%" id="linearGradient-8">
            <stop stop-color="#91A5F0" offset="0%"></stop>
            <stop stop-color="#DBE4FB" offset="100%"></stop>
        </linearGradient>
    </defs>
    <g id="login" stroke="none" stroke-width="1" fill="none" fill-rule="evenodd">
        <g id="1.0登录" transform="translate(-420.000000, -240.000000)">
            <g id="login_scenes" transform="translate(420.000000, 240.000000)">
                <ellipse id="椭圆形" fill="#85C2FF" opacity="0.0799999982" cx="320" cy="340" rx="320" ry="170"></ellipse>
                <path d="M329,380 C313.53596,380 301,372.164809 301,362.5 C301,352.835191 313.53596,345 329,345 C344.46404,345 357,352.835191 357,362.5 C357,372.164809 344.46404,380 329,380 Z" id="Fill-73" fill="#42ADE6" opacity="0.0807942723" transform="translate(329.000000, 362.500000) scale(-1, 1) translate(-329.000000, -362.500000) "></path>
                <path d="M278.816396,386.077277 C281.23565,384.660536 285.206622,384.637873 287.642503,386.028846 L355.526096,424.816061 C357.961506,426.208276 357.961506,428.484498 355.526096,429.874851 L288.608543,468.111947 C286.17376,469.502144 282.188044,469.502144 279.753418,468.111947 L212.834766,429.874851 C210.39967,428.484498 210.386651,426.186234 212.806533,424.76763 L278.816396,386.077277 Z" id="Fill-1" fill="#909CC6" opacity="0.100000001"></path>
                <path d="M488.654044,284.204137 L469.302515,295.075483 C466.911808,296.418824 462.461063,298.919194 455.122198,294.785121 L455.122198,294.785121 C446.358356,289.848364 437.969137,293.993253 437.616413,294.172102 L437.616413,294.172102 C437.596391,294.182308 437.576526,294.192972 437.556817,294.203788 L437.556817,294.203788 L401.632229,314.386206 C395.570369,317.791937 390.537745,314.583792 390.332523,314.449732 L390.332523,314.449732 C390.299362,314.427642 390.265419,314.406772 390.230538,314.386967 L390.230538,314.386967 L370.347654,303.186718 C369.599815,302.765343 368.643,303.014725 368.210345,303.742762 L368.210345,303.742762 C367.777846,304.471103 368.033748,305.402972 368.781274,305.824194 L368.781274,305.824194 L388.621612,317.000374 C389.091495,317.300333 391.929873,319 395.919183,319 L395.919183,319 C398.073072,319 400.563106,318.504131 403.19548,317.025358 L403.19548,317.025358 L439.083779,296.863355 C439.538645,296.643984 446.470508,293.431268 453.555818,297.422445 L453.555818,297.422445 C462.459029,302.43781 468.350393,299.128053 470.866079,297.714635 L470.866079,297.714635 L490.217139,286.843289 C490.965291,286.422981 491.222131,285.491417 490.790571,284.762618 L490.790571,284.762618 C490.50104,284.273756 489.975003,284 489.434106,284 L489.434106,284 C489.168976,284 488.900248,284.065811 488.654044,284.204137" id="Fill-15" fill="url(#linearGradient-1)"></path>
                <path d="M522.982239,264.208235 C519.849356,265.997193 518.197206,268.096173 518.071627,270.4469 L518.071627,270.4469 C517.889223,273.856363 521.106873,276.214705 521.243754,276.313694 L521.243754,276.313694 C521.288178,276.345551 521.334171,276.375232 521.381734,276.402116 L521.381734,276.402116 L575.147783,307.187828 C576.41519,307.913543 576.863507,308.546329 576.860681,308.896444 L576.860681,308.896444 C576.855815,309.490225 575.879438,310.342436 575.182474,310.726428 L575.182474,310.726428 C575.171486,310.732177 575.160498,310.738393 575.149353,310.744609 L575.149353,310.744609 L556.192722,321.569732 C554.277013,322.663744 550.235251,320.703847 548.9556,319.92312 L548.9556,319.92312 C548.66253,319.735553 545.16327,317.513186 538.114203,313.676219 L538.114203,313.676219 C530.588249,309.579735 525.306708,313.083837 524.42059,313.744906 L524.42059,313.744906 L502.785672,326.099625 C502.034709,326.528528 501.777115,327.478795 502.210206,328.222226 L502.210206,328.222226 C502.500922,328.721058 503.028825,329 503.571483,329 L503.571483,329 C503.837397,329 504.107392,328.932867 504.354469,328.79192 L504.354469,328.79192 L526.081845,316.384054 C526.158448,316.340542 526.220609,316.29874 526.288736,316.243107 L526.288736,316.243107 C526.455442,316.111017 530.444461,313.04825 536.601603,316.399749 L536.601603,316.399749 C543.702,320.264688 547.228574,322.518446 547.263422,322.540823 L547.263422,322.540823 C547.271271,322.546107 547.279905,322.551546 547.288224,322.556674 L547.288224,322.556674 C547.794465,322.868095 551.368759,324.99054 554.759394,324.990229 L554.759394,324.990229 C555.809863,324.990074 556.843221,324.786345 557.761518,324.262027 L557.761518,324.262027 L576.703708,313.44514 C577.117334,313.218723 579.966409,311.564186 580,308.938091 L580,308.938091 C580.02135,307.249987 578.917824,305.756133 576.719562,304.497398 L576.719562,304.497398 L523.038122,273.760171 C522.448999,273.305006 521.126652,271.97976 521.207179,270.60059 L521.207179,270.60059 C521.296654,269.06944 523.074854,267.743416 524.551036,266.900375 L524.551036,266.900375 C525.301685,266.471783 525.559436,265.521205 525.126188,264.777929 L525.126188,264.777929 C524.835786,264.279097 524.30804,264 523.765225,264 L523.765225,264 C523.499154,264 523.229316,264.067133 522.982239,264.208235" id="Fill-17" fill="url(#linearGradient-2)"></path>
                <g id="编组-12" transform="translate(153.000000, 79.000000)">
                    <path d="M260.220534,246.869758 L168.895998,299.965606 C166.23506,301.51223 161.555563,301.30049 158.444838,299.491185 L6.59462947,211.206572 C3.48390403,209.397881 3.11822314,206.677173 5.77977055,205.129935 L97.1036971,152.034701 C99.7652445,150.487463 104.444132,150.699817 107.556076,152.508508 L259.405065,240.793121 C262.5164,242.601812 262.881472,245.32252 260.220534,246.869758" id="Fill-1" fill="#3D4766" opacity="0.100000001" transform="translate(133.000000, 226.000000) scale(-1, 1) translate(-133.000000, -226.000000) "></path>
                    <path d="M7.1470805,187.076146 L98.8227914,140.034904 C101.488269,138.487668 106.17575,138.699408 109.292393,140.50871 L256.694052,226.061452 L263.987791,226.061452 L263.987791,232.019015 C264.093409,233.08692 263.514647,234.116774 262.217928,234.869832 L170.73758,287.965607 C168.072102,289.512229 163.384621,289.300489 160.268589,287.491187 L8.15930274,199.206694 C5.04326997,197.397392 3.43152889,188.943139 7.1470805,187.076146" id="Fill-5" fill="#B7C6E7" transform="translate(134.500000, 214.000000) scale(-1, 1) translate(-134.500000, -214.000000) "></path>
                    <g id="编组-11" transform="translate(5.000000, 132.000000)">
                        <path d="M256.801067,95.6364662 L165.269612,148.602997 C162.602645,150.145854 157.912546,149.934629 154.794772,148.129731 L2.60050827,60.0601396 C-0.517265316,58.2552417 -0.88377475,55.5417723 1.78380308,53.9983029 L93.3146474,1.03238455 C95.9822253,-0.511084841 100.671713,-0.299860351 103.790709,1.50503761 L255.983751,89.5746294 C259.102136,91.3789152 259.468034,94.0929968 256.801067,95.6364662" id="Fill-11" fill="#FFFFFF" transform="translate(129.292283, 74.817436) scale(-1, 1) translate(-129.292283, -74.817436) "></path>
                        <path d="M117.6261,84.2654254 L167.804296,113.302364 C168.987511,113.986854 171.054013,113.90114 172.420482,113.110731 L195.466595,99.7742009 C196.832454,98.9837927 196.98089,97.7880784 195.798287,97.1035886 L145.61948,68.0666499 C144.436876,67.3821601 142.369763,67.4678743 141.003294,68.2582825 L117.957791,81.5948131 C116.591322,82.3852213 116.442886,83.5809356 117.6261,84.2654254" id="Fill-13" fill="#DCE4F5" transform="translate(156.711966, 90.684507) scale(-1, 1) translate(-156.711966, -90.684507) "></path>
                        <path d="M158.415555,92.9683641 C158.717925,92.9493845 159.034956,92.9542825 159.359316,92.9836703 C160.310408,93.0718335 161.31892,93.370609 162.162503,93.8591805 L197.542269,114.332038 C198.672951,114.986527 199.214163,115.814283 199.080998,116.500609 C198.779239,116.518976 198.462208,116.514078 198.137847,116.484691 C197.187366,116.396527 196.177632,116.097752 195.33405,115.609793 L159.954894,95.1369356 C158.823602,94.4824458 158.283,93.6540784 158.415555,92.9683641" id="Fill-15" fill="#DEE6F7" transform="translate(178.748350, 104.734249) scale(-1, 1) translate(-178.748350, -104.734249) "></path>
                        <path d="M148.830884,107.165711 L156.095101,111.382854 C156.522084,111.630813 156.526971,112.02816 156.104874,112.270609 L154.04387,113.454078 C153.622995,113.696527 152.935179,113.691629 152.508195,113.443058 L145.247643,109.225915 C144.821271,108.977956 144.816995,108.581221 145.23787,108.339385 L147.29582,107.155915 C147.717306,106.913466 148.404511,106.918364 148.830884,107.165711 L148.830884,107.165711 Z M153.636433,104.403262 L160.905537,108.619793 C161.333131,108.867752 161.337407,109.265099 160.915311,109.507548 L159.005797,110.604078 C158.584311,110.846527 157.896495,110.841629 157.469511,110.59367 L150.203462,106.376527 C149.777089,106.12918 149.772813,105.731834 150.193688,105.489997 L152.100759,104.393466 C152.522245,104.151629 153.20945,104.155303 153.636433,104.403262 L153.636433,104.403262 Z M138.643143,101.075099 L145.894532,105.284895 C146.321516,105.532854 146.325181,105.928976 145.904917,106.171425 L143.694254,107.442446 C143.273379,107.684283 142.586785,107.679997 142.160412,107.43265 L134.912688,103.222242 C134.487537,102.974895 134.483261,102.57816 134.903525,102.336323 L137.110523,101.065915 C137.531398,100.823466 138.217381,100.827752 138.643143,101.075099 L138.643143,101.075099 Z M150.13749,100.34714 L143.421815,96.4526499 C142.995443,96.2059152 142.991167,95.8091805 143.412042,95.5667315 L150.042197,91.7499968 C150.463683,91.5075478 151.150888,91.5112213 151.577261,91.757956 L158.300266,95.6518335 C158.727249,95.8991805 158.732136,96.2965274 158.31065,96.5389764 L151.671943,100.356323 C151.251068,100.598772 150.563863,100.594487 150.13749,100.34714 L150.13749,100.34714 Z M158.572705,92.5495886 L165.215077,88.727956 C165.637174,88.485507 166.326212,88.4891805 166.753195,88.7359152 L173.491471,92.6316294 C173.919676,92.8795886 173.924563,93.2769356 173.501855,93.5193845 L166.851542,97.3422417 C166.430056,97.5846907 165.741018,97.5810172 165.313424,97.333058 L158.583089,93.4367315 C158.156105,93.1893845 158.151219,92.7920376 158.572705,92.5495886 L158.572705,92.5495886 Z M148.461931,87.5775478 C148.035558,87.3308131 148.031282,86.9340784 148.452768,86.6916294 L155.085367,82.870609 C155.507464,82.6281601 156.194669,82.6312213 156.621042,82.8785682 L163.348322,86.7675478 C163.775306,87.0142825 163.780193,87.4116294 163.358096,87.6540784 L156.717556,91.4757111 C156.29607,91.7187723 155.608254,91.7144866 155.181271,91.4677519 L148.461931,87.5775478 Z M132.501667,92.4069356 L139.744504,96.6087723 C140.170266,96.855507 140.174542,97.2522417 139.754278,97.4946907 L133.131452,101.30714 C132.710577,101.548976 132.025205,101.544691 131.600054,101.297956 L124.365157,97.0948948 C123.940617,96.8475478 123.936341,96.4514254 124.355995,96.2095886 L130.970879,92.3983641 C131.390532,92.1559152 132.075905,92.1595886 132.501667,92.4069356 L132.501667,92.4069356 Z M139.9357,85.8957111 C140.355964,85.6532621 141.041947,85.6569356 141.467709,85.9036703 L148.18033,89.7908131 C148.606091,90.0375478 148.610978,90.4342825 148.189492,90.6767315 L141.561169,94.4934662 C141.140294,94.7353029 140.4537,94.7316294 140.027938,94.4848948 L133.32387,90.5971396 C132.898719,90.350405 132.894443,89.9536703 133.314707,89.7118335 L139.9357,85.8957111 Z M138.086049,84.8242825 L131.466278,88.640405 C131.046624,88.8822417 130.361863,88.8785682 129.936101,88.6324458 L123.243638,84.7508131 C122.819098,84.5046907 122.814822,84.1085682 123.234476,83.8667315 L129.846306,80.0518335 C130.265959,79.8093845 130.950721,79.8124458 131.376483,80.0591805 L138.076886,83.9389764 C138.502037,84.1857111 138.506313,84.5818335 138.086049,84.8242825 L138.086049,84.8242825 Z M128.27337,75.8891805 C127.848219,75.643058 127.844554,75.2475478 128.263596,75.0050988 L134.87787,71.1865274 C135.298745,70.9440784 135.983506,70.9465274 136.408657,71.1926499 L143.113337,75.0687723 C143.539098,75.3148948 143.543374,75.7110172 143.122499,75.9534662 L136.500285,79.7732621 C136.080631,80.0150988 135.394648,80.0120376 134.969497,79.7659152 L128.27337,75.8891805 Z M146.505992,77.030405 L153.221667,80.9132621 C153.64865,81.1593845 153.653537,81.5561192 153.23144,81.7985682 L146.600674,85.6195886 C146.179188,85.8620376 145.492594,85.8583641 145.066832,85.6116294 L138.359098,81.7281601 C137.933337,81.4820376 137.929061,81.0859152 138.349936,80.8434662 L144.973372,77.0236703 C145.394247,76.7812213 146.08023,76.7842825 146.505992,77.030405 L146.505992,77.030405 Z M119.500966,84.8646907 L129.113898,90.4416294 C129.539049,90.6877519 129.543325,91.0838743 129.123061,91.3263233 L122.510009,95.1375478 C122.090966,95.3799968 121.406205,95.3757111 120.981664,95.1289764 L111.379728,89.5508131 C110.955799,89.3046907 110.951523,88.9091805 111.371176,88.6673437 L117.973233,84.8573437 C118.392886,84.6148948 119.076426,84.6185682 119.500966,84.8646907 L119.500966,84.8646907 Z M113.171348,78.0314254 L119.774016,74.2177519 C120.193058,73.9759152 120.876598,73.9783641 121.301749,74.2238743 L127.990547,78.0981601 C128.415087,78.3442825 128.419363,78.7397927 127.999098,78.9822417 L121.389712,82.7971396 C120.970669,83.0389764 120.286518,83.0353029 119.861367,82.7897927 L113.180511,78.9148948 C112.755971,78.6687723 112.752306,78.2732621 113.171348,78.0314254 L113.171348,78.0314254 Z M97.8427022,61.5148948 L91.2608036,65.3267315 C90.8429828,65.5685682 90.162497,65.5661192 89.7404003,65.3212213 L83.09253,61.4659152 C82.6704333,61.2216294 82.6673791,60.8267315 83.084589,60.5848948 L89.6591574,56.7748948 C90.0763673,56.533058 90.757464,56.5348948 91.1795607,56.7791805 L97.8347611,60.6338743 C98.2568578,60.8781601 98.2611338,61.273058 97.8427022,61.5148948 L97.8427022,61.5148948 Z M94.7511951,56.4816294 L88.0996597,52.6312213 C87.6781739,52.3869356 87.6738979,51.9926499 88.0911078,51.7508131 L94.6687305,47.9365274 C95.0865512,47.6940784 95.7676479,47.6959152 96.1897446,47.9402009 L102.84861,51.7899968 C103.271318,52.0342825 103.275594,52.4291805 102.857162,52.6710172 L96.2722093,56.4865274 C95.8543885,56.7283641 95.1732918,56.7265274 94.7511951,56.4816294 L94.7511951,56.4816294 Z M104.695207,53.7344866 C105.114249,53.4920376 105.795957,53.4938743 106.218664,53.7381601 L112.889136,57.5946907 C113.312455,57.8395886 113.31673,58.2344866 112.898299,58.4769356 L106.304183,62.293058 C105.885141,62.535507 105.202822,62.533058 104.780115,62.2881601 L98.1175843,58.430405 C97.6948767,58.1861192 97.6906008,57.7912213 98.1090324,57.5493845 L104.695207,53.7344866 Z M107.878341,67.3275478 L101.286669,71.1399968 C100.868238,71.3818335 100.18653,71.3793845 99.7638225,71.1338743 L93.104346,67.2724458 C92.6822493,67.0269356 92.6785843,66.6326499 93.096405,66.3908131 L99.6801361,62.5789764 C100.098568,62.3371396 100.780275,62.3395886 101.202983,62.5844866 L107.869179,66.4453029 C108.293108,66.6902009 108.296773,67.0857111 107.878341,67.3275478 L107.878341,67.3275478 Z M116.264688,59.5465274 L122.946766,63.4091805 C123.370695,63.6546907 123.374971,64.0502009 122.955929,64.2926499 L116.352039,68.1099968 C115.933608,68.3518335 115.249457,68.3493845 114.826138,68.1038743 L108.152002,64.240609 C107.728683,63.9950988 107.725018,63.6002009 108.14345,63.3583641 L114.738787,59.5416294 C115.15844,59.2991805 115.84137,59.3016294 116.264688,59.5465274 L116.264688,59.5465274 Z M117.930473,73.1499968 L111.329638,76.9636703 C110.910596,77.205507 110.227667,77.2024458 109.803738,76.9569356 L103.133877,73.0887723 C102.711169,72.8432621 102.706893,72.4477519 103.125325,72.2059152 L109.71883,68.3934662 C110.137261,68.1516294 110.81958,68.1540784 111.243509,68.3995886 L117.9207,72.2665274 C118.345851,72.5120376 118.349516,72.9075478 117.930473,73.1499968 L117.930473,73.1499968 Z M126.328426,65.3646907 L133.020888,69.2340784 C133.446039,69.4795886 133.450315,69.8757111 133.030662,70.1181601 L126.418221,73.9367315 C125.997957,74.1785682 125.313806,74.1761192 124.889266,73.9299968 L118.204134,70.0599968 C117.780205,69.8144866 117.775929,69.4189764 118.195582,69.1765274 L124.800082,65.3591805 C125.219735,65.1167315 125.903886,65.1191805 126.328426,65.3646907 L126.328426,65.3646907 Z M71.9824074,58.1732621 C72.3990064,57.9314254 73.0782706,57.9338743 73.4997564,58.1781601 L116.121138,82.9042825 C116.545068,83.1497927 116.548733,83.5453029 116.130301,83.7877519 L109.528855,87.5977519 C109.110424,87.8395886 108.426884,87.8359152 108.003565,87.5897927 L65.4304404,62.8581601 C65.0095654,62.6138743 65.0059003,62.2202009 65.4224993,61.9783641 L71.9824074,58.1732621 Z M73.0892659,54.7893845 L79.6546715,50.9799968 C80.0718814,50.7381601 80.7511456,50.7399968 81.1726314,50.9842825 L87.8162258,54.8316294 C88.2389333,55.0759152 88.2419876,55.4702009 87.8247776,55.7120376 L81.2520418,59.5226499 C80.8354427,59.7644866 80.1549569,59.7620376 79.733471,59.5177519 L73.0978177,55.6691805 C72.6763319,55.4248948 72.6726668,55.0312213 73.0892659,54.7893845 L73.0892659,54.7893845 Z M77.8239569,49.9195886 L71.2603838,53.7289764 C70.8437847,53.9702009 70.1651314,53.9683641 69.7436456,53.7246907 L63.1189876,49.8822417 C62.6987234,49.6391805 62.6950583,49.2448948 63.1110465,49.0036703 L69.6672894,45.195507 C70.0838885,44.9536703 70.761931,44.9548948 71.1834168,45.1985682 L77.815405,49.0397927 C78.2368909,49.2834662 78.2399451,49.6777519 77.8239569,49.9195886 L77.8239569,49.9195886 Z M74.7434451,44.8985682 L68.1145111,41.0610172 C67.694247,40.8173437 67.6911927,40.4242825 68.107181,40.1824458 L74.6658673,36.370609 C75.0824663,36.1281601 75.7611196,36.1293845 76.1819946,36.373058 L82.8188696,40.2093845 C83.2397446,40.453058 83.2440206,40.8467315 82.8268107,41.0891805 L76.2601833,44.9022417 C75.8441951,45.1440784 75.1643201,45.1422417 74.7434451,44.8985682 L74.7434451,44.8985682 Z M84.658747,42.1483641 C85.0759569,41.9065274 85.7558319,41.9077519 86.1779286,42.1514254 L92.8245772,45.9944866 C93.2472847,46.2387723 93.2509498,46.633058 92.8331291,46.8748948 L86.257339,50.6891805 C85.8407399,50.9310172 85.1608649,50.9291805 84.7387682,50.685507 L78.098839,46.8412213 C77.677964,46.5975478 77.6742989,46.2032621 78.0902871,45.9614254 L84.658747,42.1483641 Z M58.9621597,50.6187723 C59.3781479,50.3775478 60.0555795,50.3793845 60.4758437,50.6224458 L70.1455843,56.2324458 C70.5664593,56.4767315 70.5701243,56.870405 70.1535253,57.1122417 L63.5954498,60.9167315 C63.1788508,61.1585682 62.5008083,61.1567315 62.0799333,60.9124458 L52.4217989,55.3012213 C52.0015347,55.0575478 51.9984805,54.6644866 52.4138578,54.4226499 L58.9621597,50.6187723 Z M53.149931,43.2271396 L59.6970111,39.4202009 C60.1129993,39.1783641 60.790431,39.1795886 61.2106951,39.4232621 L67.8310772,43.2577519 C68.2519522,43.5014254 68.2556173,43.8944866 67.8396291,44.1363233 L61.2852187,47.9444866 C60.8692305,48.1863233 60.1917989,48.1850988 59.7709239,47.9414254 L53.1572611,44.1050988 C52.7376078,43.8620376 52.7345536,43.4689764 53.149931,43.2271396 L53.149931,43.2271396 Z M64.7652258,39.1220376 L58.1478979,35.290609 C57.7276338,35.0481601 57.7251904,34.6544866 58.1399569,34.4126499 L64.6900913,30.6020376 C65.1060795,30.3602009 65.7835111,30.3608131 66.2037753,30.6038743 L72.8290442,34.4340784 C73.2499192,34.6771396 73.2529734,35.0708131 72.8369852,35.3126499 L66.2795206,39.1244866 C65.8641432,39.3663233 65.1854899,39.3650988 64.7652258,39.1220376 L64.7652258,39.1220376 Z M47.1092446,43.7414254 C47.5240111,43.5002009 48.2008319,43.5014254 48.6198743,43.7450988 L57.1296126,48.6816294 C57.5492659,48.9253029 57.5523201,49.3183641 57.1375536,49.5602009 L50.5910843,53.3634662 C50.175096,53.6053029 49.4988861,53.6028539 49.078622,53.3591805 L40.5786574,48.4214254 C40.1602258,48.1783641 40.1571715,47.7853029 40.5713272,47.5440784 L47.1092446,43.7414254 Z M37.1737847,37.9771396 C37.5885512,37.7359152 38.2635394,37.7371396 38.6825819,37.9795886 L45.2797517,41.8073437 C45.699405,42.050405 45.7024593,42.4434662 45.2876927,42.6846907 L38.7522187,46.4873437 C38.3374522,46.7285682 37.6618531,46.7267315 37.2428107,46.4836703 L30.6523602,42.6553029 C30.2345394,42.4122417 30.2314852,42.0197927 30.6456409,41.7785682 L37.1737847,37.9771396 Z M35.3485677,36.045507 C35.7663885,36.287956 35.7694427,36.6810172 35.3552871,36.9222417 L28.8289758,40.7236703 C28.4148201,40.9648948 27.7404427,40.9636703 27.322622,40.720609 L20.7431668,36.8983641 C20.3259569,36.6559152 20.3229026,36.2640784 20.7364475,36.0228539 L27.2554286,32.2226499 C27.6689734,31.9808131 28.3433508,31.9820376 28.7611715,32.2244866 L35.3485677,36.045507 Z M57.864464,37.4848948 C58.2847281,37.7285682 58.2871715,38.1216294 57.872405,38.3634662 L51.3271574,42.170405 C50.9111692,42.4116294 50.2349593,42.410405 49.815306,42.1673437 L30.7110017,31.0881601 C30.2925701,30.8457111 30.2895159,30.4532621 30.7036715,30.2120376 L37.2299828,26.4069356 C37.6441385,26.1657111 38.3197376,26.1663233 38.7381692,26.4087723 L57.864464,37.4848948 Z M62.8563225,28.6685682 C63.2759758,28.9110172 63.2796409,29.3040784 62.8642635,29.5465274 L56.3159616,33.3571396 C55.9005843,33.5989764 55.2237635,33.5977519 54.8034993,33.3546907 L40.7649663,25.2271396 C40.3459239,24.9846907 40.3428696,24.5922417 40.7576361,24.350405 L47.2906668,20.5416294 C47.7060442,20.2997927 48.3822541,20.300405 48.8012965,20.5422417 L62.8563225,28.6685682 Z M72.6995442,19.4432621 C72.283556,19.6857111 71.6067352,19.6850988 71.1870819,19.4420376 L60.9309262,13.5148948 C60.5112729,13.2724458 60.5082187,12.8799968 60.923596,12.6381601 L64.3779475,10.610405 C64.7933248,10.3685682 65.4701456,10.3685682 65.8897989,10.610405 L76.1575607,16.5369356 C76.5778248,16.7793845 76.5814899,17.1724458 76.1655017,17.4148948 L72.6995442,19.4432621 Z M82.6710442,25.2057111 C82.255056,25.4475478 81.5764026,25.4469356 81.1555276,25.2038743 L74.533313,21.3761192 C74.1130489,21.1336703 74.1093838,20.740609 74.525372,20.4981601 L77.9925512,18.4697927 C78.4091503,18.2273437 79.0871927,18.2273437 79.5080677,18.470405 L86.1376126,22.2969356 C86.5590984,22.5399968 86.5621526,22.9336703 86.1461644,23.1761192 L82.6710442,25.2057111 Z M92.6596479,30.977956 C92.242438,31.2197927 91.5631739,31.2191805 91.1422989,30.975507 L84.5078673,27.1410172 C84.0869923,26.897956 84.0833272,26.5042825 84.5005371,26.2624458 L87.9762682,24.2322417 C88.3934781,23.9897927 89.0727423,23.990405 89.4936173,24.2340784 L96.1347682,28.0673437 C96.5574758,28.310405 96.5611409,28.7046907 96.1433201,28.9471396 L92.6596479,30.977956 Z M102.664745,36.7593845 C102.246924,37.0018335 101.567049,36.9999968 101.144952,36.7563233 L94.5001361,32.9163233 C94.0780394,32.6726499 94.0743743,32.2783641 94.4915843,32.0365274 L97.977089,30.0050988 C98.3942989,29.7626499 99.0747847,29.7638743 99.4968814,30.0075478 L106.149638,33.8469356 C106.571735,34.090609 106.576011,34.4848948 106.15819,34.727956 L102.664745,36.7593845 Z M112.686945,42.5512213 C112.269124,42.793058 111.587417,42.7918335 111.164709,42.5475478 L104.508287,38.7002009 C104.08619,38.4559152 104.081914,38.0622417 104.499735,37.8197927 L107.994403,35.7877519 C108.412834,35.5453029 109.093931,35.5465274 109.517249,35.7902009 L116.181002,39.6363233 C116.603709,39.880609 116.607985,40.275507 116.189554,40.517956 L112.686945,42.5512213 Z M121.20157,48.347956 L114.534153,44.4944866 C114.110834,44.2502009 114.106558,43.8553029 114.52499,43.6134662 L118.029431,41.5795886 C118.447863,41.3371396 119.130792,41.3389764 119.553499,41.5832621 L126.228858,45.4361192 C126.652787,45.680405 126.657063,46.0759152 126.238631,46.3183641 L122.72686,48.3522417 C122.307818,48.5946907 121.624888,48.5928539 121.20157,48.347956 L121.20157,48.347956 Z M131.255535,54.1587723 L124.576511,50.2985682 C124.153193,50.0536703 124.148917,49.6587723 124.567348,49.4163233 L128.080952,47.3824458 C128.499995,47.1393845 129.183535,47.1412213 129.608075,47.3861192 L136.295039,51.2450988 C136.71958,51.4899968 136.723245,51.885507 136.303591,52.1285682 L132.782657,54.1636703 C132.363615,54.4061192 131.679464,54.4042825 131.255535,54.1587723 L131.255535,54.1587723 Z M141.326603,59.9793845 L134.635973,56.1124458 C134.211433,55.8675478 134.207768,55.4720376 134.626811,55.2295886 L138.149577,53.1938743 C138.56923,52.9514254 139.253992,52.9532621 139.679143,53.1987723 L146.376492,57.0644866 C146.802865,57.3099968 146.807141,57.705507 146.386266,57.9485682 L142.856169,59.9848948 C142.435905,60.2273437 141.751143,60.2248948 141.326603,59.9793845 L141.326603,59.9793845 Z M151.414164,65.8097927 L144.71315,61.9361192 C144.287999,61.690609 144.283723,61.2950988 144.703377,61.0526499 L148.235306,59.0157111 C148.656181,58.7732621 149.341554,58.7750988 149.767315,59.0212213 L156.476881,62.893058 C156.902643,63.1391805 156.90753,63.5359152 156.486044,63.7783641 L152.946174,65.8159152 C152.526521,66.0583641 151.840537,66.0559152 151.414164,65.8097927 L151.414164,65.8097927 Z M161.51944,71.6499968 L154.80682,67.7702009 C154.381058,67.5240784 154.376172,67.127956 154.797657,66.8848948 L158.338138,64.8473437 C158.759624,64.6048948 159.446219,64.6073437 159.872591,64.8534662 L166.593153,68.7326499 C167.020136,68.9787723 167.025023,69.375507 166.603537,69.6185682 L163.054504,71.6567315 C162.633629,71.8997927 161.946424,71.8967315 161.51944,71.6499968 L161.51944,71.6499968 Z M171.642431,77.500609 L164.917594,73.6140784 C164.491221,73.3673437 164.486945,72.970609 164.90782,72.7281601 L168.458686,70.6893845 C168.880172,70.4463233 169.567988,70.4493845 169.994971,70.6961192 L176.727749,74.5814254 C177.155344,74.8281601 177.15962,75.225507 176.738134,75.4685682 L173.179327,77.507956 C172.757841,77.7510172 172.069414,77.7473437 171.642431,77.500609 L171.642431,77.500609 Z M181.781914,83.3610172 L175.046082,79.4677519 C174.619098,79.220405 174.614212,78.8236703 175.035697,78.5812213 L178.596337,76.540609 C179.018433,76.2981601 179.707471,76.3012213 180.135065,76.547956 L186.878839,80.440609 C187.307044,80.6873437 187.311931,81.0846907 186.889834,81.3277519 L183.321254,83.3689764 C182.899157,83.6114254 182.21012,83.6077519 181.781914,83.3610172 L181.781914,83.3610172 Z M191.939113,89.2312213 L185.191674,85.3312213 C184.763469,85.0838743 184.758582,84.6865274 185.181289,84.4434662 L188.751702,82.4028539 C189.173799,82.1597927 189.864058,82.1634662 190.292263,82.4102009 L197.047643,86.3095886 C197.47707,86.5569356 197.481957,86.9548948 197.058028,87.197956 L193.480896,89.2397927 C193.058188,89.4828539 192.367318,89.4785682 191.939113,89.2312213 L191.939113,89.2312213 Z M202.114025,95.1112213 L195.35437,91.2050988 C194.926164,90.9571396 194.921278,90.5591805 195.344596,90.3161192 L198.923561,88.2742825 C199.346268,88.0312213 200.037749,88.0348948 200.467176,88.2828539 L207.233551,92.1883641 C207.663589,92.4363233 207.668476,92.8342825 207.244547,93.077956 L203.657641,95.120405 C203.234933,95.3634662 202.543452,95.3591805 202.114025,95.1112213 L202.114025,95.1112213 Z M62.599155,25.2883641 C62.1831668,25.5302009 61.506346,25.5295886 61.0860819,25.2871396 L50.8299262,19.3599968 C50.4108838,19.1175478 50.4078295,18.7250988 50.8232069,18.4826499 L57.3641786,14.6695886 C57.7789451,14.4277519 58.4563767,14.4277519 58.8754192,14.6695886 L69.143181,20.5961192 C69.5634451,20.8385682 69.5671102,21.2316294 69.151122,21.4740784 L62.599155,25.2883641 Z M72.570655,31.0508131 C72.1546668,31.2926499 71.4760135,31.2920376 71.0557493,31.0483641 L64.4329239,27.2212213 C64.0120489,26.9781601 64.0096055,26.5850988 64.4249828,26.3432621 L70.9787824,22.5283641 C71.3941597,22.2859152 72.072813,22.2865274 72.493688,22.5295886 L79.1238437,26.3561192 C79.5447187,26.5991805 79.5483838,26.9922417 79.1317847,27.2346907 L72.570655,31.0508131 Z M82.5592588,36.8224458 C82.1420489,37.0642825 81.4627847,37.0636703 81.0412989,36.8199968 L74.4074781,32.9861192 C73.9866031,32.743058 73.9835489,32.3493845 74.3995371,32.1069356 L80.9624993,28.2914254 C81.3790984,28.0489764 82.0583626,28.0495886 82.4798484,28.2926499 L89.1209993,32.1259152 C89.5424852,32.3695886 89.5467611,32.7632621 89.1295512,33.0057111 L82.5592588,36.8224458 Z M92.5649663,42.6044866 C92.1471456,42.8463233 91.4666597,42.8450988 91.0439522,42.6014254 L84.3991361,38.7608131 C83.9776503,38.5171396 83.9739852,38.1228539 84.3911951,37.8810172 L90.9633201,34.0642825 C91.3799192,33.8218335 92.060405,33.8224458 92.4831126,34.0661192 L99.1358696,37.905507 C99.5579663,38.1497927 99.5616314,38.5440784 99.1438107,38.7865274 L92.5649663,42.6044866 Z M102.586556,48.3957111 C102.168124,48.6381601 101.487028,48.6363233 101.06432,48.3920376 L94.4078979,44.5453029 C93.9858012,44.3010172 93.9815253,43.9067315 94.399346,43.6648948 L100.980634,39.8463233 C101.398455,39.6038743 102.080162,39.6050988 102.50287,39.8493845 L109.166622,43.695507 C109.58994,43.9397927 109.594216,44.3340784 109.175174,44.5765274 L102.586556,48.3957111 Z M111.10057,54.193058 L104.433153,50.3395886 C104.010445,50.0953029 104.006169,49.700405 104.424601,49.457956 L111.015051,45.6387723 C111.433483,45.3963233 112.116412,45.3975478 112.53973,45.6424458 L119.215089,49.4946907 C119.639018,49.7395886 119.643294,50.1344866 119.223641,50.3775478 L112.62586,54.1973437 C112.207429,54.4397927 111.524499,54.437956 111.10057,54.193058 L111.10057,54.193058 Z M121.154535,60.0038743 L114.476122,56.1436703 C114.052193,55.8987723 114.048528,55.5038743 114.466959,55.2614254 L121.066572,51.4410172 C121.485615,51.197956 122.169766,51.1997927 122.593695,51.4446907 L129.280049,55.3036703 C129.704589,55.5491805 129.708865,55.9446907 129.289822,56.1871396 L122.682268,60.0087723 C122.263226,60.2512213 121.579075,60.2487723 121.154535,60.0038743 L121.154535,60.0038743 Z M131.226214,65.8244866 L124.536195,61.9575478 C124.111044,61.7120376 124.106768,61.3165274 124.526422,61.0740784 L131.135197,57.253058 C131.555462,57.010609 132.240223,57.0124458 132.664763,57.2573437 L139.362723,61.123058 C139.787874,61.3685682 139.79215,61.7646907 139.372497,62.0077519 L132.75578,65.8293845 C132.335516,66.0724386 131.650754,66.0693845 131.226214,65.8244866 L131.226214,65.8244866 Z M141.313775,71.6548948 L134.612761,67.7812213 C134.186999,67.5357111 134.183334,67.1402009 134.602988,66.8971396 L141.221537,63.0748948 C141.64119,62.8318335 142.327785,62.8342825 142.752936,63.0797927 L149.462502,66.9522417 C149.888263,67.1983641 149.892539,67.5944866 149.472275,67.8375478 L142.845785,71.660405 C142.426131,71.9034662 141.740148,71.900405 141.313775,71.6548948 L141.313775,71.6548948 Z M151.419051,77.4950988 L144.706431,73.6153029 C144.280669,73.3691805 144.276393,72.9724458 144.696657,72.7299968 L151.32437,68.9065274 C151.745245,68.6634662 152.43245,68.6665274 152.858822,68.9126499 L159.579384,72.7912213 C160.006367,73.037956 160.010643,73.4340784 159.589157,73.6771396 L152.954115,77.5018335 C152.53324,77.7442825 151.846035,77.7412213 151.419051,77.4950988 L151.419051,77.4950988 Z M161.542042,83.3450988 L154.817815,79.4585682 C154.390832,79.2124458 154.386556,78.8157111 154.807431,78.5726499 L161.444306,74.747956 C161.866403,74.505507 162.554219,74.5085682 162.981202,74.7546907 L169.71337,78.6399968 C170.140964,78.8873437 170.145851,79.2840784 169.723754,79.5271396 L163.078938,83.3524458 C162.657452,83.595507 161.969025,83.5924458 161.542042,83.3450988 L161.542042,83.3450988 Z M171.681525,89.205507 L164.945693,85.3122417 C164.518709,85.065507 164.513822,84.6681601 164.935308,84.4257111 L171.581957,80.5997927 C172.004664,80.3567315 172.693091,80.360405 173.121297,80.6071396 L179.86507,84.4991805 C180.293275,84.7465274 180.298162,85.1438743 179.874844,85.3869356 L173.220865,89.2134662 C172.798768,89.4565274 172.10912,89.4528539 171.681525,89.205507 L171.681525,89.205507 Z M181.838723,95.0757111 L175.091285,91.1763233 C174.66308,90.9283641 174.658804,90.5316294 175.081511,90.2885682 L181.736712,86.4614254 C182.16003,86.2183641 182.849679,86.2220376 183.278495,86.4693845 L190.033263,90.3681601 C190.46208,90.615507 190.467577,91.0134662 190.044259,91.2565274 L183.381117,95.0842825 C182.957799,95.3273437 182.267539,95.3236703 181.838723,95.0757111 L181.838723,95.0757111 Z M192.013025,100.955711 L185.254591,97.0495886 C184.825775,96.8016294 184.820888,96.4042825 185.243596,96.1612213 L191.90857,92.3328539 C192.332499,92.0897927 193.02398,92.0940784 193.452797,92.3414254 L200.219782,96.2475478 C200.649209,96.4948948 200.654096,96.8934662 200.230778,97.1365274 L193.557863,100.965507 C193.133933,101.208568 192.443063,101.204283 192.013025,100.955711 L192.013025,100.955711 Z M181.747096,106.847344 L168.72074,99.3057111 C168.292535,99.0577519 168.288259,98.660405 168.710355,98.417956 L175.362502,94.5950988 C175.784598,94.3526499 176.474247,94.3563233 176.902452,94.6036703 L189.94408,102.143466 C190.372896,102.392038 190.377782,102.789997 189.954464,103.033058 L183.288879,106.85714 C182.866172,107.100201 182.175301,107.095303 181.747096,106.847344 L181.747096,106.847344 Z M171.492162,112.731629 L153.536254,102.318568 C153.109881,102.071221 153.104995,101.673874 153.52648,101.432038 L160.16641,97.6134662 C160.587896,97.3710172 161.276322,97.3753029 161.703306,97.6226499 L179.679372,108.033262 C180.108188,108.281834 180.113075,108.679793 179.690367,108.922242 L173.032113,112.742038 C172.610016,112.984487 171.920367,112.980201 171.492162,112.731629 L171.492162,112.731629 Z M162.718537,119.375099 L155.445768,115.149997 C155.018785,114.902038 155.013898,114.504691 155.435995,114.262242 L157.650322,112.991221 C158.071197,112.748772 158.759624,112.75367 159.186608,113.001629 L166.463653,117.226731 C166.891247,117.474691 166.896134,117.87265 166.474037,118.114487 L164.257266,119.386119 C163.834558,119.628568 163.146742,119.62367 162.718537,119.375099 L162.718537,119.375099 Z" id="Fill-17" fill="#DCE4F5" transform="translate(113.993789, 64.996909) scale(-1, 1) translate(-113.993789, -64.996909) "></path>
                        <path d="M11.5309385,103.913711 L8.16516024,105.861874 C7.72229468,106.117793 7.36372628,105.845956 7.36372628,105.253915 C7.36372628,104.661874 7.72229468,103.974323 8.16516024,103.718405 L11.5309385,101.770854 C11.974415,101.514323 12.3329834,101.78616 12.3329834,102.378201 C12.3329834,102.969629 11.974415,103.657793 11.5309385,103.913711" id="Fill-19" fill="#849BCF" transform="translate(9.848355, 103.816184) scale(-1, 1) translate(-9.848355, -103.816184) "></path>
                        <path d="M20.8046657,109.276242 L17.4388874,111.223793 C16.9960218,111.480323 16.6374534,111.208487 16.6374534,110.616446 C16.6374534,110.024405 16.9960218,109.336854 17.4388874,109.080936 L20.8046657,107.132772 C21.2481421,106.876854 21.6067105,107.148691 21.6067105,107.740731 C21.6067105,108.33216 21.2481421,109.020323 20.8046657,109.276242" id="Fill-21" fill="#849BCF" transform="translate(19.122082, 109.178462) scale(-1, 1) translate(-19.122082, -109.178462) "></path>
                    </g>
                    <path d="M164,98.302002 L164,221.008495 C164,224.583887 161.463753,226.024297 158.336185,224.225005 L5.66381456,136.428935 C2.53624672,134.630253 0,130.273621 0,126.69823 L0,3.99112611 C0,0.41634469 2.53624672,-1.02406579 5.66381456,0.774616278 L158.336185,88.5712968 C161.463753,90.3699789 164,94.7266102 164,98.302002" id="Fill-3" fill="#B8CAE8" transform="translate(82.000000, 112.500000) scale(-1, 1) translate(-82.000000, -112.500000) "></path>
                    <path d="M165,99.302002 L165,222.008495 C165,225.583887 162.463753,227.024297 159.336185,225.225005 L6.66442732,137.428935 C3.53624672,135.630253 1,131.273621 1,127.69823 L1,4.99112611 C1,1.41634469 3.53624672,-0.0240657852 6.66442732,1.77461628 L159.336185,89.5712968 C162.463753,91.3699789 165,95.7266102 165,99.302002" id="Fill-7" fill="#F0F4FA" transform="translate(83.000000, 113.500000) scale(-1, 1) translate(-83.000000, -113.500000) "></path>
                    <path d="M159,97.0468804 L159,216.204735 C159,216.918769 158.49365,217.204261 157.870309,216.844505 L7.42887012,130.000799 C6.80613866,129.641652 6,128.671345 6,127.957311 L6,8.79945572 C6,8.08481295 6.5033035,7.79506001 7.12664428,8.15420757 L157.870309,95.1001789 C158.49365,95.4599352 159,96.3328464 159,97.0468804" id="Fill-23" fill="#DEE7F7" transform="translate(82.500000, 112.500000) scale(-1, 1) translate(-82.500000, -112.500000) "></path>
                    <g id="编组-9" transform="translate(60.000000, 26.000000)">
                        <path d="M92.8319882,148.996336 C92.8319882,149.82832 92.3070276,150.198765 91.6590868,149.827105 L1.24717895,97.6629352 C0.602297368,97.2930972 0.076725,96.32083 0.076725,95.4924899 L0.076725,0.974878543 C0.076725,0.146538462 0.602297368,-0.22694332 1.24717895,0.142894737 L91.6590868,52.3070648 C92.3070276,52.6787247 92.8319882,53.6503846 92.8319882,54.4823684 L92.8319882,148.996336 Z" id="Fill-33" fill="#FFFFFF" transform="translate(46.454357, 74.985772) scale(-1, 1) translate(-46.454357, -74.985772) "></path>
                        <path d="M20.006625,117.200021 C20.5799211,116.871479 21.0449211,117.200629 21.0449211,117.935446 L21.0449211,117.935446 L21.0449211,125.499819 C21.0449211,126.234637 20.5799211,127.096378 20.006625,127.42492 L20.006625,127.42492 L12.8101382,131.549009 C12.2368421,131.878159 11.7718421,131.548402 11.7718421,130.813584 L11.7718421,130.813584 L11.7718421,123.249819 C11.7718421,122.515001 12.2368421,121.652653 12.8101382,121.32411 L12.8101382,121.32411 Z M44.8835132,110.489059 C45.3124145,110.243108 45.6599408,110.489666 45.6599408,111.038654 C45.6599408,111.588249 45.3124145,112.232581 44.8835132,112.478533 L44.8835132,112.478533 L28.4567763,122.24493 C28.027875,122.490274 27.6797368,122.244322 27.6797368,121.694727 C27.6797368,121.145739 28.027875,120.5008 28.4567763,120.255456 L28.4567763,120.255456 Z M65.1630197,92.9542105 C65.5919211,92.7088664 65.9400592,92.9548178 65.9400592,93.5038057 C65.9400592,94.0534008 65.5919211,94.6977328 65.1630197,94.9436842 L65.1630197,94.9436842 L28.2817895,116.431336 C27.8535,116.677287 27.5053618,116.431336 27.5053618,115.881741 C27.5053618,115.332146 27.8535,114.687814 28.2817895,114.441862 L28.2817895,114.441862 Z M20.006625,98.6866205 C20.5799211,98.358078 21.0449211,98.6872278 21.0449211,99.4220456 L21.0449211,99.4220456 L21.0449211,106.985811 C21.0449211,107.721236 20.5799211,108.582977 20.006625,108.911519 L20.006625,108.911519 L12.8101382,113.035608 C12.2368421,113.364151 11.7718421,113.035001 11.7718421,112.300183 L11.7718421,112.300183 L11.7718421,104.735811 C11.7718421,104.0016 12.2368421,103.139252 12.8101382,102.810102 L12.8101382,102.810102 Z M44.8835132,91.9480875 C45.3124145,91.7021361 45.6599408,91.9486948 45.6599408,92.4976826 C45.6599408,93.0472778 45.3124145,93.6916098 44.8835132,93.9375612 L44.8835132,93.9375612 L28.4567763,103.703958 C28.027875,103.949302 27.6797368,103.703351 27.6797368,103.154363 C27.6797368,102.604768 28.027875,101.959828 28.4567763,101.714484 L28.4567763,101.714484 Z M65.1630197,74.4129352 C65.5919211,74.1675911 65.9400592,74.4135425 65.9400592,74.9631377 C65.9400592,75.5121255 65.5919211,76.1570648 65.1630197,76.4030162 L65.1630197,76.4030162 L28.2817895,97.890668 C27.8535,98.1360121 27.5053618,97.8900607 27.5053618,97.3410729 C27.5053618,96.7914777 27.8535,96.1465385 28.2817895,95.9011943 L28.2817895,95.9011943 Z M20.006625,80.4890699 C20.5799211,80.1605274 21.0449211,80.4896771 21.0449211,81.224495 L21.0449211,81.224495 L21.0449211,88.7888674 C21.0449211,89.5236852 20.5799211,90.3854261 20.006625,90.7145759 L20.006625,90.7145759 L12.8101382,94.8380577 C12.2368421,95.1672075 11.7718421,94.8374504 11.7718421,94.1026326 L11.7718421,94.1026326 L11.7718421,86.5388674 C11.7718421,85.8040496 12.2368421,84.9417014 12.8101382,84.6131589 L12.8101382,84.6131589 Z M44.8835132,73.7768932 C45.3124145,73.5309418 45.6599408,73.7775005 45.6599408,74.3264883 C45.6599408,74.8760835 45.3124145,75.5204154 44.8835132,75.7657596 L44.8835132,75.7657596 L28.4567763,85.5327636 C28.027875,85.7781077 27.6797368,85.5321563 27.6797368,84.9825612 C27.6797368,84.4335733 28.027875,83.7886341 28.4567763,83.5432899 L28.4567763,83.5432899 Z M65.1630197,56.2420445 C65.5919211,55.9960931 65.9400592,56.2426518 65.9400592,56.7916397 C65.9400592,57.3412348 65.5919211,57.9855668 65.1630197,58.2315182 L65.1630197,58.2315182 L28.2817895,79.71917 C27.8535,79.9651215 27.5053618,79.71917 27.5053618,79.1695749 C27.5053618,78.6199798 27.8535,77.9756478 28.2817895,77.7296964 L28.2817895,77.7296964 Z" id="Fill-36" fill="#D6E4FF"></path>
                        <path d="M1.70530257e-13,0.974696356 L1.70530257e-13,29.4188259 L92.7552632,82.5722672 L92.8317434,72.9698381 L92.7552632,72.8659919 L92.7552632,54.4827935 C92.7552632,53.6508097 92.2296908,52.6791498 91.5823618,52.3074899 L91.5823618,52.3074899 L1.16984211,0.142712551 C1.00097368,0.0455465587 0.840671053,2.84217094e-14 0.695052632,2.84217094e-14 L0.695052632,2.84217094e-14 C0.286342105,2.84217094e-14 1.70530257e-13,0.363765182 1.70530257e-13,0.974696356" id="Fill-53" fill="url(#linearGradient-3)" transform="translate(46.415872, 41.286134) scale(-1, 1) translate(-46.415872, -41.286134) "></path>
                        <polygon id="Fill-55" fill="#0068A0" transform="translate(46.416116, 51.387040) scale(-1, 1) translate(-46.416116, -51.387040) " points="92.7555079 82.5723887 0.000244736842 29.4189474 0.000244736842 24.6960729 0.00048947368 20.2016912 5.75369768 27.4594737 10.8925638 24.6960729 20.4025668 35.4169433 28.8399385 33.9910324 34.5259775 43.3857692 42.3047614 41.2861336 50.0630013 52.893069 58.449815 51.3545951 67.9033993 62.9179555 73.3303221 60.9334013 78.3409412 67.9806538 88.2890605 66.7665182 92.8322329 72.3171304 92.7555079 76.9059975"></polygon>
                        <path d="M3.99145359,66.61586 L4.67486896,66.7781588 L2.56901039,69.9617711 L2.56901039,69.2538104 L0.076725,72.1910591 L3.99145359,66.61586 Z M19.5019108,60.9334013 C19.4884797,61.4873802 19.0237782,62.3773498 18.1078062,63.60331 C15.7317636,66.4775117 14.5262588,67.9366263 14.4912917,67.9806538 L14.4912917,67.9806538 L15.581255,66.0234 Z M34.41,51.2842105 C32.7629948,54.0393815 31.3045648,57.1960438 31.3045648,57.1960438 L31.3045648,57.1960438 L24.6205263,63.4299595 C24.6516672,63.3873963 25.3220606,62.4497361 26.0530056,60.7167165 L26.0530056,60.7167165 L34.3200375,51.3267737 Z M50.3178947,41.2080972 C49.7293235,43.5021314 48.5845744,45.9427507 48.5845744,45.9427507 L48.5845744,45.9427507 L42.3639474,52.7465587 C42.3639474,52.7465587 43.5493255,50.2493933 45.1618569,47.6282612 L45.1618569,47.6282612 L45.2288398,47.5943335 Z M63.9922944,33.9910324 L61.8336402,37.7485093 L60.1152096,40.5168277 L58.2718421,43.4653846 L59.3105181,40.5168277 L63.9922944,33.9910324 Z M81.9396691,24.6960729 L79.510289,27.5140503 L75.6810793,31.8491139 L72.4296661,35.4169433 L73.8989048,32.9921409 L80.7436689,25.4874895 L81.9396691,24.6960729 Z M92.8317434,19.6860885 L92.8319882,20.2016912 L90.2500925,23.5276752 L87.0785352,27.4594737 C87.2933242,26.8312733 87.4850653,26.8066731 88.4862331,24.6646059 L88.4862331,24.6646059 L92.8317434,19.6860885 Z" id="Fill-58" fill="#ADC6FF"></path>
                        <path d="M24.1602966,52.4918016 C24.2343295,54.6215587 22.7708032,55.4741903 20.8900005,54.3968623 C19.0098097,53.3195344 17.4257505,50.7197368 17.3511058,48.5899798 C17.2770729,46.4602227 18.7418229,45.6075911 20.6214018,46.684919 C22.5015926,47.762247 24.0862637,50.3620445 24.1602966,52.4918016" id="Fill-71" fill="#FFFFFF" transform="translate(20.755702, 50.540891) scale(-1, 1) translate(-20.755702, -50.540891) "></path>
                    </g>
                    <g id="编组-10" transform="translate(6.000000, 70.000000)">
                        <path d="M0,122.352184 L40.5272289,145.838902 C41.4829111,146.392748 42.7066254,146.066996 43.2604713,145.111313 C43.4370594,144.806604 43.5300556,144.460667 43.5300556,144.108487 L43.5300556,26.7469701 C43.5300556,26.0301725 43.1464562,25.3681852 42.5245578,25.0117567 L0,0.639671469 L0,0.639671469 L0,122.352184 Z" id="Fill-25" fill="url(#linearGradient-4)" transform="translate(21.765028, 74.109400) scale(-1, 1) translate(-21.765028, -74.109400) "></path>
                        <path d="M32.8334722,48.0464046 C32.8334722,54.552222 28.0771944,57.0853797 22.2093056,53.7037697 C16.3426389,50.3227697 11.58575,42.3079149 11.58575,35.8020975 C11.58575,29.2962801 16.3426389,26.7631224 22.2093056,30.1441224 C28.0771944,33.5251224 32.8334722,41.5399772 32.8334722,48.0464046" id="Fill-27" fill="#FFFFFF" opacity="0.5" transform="translate(22.209611, 41.924147) scale(-1, 1) translate(-22.209611, -41.924147) "></path>
                        <path d="M35.2397222,71.5437751 L9.1795,56.5265967 C8.04527778,55.8733311 7.12616667,54.1587378 7.12616667,52.6972772 C7.12616667,51.2364266 8.04527778,50.5813311 9.1795,51.2352066 L35.2397222,66.2523851 C36.3733333,66.9056506 37.2930556,68.620244 37.2930556,70.0817046 C37.2930556,71.5425552 36.3733333,72.1970407 35.2397222,71.5437751" id="Fill-29" fill="#FFFFFF" opacity="0.5" transform="translate(22.209611, 61.389360) scale(-1, 1) translate(-22.209611, -61.389360) "></path>
                        <path d="M32.7589778,77.043832 L11.6603667,64.8849191 C10.9447556,64.4731971 10.3642,63.3911307 10.3642,62.4688734 C10.3642,61.5472261 10.9447556,61.1342842 11.6603667,61.5466162 L32.7589778,73.7049191 C33.4745889,74.117251 34.0551444,75.1993174 34.0551444,76.1209647 C34.0551444,77.043222 33.4745889,77.4561639 32.7589778,77.043832" id="Fill-31" fill="#FFFFFF" opacity="0.5" transform="translate(22.209672, 69.295219) scale(-1, 1) translate(-22.209672, -69.295219) "></path>
                    </g>
                </g>
                <g id="编组-13" transform="translate(417.000000, 176.000000) scale(-1, 1) translate(-417.000000, -176.000000) translate(357.000000, 102.000000)">
                    <polygon id="Fill-3" fill="#3D4766" opacity="0.100000001" points="0.400235107 124.540332 22.8179133 137.451101 76.2089156 106.721143 53.9631534 93.7359361"></polygon>
                    <g id="编组">
                        <path d="M55.7791469,2.12776402 L5.89640618,30.8551047 L22.8177328,40.5902882 L58.5862073,11.4578225 L58.5862073,3.75006904 C58.5862073,2.30957406 57.0276819,1.40864438 55.7791469,2.12776402" id="Fill-5" fill="#5C82FF"></path>
                        <polygon id="Fill-7" fill="#ADC6FF" points="5.88702073 33.5272612 55.4904542 4.9600758 73.3471669 15.261442 23.7572701 43.8191534"></polygon>
                        <path d="M74.7032284,12.1663403 C74.0683571,11.7666289 73.2836797,11.5329375 72.542771,11.9601686 L22.8179584,40.5905138 L5.89663179,30.8553302 L55.7793725,2.12798959 C56.3131697,1.82031105 56.8979552,1.82211562 57.3992643,2.02287361 L57.3992643,2.01249735 C57.3992643,2.01249735 55.6616032,1.15983982 54.9748413,0.754263562 C54.3548604,0.387936621 53.5950003,0.193945753 52.8829699,0.604033425 L0.400280229,30.8287129 L0.400280229,118.990795 L20.0600814,107.668496 L20.0600814,130.346479 L73.7267811,99.4396736 C74.7312042,98.8613101 75.3498314,97.7912024 75.3498314,96.633122 L77.0252237,13.4710416 C77.0252237,13.4710416 75.4639909,12.6454526 74.7032284,12.1663403" id="Fill-9" fill="#ADC6FF"></path>
                        <polygon id="Fill-11" fill="#648CFB" points="22.8180487 43.7607757 0.400370474 30.8500068 0.400370474 119.011638 22.8180487 131.922407"></polygon>
                        <polygon id="Fill-13" fill="#FCC106" points="19.7703057 48.5224395 2.48754918 38.5693545 2.48754918 45.3125673 19.7703057 55.2656522"></polygon>
                        <polygon id="Fill-15" fill="#FCC106" points="19.7703057 57.424139 2.48754918 47.4710541 2.48754918 49.8052605 19.7703057 59.7583454"></polygon>
                        <polygon id="Fill-17" fill="#FCC106" points="19.7703057 61.767008 2.48754918 51.8139231 2.48754918 54.1481295 19.7703057 64.1012144"></polygon>
                        <polygon id="Fill-19" fill="#FCC106" points="19.7703057 120.455065 2.48754918 110.50198 2.48754918 112.836187 19.7703057 122.789272"></polygon>
                        <path d="M75.3007383,13.5358256 L22.8180487,43.7609562 L22.8180487,131.922587 L76.4851996,101.015331 C77.4891716,100.436967 78.1077988,99.3668594 78.1077988,98.208779 L78.1077988,15.1581306 C78.1077988,13.7176356 76.5492733,12.8171571 75.3007383,13.5358256" id="Fill-21" fill="#3C69FC"></path>
                    </g>
                    <polygon id="Fill-23" fill="#3D4766" opacity="0.100000001" points="40.5424175 134.615226 62.9605469 147.525995 116.350647 116.796037 94.1053358 103.810829"></polygon>
                    <g id="编组" transform="translate(40.158878, 6.767123)">
                        <path d="M55.762226,1.83745443 L5.8794853,30.5647951 L22.8008119,40.3004298 L58.5692865,11.1675129 L58.5692865,3.45930831 C58.5692865,2.01926447 57.010761,1.11833479 55.762226,1.83745443" id="Fill-25" fill="#5FACD6"></path>
                        <polygon id="Fill-27" fill="#C7E2F1" points="5.87028035 33.2369516 55.4732626 4.66976621 73.3299753 14.9711324 23.7405297 43.5288438"></polygon>
                        <path d="M74.686488,11.8762111 C74.0516167,11.4764997 73.2669393,11.2428084 72.5260306,11.6695883 L22.8007668,40.3003847 L5.87944018,30.56475 L55.7621809,1.83740932 C56.2964294,1.52973078 56.8812148,1.53198648 57.3820727,1.73229333 L57.382524,1.72191708 C57.382524,1.72191708 55.6448629,0.869710685 54.9581009,0.464134429 C54.33812,0.0978074886 53.5778087,-0.0966345205 52.8662295,0.313904292 L0.383539843,30.5385837 L0.383539843,118.700215 L20.043341,107.377915 L20.043341,130.05635 L73.7100407,99.1495445 C74.7140126,98.5707299 75.333091,97.5006221 75.333091,96.3425417 L77.0080321,13.1804614 C77.0080321,13.1804614 75.4472505,12.3553235 74.686488,11.8762111" id="Fill-29" fill="#92D8FF"></path>
                        <polygon id="Fill-31" fill="#3EB0EE" points="22.8013083 43.4702405 0.383178864 30.5599227 0.383178864 118.721554 22.8013083 131.631872"></polygon>
                        <polygon id="Fill-33" fill="#FFFFFF" points="19.7535653 48.2321299 2.47080879 38.2790449 2.47080879 45.0222577 19.7535653 54.9753426"></polygon>
                        <polygon id="Fill-35" fill="#FFFFFF" points="19.7535653 57.1335587 2.47080879 47.1804738 2.47080879 49.5151313 19.7535653 59.4682163"></polygon>
                        <polygon id="Fill-37" fill="#FFFFFF" points="19.7535653 61.4764729 2.47080879 51.5233879 2.47080879 53.8575943 19.7535653 63.8111304"></polygon>
                        <polygon id="Fill-39" fill="#FFFFFF" points="19.7535653 120.164756 2.47080879 110.211671 2.47080879 112.545877 19.7535653 122.498962"></polygon>
                        <path d="M75.2839979,13.245516 L22.8013083,43.4701954 L22.8013083,131.632278 L76.4684592,100.725021 C77.4724312,100.147109 78.0910584,99.0765498 78.0910584,97.9184694 L78.0910584,14.867821 C78.0910584,13.427326 76.5320817,12.5263963 75.2839979,13.245516" id="Fill-41" fill="#6FBDE7"></path>
                    </g>
                </g>
                <g id="编组" transform="translate(60.000000, 271.000000)">
                    <path d="M4.84284319,60.0883501 L49.3906002,86.1508062 C50.0346947,86.5276306 50.835006,86.5145359 51.4664277,86.1168413 L57.8530986,82.0942618 C58.787733,81.5055918 59.0681926,80.2707096 58.4795226,79.3360752 C58.3083826,79.0643554 58.0743305,78.83784 57.7971566,78.6756822 L13.2490532,52.6132663 C12.6049474,52.2364387 11.8046225,52.2495433 11.173199,52.6472565 L4.78687443,56.6697959 C3.85225177,57.2584845 3.57181681,58.4933722 4.1605054,59.4279949 C4.33164213,59.6996976 4.56568392,59.9261993 4.84284319,60.0883501 Z" id="Fill-43" fill="#3D4766" opacity="0.100000001"></path>
                    <polygon id="Fill-45" fill="#7DB7D7" points="58.9643776 28.5999834 58.9643776 68.9374519 48.7635715 75.3454665 48.7635715 35.0255925"></polygon>
                    <polygon id="Fill-47" fill="#8FD2F7" points="0.324294218 6.68654941 48.7635715 35.0254572 58.9643776 28.599848 10.5251004 0.261391416"></polygon>
                    <polygon id="Fill-49" fill="#B8E3FA" points="48.7717837 75.3451056 0.332506483 47.0061978 0.332506483 6.68632384 48.7717837 35.0252316"></polygon>
                    <polygon id="Fill-51" fill="#D2ECF9" points="0.324294218 6.68654941 24.5441585 41.0161658 48.7635715 35.0254572"></polygon>
                    <path d="M39.5419651,14.5187728 L39.5419651,22.4593153 C39.5419651,23.041739 39.1715107,23.5276184 38.67697,23.7170979 C38.5361883,23.7739417 38.3769064,23.8131911 38.2180758,23.8172513 C37.4771671,23.8366504 36.8946377,23.2695655 36.8946377,22.5287911 L36.8946377,14.5882486 C36.8946377,13.8294285 36.4885367,13.1342194 35.8536655,12.7624787 L23.728843,5.66872895 C23.4463772,5.50000201 23.128716,5.50812256 22.8462501,5.67459379 C22.7758593,5.7115874 22.7230662,5.74812986 22.6698218,5.80271799 C22.6698218,5.80271799 22.6522241,5.82076365 22.6170287,5.83926046 C22.4757958,6.00167142 22.4049537,6.21506137 22.4049537,6.44469242 L22.4049537,12.4439728 C22.4049537,12.9912075 22.0520971,13.4766358 21.5756052,13.6832586 C21.4167746,13.7581481 21.257944,13.7978486 21.0815156,13.80236 C20.3401557,13.8217591 19.7576263,13.2370796 19.7576263,12.5134486 L19.7576263,6.51416822 C19.7576263,5.20811342 20.4285955,4.04371708 21.5580075,3.39678009 C21.8404733,3.23030886 22.1229391,3.09947781 22.4230026,3.0385737 C23.322742,2.76833991 24.2757257,2.88428329 25.1050742,3.37422301 L37.2298967,10.4679728 C38.6593722,11.2949153 39.5419651,12.8423308 39.5419651,14.5187728" id="Fill-53" fill="#5FBEF2"></path>
                    <polygon id="Fill-55" fill="#60A0C4" points="27.2886342 39.5185563 27.2886342 43.6370276 26.3749069 44.2113308 26.3749069 40.0937618"></polygon>
                    <polygon id="Fill-57" fill="#60A0C4" points="21.4313491 37.2040197 26.3749521 40.0935814 27.2886793 39.5183759 22.3455276 36.6306188"></polygon>
                    <polygon id="Fill-59" fill="#CEE9F7" points="26.3749521 44.2112857 21.4313491 41.3190172 21.4313491 37.2041551 26.3749521 40.0937167"></polygon>
                    <path d="M39.5419651,14.5187728 L39.5419651,22.4593153 C39.5419651,23.041739 39.1715107,23.5276184 38.67697,23.7170979 L38.67697,15.7594121 C38.67697,12.865339 37.4947648,11.8195929 37.4947648,11.8195929 L22.4230026,3.0385737 C23.322742,2.76833991 24.2757257,2.88428329 25.1050742,3.37422301 L37.2298967,10.4679728 C38.6593722,11.2949153 39.5419651,12.8423308 39.5419651,14.5187728" id="Fill-61" fill="#0088D2"></path>
                    <path d="M22.6168933,5.83912511 C22.4756604,6.00153607 22.4048183,6.21492603 22.4048183,6.44455708 L22.4048183,12.4442886 C22.4048183,12.9915233 22.0524129,13.4769516 21.5754698,13.6835744 L21.5754698,7.5782758 C21.5754698,6.5370411 22.4048183,5.9681516 22.6168933,5.83912511" id="Fill-63" fill="#328EEA"></path>
                </g>
                <g id="悬浮" transform="translate(263.500000, 141.000000) scale(-1, 1) translate(-263.500000, -141.000000) translate(117.000000, 0.000000)">
                    <g id="编组-8" transform="translate(74.000000, 0.000000)">
                        <path d="M39.5528847,59.1972951 C39.341261,59.1603015 39.1287348,59.0827051 38.925233,58.9658595 L1.48678092,37.429264 C0.584334231,36.9100001 4.97379915e-14,35.9454595 4.97379915e-14,34.9732494 L4.97379915e-14,1.45162752 C4.97379915e-14,0.876873178 0.284270707,0.391444868 0.761213782,0.152790986 C1.23680319,-0.0845094702 1.83963758,-0.0434555889 2.37117868,0.262418384 L39.7523254,21.7665316 C40.656577,22.2857956 41.24046,23.2503362 41.24046,24.2229974 L41.24046,57.8059745 C41.24046,58.3658412 40.9629577,58.8395398 40.4991001,59.0723289 C40.2148294,59.2148896 39.8858875,59.2554924 39.5528847,59.1972951" id="Fill-237" fill="#4F7DFE"></path>
                        <polygon id="Fill-239" fill="#FFD561" points="19.9471401 19.1624072 22.8060913 26.6053406 29.1999261 31.2250301 24.5735331 33.0629808 25.6654936 40.0601862 19.9471401 33.7532273 14.2283355 33.4581808 15.3207472 27.7219159 10.6943542 20.5429004 17.0877378 23.3043378"></polygon>
                    </g>
                    <g id="编组-5" transform="translate(231.000000, 76.000000)">
                        <polygon id="Fill-263" fill="#FFA305" points="49.412566 26.7748 49.412566 69.9282941 46.4917973 71.5140566 6.27787039 41.2808055 -8.52651283e-14 1.58666484 2.92076871 1.42108547e-14"></polygon>
                        <polygon id="Fill-265" fill="#D48702" points="49.412566 26.7748 49.412566 69.9282941 46.4917973 71.5140566 6.27787039 41.2808055 46.4917973 28.3610137"></polygon>
                        <polygon id="Fill-267" fill="#FFC338" points="46.4919778 28.3610588 46.4919778 71.5145529 0.000180489338 44.7397529 0.000180489338 1.58670995"></polygon>
                        <polygon id="Fill-269" fill="#FFFFFF" points="5.77922347 15.7976237 5.77922347 19.3968311 22.579171 38.229284 39.4161189 38.6308 39.4161189 35.0496384"></polygon>
                        <polygon id="Fill-271" fill="#FFFFFF" points="22.5793515 40.3196033 5.77940396 21.4871503 5.77940396 39.8842517 39.4158482 59.1358152 39.4158482 40.7211193"></polygon>
                    </g>
                    <g id="编组-18" transform="translate(231.000000, 193.000000)">
                        <path d="M58.8535121,88.0836844 C58.5390094,88.0286452 58.2227018,87.9131529 57.9194797,87.7394634 L2.21279928,55.6939767 C0.869507385,54.9211712 2.84217094e-14,53.4865411 2.84217094e-14,52.039279 L2.84217094e-14,2.16016663 C2.84217094e-14,1.30480225 0.423247497,0.58252462 1.13302182,0.227025076 C1.84054002,-0.125767618 2.73757203,-0.0644123668 3.52811533,0.390338318 L59.150417,32.3880041 C60.4955138,33.1612607 61.36457,34.5958908 61.36457,36.0427018 L61.36457,86.0133959 C61.36457,86.8471054 60.9517006,87.5513374 60.2613289,87.8978141 C59.8389838,88.1098506 59.3494065,88.1703036 58.8535121,88.0836844" id="Fill-273" fill="#0088D2"></path>
                        <path d="M30.354742,45.8125781 C34.476216,49.4898329 38.4510424,53.037159 42.5264917,56.6742622 C40.6024753,62.0550275 37.3730699,64.6563096 32.7746528,64.7763133 C31.9552312,58.353411 31.1687489,52.1903663 30.354742,45.8125781 Z M33.0331135,24.854662 C32.9000026,25.3473085 32.7682454,25.833188 32.6369394,26.3190675 C31.3162087,31.1963588 29.9517093,36.0353031 28.7076865,40.9780099 C28.4202572,42.122556 28.3543786,43.5928264 28.5114044,44.9633944 C29.1828247,50.8070309 29.977429,56.6700665 30.7233012,62.5258839 C30.7995579,63.1259022 30.8532535,63.7232136 30.9164248,64.3115022 C26.332898,64.1459332 20.1615164,57.7911533 17.112149,50.1641542 C13.6102046,41.4043387 13.7112786,31.9285615 17.3675414,26.3123003 C20.9619866,20.7894254 27.2800158,20.1460976 33.0331135,24.854662 Z M34.8082261,26.4781851 C41.2747079,32.3267842 45.2355464,45.4919969 43.1468335,54.2391805 C38.9102975,50.4586143 34.6755665,46.6794015 30.3772129,42.8433449 C31.8590303,37.371449 33.333177,31.924817 34.8082261,26.4781851 Z" id="Fill-276" fill="#FFFFFF"></path>
                    </g>
                    <g id="编组-15" transform="translate(38.000000, 60.000000)">
                        <polygon id="Fill-281" fill="#F39A00" points="35.9746836 18.8545589 35.9746836 49.2434539 32.7398634 51.038095 4.42063511 29.7478228 -7.10542736e-15 1.7946411 3.23482016 1.42108547e-14"></polygon>
                        <polygon id="Fill-285" fill="#FFC338" points="32.7399086 20.6494707 32.7399086 51.0383657 4.51223346e-05 32.1833556 4.51223346e-05 1.79446064"></polygon>
                        <polyline id="Stroke-287" stroke="#FFFFFF" stroke-width="2.757" stroke-linecap="round" stroke-linejoin="round" transform="translate(13.601561, 26.270509) scale(-1, 1) rotate(-15.000000) translate(-13.601561, -26.270509) " points="4.65137112 24.2467255 9.18696148 31.2705087 22.5517501 21.2705087"></polyline>
                    </g>
                    <path d="M27.8426121,40.5992419 C27.6977694,40.573978 27.5515731,40.5207433 27.4121451,40.4404401 L1.73573185,25.6700656 C1.11665342,25.3141149 0.715967093,24.6527414 0.715967093,23.9855031 L0.715967093,0.995780696 C0.715967093,0.601482979 0.910895578,0.268540514 1.23848373,0.10477613 C1.5647182,-0.0580859704 1.97803879,-0.0296640526 2.34217603,0.180116769 L27.9793328,14.9283853 C28.5993137,15.2843359 29,15.9461606 29,16.6129478 L29,39.6450775 C29,40.028999 28.8095837,40.3538209 28.4914713,40.513525 C28.2965428,40.6114227 28.0709311,40.6393935 27.8426121,40.5992419" id="Fill-1" fill="#0088D2"></path>
                </g>
                <g id="编组-4" transform="translate(94.000000, 350.000000)">
                    <g id="编组-3">
                        <path d="M4.61466331,78.5935352 C1.33262699,76.6996607 1.73407493,73.3759706 5.53365121,71.2053433 L99.3865083,17.0561182 C103.176336,14.86955 108.908712,14.631764 112.190748,16.5251957 L180.746181,56.0795869 C184.027775,57.9730186 183.616579,61.2807677 179.82675,63.467336 L85.9743364,117.617004 C82.1849514,119.803572 76.4516899,120.040915 73.1696536,118.147484 L4.61466331,78.5935352 Z" id="Fill-1" fill="#939FC6" opacity="0.100000001" transform="translate(92.678595, 67.336435) scale(-1, 1) translate(-92.678595, -67.336435) "></path>
                        <path d="M71.2413251,106.517358 L2.68633481,66.9634098 C-0.595701508,65.0695352 -1.22047148,58.8410481 2.79002004,56.5238526 L97.4581798,6.95278246 C101.248008,4.76621419 106.980383,4.52887102 110.26242,6.42230275 L179.677466,41.4543323 C182.959502,43.3482068 181.68825,49.6506422 177.898422,51.8376533 L84.0460079,105.986878 C80.2566229,108.173447 74.5233614,108.41079 71.2413251,106.517358" id="Fill-3" fill="#B7C6E7" transform="translate(90.780399, 56.469830) scale(-1, 1) translate(-90.780399, -56.469830) "></path>
                        <path d="M71.3014112,102.900133 L2.74642092,63.3461847 C-0.535615397,61.4523101 -0.134167455,58.1290629 3.66540882,55.9584356 L97.518266,1.8087677 C101.308094,-0.37780057 107.040469,-0.615143744 110.322506,1.27828799 L178.877939,40.8322363 C182.159975,42.7256681 181.748336,46.0334171 177.958508,48.2204282 L84.106094,102.370096 C80.3167091,104.556222 74.5834476,104.793565 71.3014112,102.900133" id="Fill-5" fill="#FFFFFF" transform="translate(90.810442, 52.089231) scale(-1, 1) translate(-90.810442, -52.089231) "></path>
                        <path d="M135.705118,77.992871 C137.421685,77.0023175 140.196815,76.9974467 141.902748,77.9813581 C143.609123,78.9661551 143.600261,80.5668932 141.883251,81.5578895 C140.166685,82.548443 137.391997,82.5533138 135.685622,81.5689596 C133.979246,80.5841625 133.988108,78.9834245 135.705118,77.992871 Z M45.3005481,19.6482511 C45.5610905,19.4976976 46.0170397,19.5167382 46.317461,19.6903175 C46.6187685,19.8638968 46.6515578,20.1264799 46.3905724,20.2770334 L46.3905724,20.2770334 L35.6715578,26.4616828 C35.4110155,26.6122363 34.9555094,26.5931957 34.654645,26.4196164 C34.3533375,26.2460371 34.3209912,25.9830112 34.5815336,25.8329005 L34.5815336,25.8329005 Z" id="Fill-48" fill="#DAE3ED"></path>
                        <path d="M142.854215,84.998967 L146.35204,87.0168267 C146.764123,87.2550555 147.098663,87.0022142 147.098663,86.4522511 C147.098663,85.9027308 146.764123,85.2642068 146.35204,85.025978 L142.854215,83.0081182 C142.441689,82.7703323 142.107149,83.0227308 142.107149,83.5722511 C142.107149,84.122657 142.441689,84.761181 142.854215,84.998967" id="Fill-13" fill="#A9BCD2" transform="translate(144.602906, 85.012563) scale(-1, 1) translate(-144.602906, -85.012563) "></path>
                        <path d="M81.8150183,98.2917788 L170.810178,46.9184946 C171.00913,46.8038083 170.983873,46.6027751 170.754348,46.4703766 L96.4434977,3.58343928 C96.2135292,3.45059795 95.8652532,3.43598541 95.6663016,3.55111456 L6.69241056,54.9035869 C6.49345899,55.0178304 6.51782945,55.2193064 6.74824107,55.351705 L81.0378222,98.2598968 C81.2677907,98.3927382 81.6156236,98.4069079 81.8150183,98.2917788" id="Fill-15" fill="#DDEBF2" transform="translate(88.751145, 50.921542) scale(-1, 1) translate(-88.751145, -50.921542) "></path>
                        <path d="M94.8359912,8.33955736 L14.7994125,54.5183028 C13.944674,55.0111441 13.6407079,55.6328415 14.1152672,55.9064946 L80.6510541,94.1324725 C81.1260566,94.4065684 82.2058895,94.2294467 83.0584125,93.7379337 L163.097207,47.5583028 C163.949287,47.066347 164.253253,46.4446496 163.778693,46.1705537 L97.2433495,7.94501862 C96.7683471,7.67092268 95.6907297,7.84671603 94.8359912,8.33955736" id="Fill-17" fill="#FFFFFF" transform="translate(88.947024, 51.038607) scale(-1, 1) translate(-88.947024, -51.038607) "></path>
                        <path d="M100.823679,31.4476607 C101.24994,31.6938599 101.265006,32.0839706 100.856911,32.3190998 L54.2960394,58.9196902 C53.887945,59.1548194 53.2117755,59.1464061 52.785514,58.9002068 C52.3592525,58.6544504 52.3441871,58.2643397 52.7522816,58.0292105 L99.3131532,31.4281773 C99.7212477,31.1930481 100.397417,31.2019042 100.823679,31.4476607 Z M103.912302,24.5337123 C104.599992,24.9304651 104.580496,25.5844873 103.869322,25.9945242 L50.9393409,56.2695057 C50.19006,56.7016828 49.0255951,56.7309079 48.3383481,56.3341551 C47.6506581,55.9378452 47.7016145,55.2656681 48.4508954,54.8334909 L101.310866,24.5983618 C102.060147,24.1661847 103.225055,24.1369596 103.912302,24.5337123 Z" id="Fill-46" fill="#A5B5D9"></path>
                        <path d="M99.8769084,78.1834983 L104.775814,81.0103618 C105.252146,81.2849005 105.296456,81.7046791 104.875511,81.9477788 L99.5906663,84.9969301 C99.169722,85.2400297 98.442153,85.214347 97.9662644,84.9393655 L93.0669157,82.112502 C92.590584,81.8379633 92.5462741,81.4186275 92.9676615,81.1755278 L98.2520634,78.1263766 C98.6734508,77.8832769 99.4010198,77.9089596 99.8769084,78.1834983 Z M88.6159392,71.6867603 L93.5152879,74.5136238 C93.9916196,74.7881625 94.0359295,75.2074983 93.6145421,75.450598 L88.3301402,78.4997492 C87.9087527,78.7428489 87.1811837,78.7171662 86.7052951,78.4426275 L81.8063895,75.615764 C81.3300578,75.3412253 81.2857479,74.9214467 81.7066922,74.678347 L86.9915372,71.6291957 C87.4124816,71.3860961 88.1400506,71.4117788 88.6159392,71.6867603 Z M123.075238,69.7817271 C123.431047,69.9867456 123.443897,70.3126496 123.103153,70.5092548 L109.834102,77.9009891 C109.493359,78.0975943 108.929294,78.0905094 108.573042,77.8850481 C108.217233,77.6795869 108.204826,77.3541256 108.54557,77.1579633 L121.814621,69.7653433 C122.154921,69.569181 122.719429,69.5767087 123.075238,69.7817271 Z M136.01644,58.5105389 C136.371805,58.7160002 136.384655,59.0419042 136.044355,59.2380666 L106.537045,75.9995426 C106.196745,76.195705 105.632236,76.1881773 105.276428,75.982716 C104.920619,75.7776976 104.907769,75.4517935 105.248512,75.2556312 L134.755822,58.494598 C135.095679,58.2984356 135.660631,58.3059633 136.01644,58.5105389 Z M77.286644,65.1497271 L82.1855496,67.9765906 C82.6618813,68.2511293 82.7061912,68.6709079 82.2852469,68.9140075 L77.0004019,71.9631588 C76.5794576,72.2062585 75.8518886,72.180133 75.376,71.9055943 L70.4766513,69.0787308 C70.0003196,68.804192 69.9560096,68.3848563 70.3773971,68.1417566 L75.661799,65.0926053 C76.0831864,64.8495057 76.8107554,64.8751884 77.286644,65.1497271 Z M111.814712,63.284502 C112.170077,63.4899633 112.182927,63.8158673 111.842627,64.0120297 L98.5731331,71.4042068 C98.2328329,71.600812 97.6683244,71.5932843 97.3125157,71.387823 C96.956707,71.1828046 96.9443002,70.8573433 97.2846004,70.6607382 L110.554094,63.2685611 C110.893952,63.0723987 111.458903,63.0794836 111.814712,63.284502 Z M124.755914,52.0137566 C125.111279,52.2192179 125.124129,52.5451219 124.783386,52.7412843 L95.2765188,69.5023175 C94.9362186,69.6984799 94.3717101,69.6909522 94.0154583,69.4859337 C93.6600927,69.2809153 93.6472428,68.9550112 93.9879862,68.7588489 L123.494853,51.9978157 C123.835153,51.8012105 124.399662,51.8087382 124.755914,52.0137566 Z M66.1615733,58.7312769 L71.060922,61.5581404 C71.5372537,61.8326791 71.5815636,62.2520149 71.1601762,62.4951146 L65.8757743,65.5442659 C65.4543869,65.7873655 64.7268179,65.7616828 64.2509293,65.4871441 L59.3520237,62.6602806 C58.875692,62.3857419 58.831382,61.9659633 59.2523264,61.7228636 L64.5371714,58.6737123 C64.9581157,58.4306127 65.6856847,58.4567382 66.1615733,58.7312769 Z M100.46725,56.7375943 C100.823058,56.9430555 100.835908,57.2689596 100.495165,57.4651219 L87.226114,64.8572991 C86.8853707,65.0539042 86.3213053,65.0463766 85.9654966,64.8409153 C85.6092448,64.635454 85.596838,64.3099928 85.9375813,64.1138304 L99.2066322,56.7216533 C99.5469324,56.5250481 100.111441,56.5325758 100.46725,56.7375943 Z M113.408407,45.4668489 C113.763773,45.6718673 113.776622,45.9982142 113.436322,46.1943766 L83.9290123,62.9554098 C83.5887121,63.1515721 83.0242036,63.1440444 82.6683949,62.9385832 C82.3125862,62.7340075 82.2997363,62.4081035 82.6404796,62.2114983 L112.14779,45.4504651 C112.487647,45.2543028 113.052598,45.2618304 113.408407,45.4668489 Z M89.3594598,50.3286201 C89.7148254,50.5340813 89.7276753,50.8599854 89.387375,51.0561478 L76.1178811,58.4483249 C75.7775808,58.6449301 75.2135155,58.6374024 74.8572636,58.4319411 C74.5014549,58.2269227 74.4890481,57.9014614 74.8293484,57.7048563 L88.0988423,50.3126791 C88.4386995,50.1165168 89.003651,50.1236016 89.3594598,50.3286201 Z M102.300661,39.0578304 C102.656027,39.2632917 102.668877,39.5891957 102.328134,39.7853581 L72.8212668,56.5463913 C72.4809665,56.7425537 71.9164581,56.735026 71.5602063,56.5300075 C71.2048406,56.3249891 71.1919908,55.999085 71.5327341,55.8029227 L101.039601,39.0418895 C101.379901,38.8452843 101.94441,38.852812 102.300661,39.0578304 Z" id="Fill-44" fill="#DCE4F5"></path>
                        <path d="M31.0724045,8.29611825 L13.6860752,18.3274098 L81.5631236,57.7675574 L99.3455836,47.5077788 C100.271661,46.9737566 100.635446,46.3170777 100.160886,46.0434245 L33.6126926,7.82453153 C33.1381333,7.55043559 32.0006974,7.7607677 31.0724045,8.29611825" id="Fill-47" fill="#0088D2" transform="translate(57.027589, 32.735943) scale(-1, 1) translate(-57.027589, -32.735943) "></path>
                        <path d="M66.5408663,33.7225242 C66.8173602,33.8819337 66.8435031,34.1263618 66.5984692,34.2671736 L59.3781665,38.4330777 C59.1331326,38.5743323 58.7104159,38.5592769 58.433922,38.3998673 C58.1569849,38.2400149 58.1312852,37.9960297 58.375876,37.8552179 L65.5961787,33.688871 C65.8412126,33.5476164 66.2639293,33.5626718 66.5408663,33.7225242 Z M65.2756849,31.7137861 C65.7143532,31.9670703 65.7555615,32.3536385 65.3674065,32.5776976 L56.4495905,37.7226422 C56.0614356,37.9467013 55.3914695,37.9227898 54.9528012,37.6699485 C54.5141329,37.4171072 54.4733678,37.0305389 54.8615227,36.8064799 L63.7788956,31.6610924 C64.1670506,31.4374762 64.8374598,31.4609448 65.2756849,31.7137861 Z M57.9074314,29.2233655 C59.8597268,30.3498599 59.8154169,32.2029965 57.807291,33.3609301 C55.7996082,34.5193064 52.5889109,34.5454319 50.6366155,33.4184946 C48.683877,32.2920002 48.7281869,30.4393064 50.7358697,29.2809301 C52.7439956,28.1225537 55.9546929,28.096871 57.9074314,29.2233655 Z" id="Fill-50" fill="#FFFFFF"></path>
                    </g>
                </g>
                <g id="编组-14" transform="translate(453.000000, 228.000000)">
                    <path d="M58.4903251,12.0148609 C60.5774914,10.7781912 64.0022728,10.758961 66.1039496,11.9728048 L124.654761,45.8456742 C126.753474,47.0613941 126.753474,49.0491336 124.654761,50.263759 L66.9375991,83.6560314 C64.8362344,84.8697188 61.4008432,84.8697188 59.2996345,83.6560314 L1.58262835,50.263759 C-0.516864062,49.0491336 -0.529814261,47.0421639 1.55766411,45.8036181 L58.4903251,12.0148609 Z" id="Fill-21" fill="#3D4766" opacity="0.100000001"></path>
                    <path d="M58.4903251,0.940272145 C60.5774914,-0.296553959 64.0022728,-0.315784096 66.1039496,0.897903307 L124.654761,34.7710854 C126.753474,35.9868053 126.753474,37.9747011 124.654761,39.1891702 L66.9375991,72.5812862 C64.8362344,73.79513 61.4008432,73.79513 59.2996345,72.5812862 L1.58262835,39.1891702 C-0.516864062,37.9747011 -0.529814261,35.9675751 1.55766411,34.7287166 L58.4903251,0.940272145 Z" id="Fill-23" fill="#F3F8FE"></path>
                    <path d="M1.58264395,39.1892015 L59.2996501,72.5813175 C61.4008588,73.7951613 64.83625,73.7951613 66.9374587,72.5813175 L66.9374587,72.5813175 L124.654621,39.1892015 C126.197255,38.2977361 126.596527,36.9903995 125.873188,35.8763024 L125.873188,35.8763024 C125.612467,36.2784155 125.212572,36.6570772 124.654621,36.98055 L124.654621,36.98055 L66.9374587,70.3700081 C64.83625,71.5865097 61.4008588,71.5865097 59.2996501,70.3700081 L59.2996501,70.3700081 L1.58264395,36.98055 C1.01361535,36.6523869 0.612471256,36.2621558 0.351126889,35.848317 L0.351126889,35.848317 C-0.367219058,36.9786738 0.0401661,38.2977361 1.58264395,39.1892015" id="Fill-25" fill="url(#linearGradient-5)"></path>
                    <path d="M60.6007862,16.0508445 C61.7352548,15.3785714 63.5971188,15.3682528 64.7392327,16.0280185 L96.5630192,34.4387637 C97.7038849,35.0994674 97.7038849,36.1799509 96.5630192,36.8400292 L65.1923336,54.9896823 C64.0502198,55.649448 62.1830508,55.649448 61.0407809,54.9896823 L29.6697833,36.8400292 C28.5287616,36.1799509 28.5220524,35.0891488 29.656521,34.4157813 L60.6007862,16.0508445 Z" id="Fill-27" fill="#F3F8FE"></path>
                    <path d="M96.563066,34.4387949 L64.7392795,16.0280497 C63.5971657,15.3682841 61.7353016,15.3786027 60.600833,16.0508757 L56.9785221,18.2013679 L92.8806849,38.9716352 L96.563066,36.8400605 C97.7039317,36.1799822 97.7039317,35.0994986 96.563066,34.4387949" id="Fill-29" fill="#0088D2"></path>
                    <path d="M68.3786754,21.782629 C68.8356769,21.5173157 69.5872565,21.5173157 70.0481588,21.782629 C70.508905,22.0465353 70.508905,22.4806986 70.0481588,22.7456993 C69.5872565,23.0106999 68.8356769,23.0106999 68.3786754,22.7456993 C67.9196454,22.4806986 67.9196454,22.0465353 68.3786754,21.782629 Z M65.7060821,20.1698147 C66.164956,19.904814 66.9159114,19.904814 67.3768137,20.1698147 C67.8367798,20.435128 67.8367798,20.8680406 67.3768137,21.1327286 C66.9159114,21.3981983 66.164956,21.3981983 65.7060821,21.1327286 C65.2483004,20.8680406 65.2483004,20.435128 65.7060821,20.1698147 Z M63.0352207,18.4664623 C63.4923783,18.2013053 64.2439579,18.2013053 64.7048601,18.4664623 C65.1656063,18.7306813 65.1656063,19.1645319 64.7048601,19.4298453 C64.2439579,19.6948459 63.4923783,19.6948459 63.0352207,19.4298453 C62.5768148,19.1645319 62.5768148,18.7306813 63.0352207,18.4664623 Z" id="Fill-54" fill="#FFFFFF"></path>
                    <path d="M29.6697521,36.839998 L61.0409057,54.9898074 C62.1830196,55.6494167 64.0503446,55.6494167 65.1923024,54.9898074 L65.1923024,54.9898074 L96.562988,36.839998 C97.4014743,36.3556487 97.6180391,35.6450717 97.2256325,35.0394006 L97.2256325,35.0394006 C97.0834923,35.2579675 96.8664595,35.4638706 96.562988,35.639756 L96.562988,35.639756 L65.1923024,53.788002 C64.0503446,54.4488621 62.1830196,54.4488621 61.0409057,53.788002 L61.0409057,53.788002 L29.6697521,35.639756 C29.3608196,35.4612128 29.1426946,35.2492123 29.0008665,35.0243917 L29.0008665,35.0243917 C28.6106443,35.6385053 28.8315778,36.3556487 29.6697521,36.839998" id="Fill-37" fill="url(#linearGradient-6)"></path>
                    <path d="M68.0503488,34.9069628 L72.598677,40.9694588 L71.7631551,42.2292672 L64.4222649,40.3802036 L65.3244101,39.0192415 L70.1782381,40.2330852 L67.1538206,36.2591697 L68.0503488,34.9069628 Z M65.7801322,31.8981499 L67.516395,33.0538342 L56.7883258,38.0713365 L55.063609,36.9239383 L65.7801322,31.8981499 Z M51.3898249,26.8559768 L58.7307151,28.7055095 L57.8352791,30.0575601 L53.0061033,28.8063504 L56.0057125,32.8174755 L55.1035674,34.1792193 L50.553991,28.1159416 L51.3898249,26.8559768 Z" id="Fill-52" fill="#7DC0E8"></path>
                </g>
                <g id="编组-17" transform="translate(425.000000, 313.000000)">
                    <path d="M48.5563513,12.6414369 C50.2887386,11.6223224 53.1317544,11.6059 54.8756702,12.6065781 L103.480819,40.5137064 C105.224579,41.515314 105.224579,43.1528999 103.480819,44.1532681 L55.5676904,71.6644012 C53.824242,72.6646145 50.9706324,72.6646145 49.2273398,71.6644012 L1.31374394,44.1532681 C-0.429860277,43.1528999 -0.439207691,41.4995114 1.293647,40.4788477 L48.5563513,12.6414369 Z" id="Fill-45" fill="#3D4766" opacity="0.100000001"></path>
                    <path d="M48.5563513,0.775089807 C50.2887386,-0.244179592 53.1317544,-0.26060193 54.8756702,0.740231072 L103.480819,28.6472044 C105.224579,29.648967 105.224579,31.2863979 103.480819,32.287076 L55.5676904,59.7977443 C53.824242,60.7982674 50.9706324,60.7982674 49.2273398,59.7977443 L1.31374394,32.287076 C-0.429860277,31.2863979 -0.439207691,29.6331644 1.293647,28.6125006 L48.5563513,0.775089807 Z" id="Fill-47" fill="#F3F8FE"></path>
                    <path d="M49.2274021,59.7977753 C50.9705389,60.7982984 53.8243043,60.7982984 55.5677527,59.7977753 L103.480881,32.287107 C104.761165,31.5527497 105.092843,30.4756922 104.492739,29.5577455 C104.275411,29.888981 103.944824,30.2014702 103.480881,30.4671712 L55.5677527,57.9764451 C53.8243043,58.9780527 50.9705389,58.9780527 49.2274021,57.9764451 L1.31365047,30.4671712 C0.84222924,30.1966674 0.508370784,29.8758121 0.291199208,29.5349712 C-0.303607878,30.4656219 0.0335221731,31.5527497 1.31365047,32.287107 L49.2274021,59.7977753 Z" id="Fill-49" fill="url(#linearGradient-7)"></path>
                    <path d="M39.3940943,21.9945156 C34.6314313,19.2581824 26.8425431,19.2581824 22.0794127,21.9945156 C17.3156592,24.7279052 17.3156592,29.2015977 22.0794127,31.9349873 C26.8425431,34.6683769 34.6314313,34.6683769 39.3940943,31.9349873 C44.1581595,29.2015977 44.1581595,24.7279052 39.3940943,21.9945156" id="Fill-51" fill="#ADC6FF"></path>
                    <path d="M30.7375948,28.0653269 L39.1700524,32.0576591 C39.2448317,32.0150539 39.3230384,31.9777164 39.3940788,31.9349563 L39.3940788,31.9349563 C44.1581439,29.2017217 44.1581439,24.7278742 39.3940788,21.9944846 L39.3940788,21.9944846 C37.0139157,20.626318 33.8772352,19.9421573 30.7375948,19.9421573 L30.7375948,19.9421573 L30.7375948,28.0653269 Z" id="Fill-53" fill="#FFC338"></path>
                    <path d="M30.7375169,28.0654354 L30.7375169,19.9422657 C33.8771573,19.9422657 37.0139936,20.6262716 39.3941566,21.9944382 C42.2641242,23.6403901 43.3926686,25.9184472 42.8054952,28.0654354 L30.7375169,28.0654354 Z" id="Fill-55" fill="#5C82FF"></path>
                    <path d="M91.8694773,26.963574 L94.6437896,28.5695546 L49.8302635,53.7947293 L47.0065657,52.2518043 L91.8694773,26.963574 Z M85.6287233,22.8940104 L88.4033472,24.4998361 L43.5898211,49.7250108 L40.7661233,48.1820857 L85.6287233,22.8940104 Z M79.4445835,18.8685237 L82.2192074,20.4743494 L37.4056814,45.6995241 L34.5819835,44.1565991 L79.4445835,18.8685237 Z M73.4004212,15.3711546 L76.1747336,16.9769803 L31.3637001,42.2015353 L28.540937,40.6562864 L73.4004212,15.3711546 Z M67.3585024,11.870625 L70.1337495,13.4759859 L52.3146191,23.7061724 L49.4909212,22.1632474 L67.3585024,11.870625 Z M61.2137931,8.32694804 L63.9620885,9.912943 L46.2993715,20.0566798 L43.4730252,18.5108111 L61.2137931,8.32694804 Z M53.1034006,3.80185049 L57.6249004,6.30331328 L39.8054584,16.5356688 L35.3682412,13.9857136 L53.1034006,3.80185049 Z" id="Fill-60" fill="#D7E8F2"></path>
                </g>
                <g id="编组-16" transform="translate(387.000000, 368.000000)">
                    <path d="M21.7431268,29.6460878 C22.5189191,29.1749943 23.7917778,29.1675793 24.5727943,29.6299955 L46.3370803,42.5325293 C47.1182505,42.9955766 47.1182505,43.7528601 46.3370803,44.2154342 L24.8825581,56.9346422 C24.1016952,57.3972162 22.8242269,57.3972162 22.0433641,56.9346422 L0.588227262,44.2154342 C-0.192635602,43.7528601 -0.196476919,42.9884771 0.579315408,42.5162792 L21.7431268,29.6460878 Z" id="Fill-5" fill="#CEE3EF"></path>
                    <path d="M21.7431882,17.9674031 C22.5188269,17.4959941 23.7918393,17.4884213 24.5728558,17.9509953 L46.3371417,30.8536868 C47.1183119,31.3165764 47.1183119,32.0737022 46.3371417,32.5362762 L24.8824659,45.2554842 C24.101603,45.7180582 22.8242884,45.7180582 22.0434255,45.2554842 L0.588288723,32.5362762 C-0.192574141,32.0737022 -0.196569111,31.3093191 0.579223216,30.8374368 L21.7431882,17.9674031 Z" id="Fill-7" fill="#6370A4" opacity="0.237955729"></path>
                    <path d="M21.7431882,12.3046577 C22.5188269,11.8332487 23.7918393,11.8258337 24.5728558,12.2884077 L46.3371417,25.1909414 C47.1183119,25.6541465 47.1183119,26.4112723 46.3371417,26.8738463 L24.8824659,39.5932121 C24.101603,40.0556284 22.8242884,40.0556284 22.0434255,39.5932121 L0.588288723,26.8738463 C-0.192574141,26.4112723 -0.196569111,25.6467315 0.579223216,25.1748492 L21.7431882,12.3046577 Z" id="Fill-9" fill="#6390A4" opacity="0.237955729"></path>
                    <path d="M21.7431268,0.358367987 C22.5189191,-0.112725479 23.7917778,-0.120613849 24.5727943,0.342117944 L46.3370803,13.2448095 C47.1182505,13.707699 47.1182505,14.4649826 46.3370803,14.9273988 L24.8825581,27.6469224 C24.1016952,28.1093386 22.8242269,28.1093386 22.0433641,27.6469224 L0.588227262,14.9273988 C-0.192635602,14.4649826 -0.196476919,13.7004417 0.579315408,13.2285594 L21.7431268,0.358367987 Z" id="Fill-11" fill="#F3F8FE"></path>
                    <path d="M0.588288723,14.927383 L22.0434255,27.6469066 C22.8241347,28.1093229 24.101603,28.1093229 24.8824659,27.6469066 L24.8824659,27.6469066 L46.3371417,14.927383 C46.9108808,14.5880253 47.0591556,14.0902692 46.7907244,13.6657171 L46.7907244,13.6657171 C46.693155,13.8189093 46.5451875,13.9632664 46.3371417,14.0861672 L46.3371417,14.0861672 L24.8824659,26.8045864 C24.101603,27.2679493 22.8241347,27.2679493 22.0434255,26.8045864 L22.0434255,26.8045864 L0.588288723,14.0861672 C0.376862651,13.9610577 0.227819562,13.8127563 0.130557422,13.6551467 L0.130557422,13.6551467 C-0.135722654,14.0852206 0.0150106148,14.5880253 0.588288723,14.927383" id="Fill-13" fill="url(#linearGradient-8)"></path>
                </g>
                <g id="编组-7" transform="translate(302.000000, 274.000000)">
                    <path d="M17.5180209,90.1480542 C18.1155729,90.0943643 19.09079,90.9916419 19.8177666,90.8589623 C20.5426214,90.7264757 21.6187164,91.635148 21.4892918,92.4988212 C21.3565882,93.3624943 20.0829809,93.7124442 18.8282761,92.721499 C17.577236,91.73094 17.2161588,91.4348731 16.9997439,90.8054655 C16.7798571,90.1733541 17.5180209,90.1480542 17.5180209,90.1480542" id="Fill-73" fill="#111C73"></path>
                    <path d="M33.1391055,85.0003342 C33.6625903,84.9553352 34.5199559,85.7429155 35.1533841,85.6241411 C35.7931774,85.5080705 36.7406194,86.3068523 36.6250824,87.0687465 C36.5124387,87.82813 35.3873513,88.1330808 34.2879174,87.264 C33.1923412,86.3885459 32.8735054,86.1318774 32.6846728,85.5787558 C32.4902466,85.0229303 33.1391055,85.0003342 33.1391055,85.0003342" id="Fill-75" fill="#111C73"></path>
                    <path d="M17.365624,64.3283595 C17.3010081,63.9558135 17.281334,63.5716798 17.3380417,63.170937 L19.0234545,49.2125341 C18.9943292,49.0095554 18.9501589,48.8175851 18.9358856,48.6115164 C18.6905382,44.9938228 17.9774493,41.0908776 21.0014711,40.8817188 L27.2450983,39.0502759 C28.6004881,38.9571877 31.0184711,39.3222017 31.6102366,40.7753047 C33.3693308,41.805262 34.6882657,43.2948665 34.4182293,45.9154347 C34.4182293,45.9154347 33.8852932,51.0072824 33.6482398,54.5266733 C33.5950041,55.3034384 33.4457125,56.9143279 33.14115,58.4583948 C33.0620679,62.507925 34.82637,67.015171 35.2385613,69.3236427 C36.2023983,74.6912787 37.2366377,87.0297151 36.1034493,87.0324189 C35.1849398,87.0324189 34.0436502,85.4236538 33.4794671,83.0755907 L28.0256963,60.6563966 C28.0000429,60.5376223 28.0480708,60.4393196 28.0505783,60.3290429 C27.9130526,60.0634904 27.7660756,59.809912 27.6900797,59.5053474 L26.8113041,56.3015294 C26.1707392,57.780898 25.4042216,59.4908627 24.7194865,60.8960698 C24.3616882,61.6189519 23.5637307,63.1568386 22.6417493,64.508742 C22.0021488,68.2394161 22.7183239,72.204742 22.6701031,74.4087309 C22.5460793,79.8638544 21.0977198,92.1601887 19.9872916,91.9286269 C19.0880704,91.7422574 18.2906915,89.9278098 18.2054371,87.5119584 L17.3287833,64.4411469 C17.3287833,64.3957615 17.3631165,64.3702685 17.365624,64.3283595" id="Fill-77" fill="#2B2D3A"></path>
                    <path d="M25.2487964,12.3582559 L25.7900265,14.6497322 C25.7900265,14.6497322 28.7008259,14.7318121 28.8028611,14.7401403 C28.9074037,14.7461036 30.3613568,13.6137879 30.3185368,13.4500145 C30.2743665,13.2866273 28.9689335,9.67974891 28.9689335,9.67974891 L25.2487964,12.3582559 Z" id="Fill-79" fill="#F8BE95"></path>
                    <path d="M24.4194182,4.06521669 L21.9150235,3.95436061 L21.8857053,10.4444627 C21.8411493,12.3050681 22.5986013,12.6517348 23.1583482,12.7023346 C24.3196976,12.8102938 25.6635144,12.2641248 26.3467065,11.9338741 C27.6687275,11.2917199 27.8228411,9.12693629 27.8479159,8.95138197 L28.6128905,4.67840147 L24.4194182,4.06521669 Z" id="Fill-81" fill="#F8BE95"></path>
                    <path d="M22.2638141,0.842838978 C23.5258485,-0.144629917 25.9312941,-0.733673557 28.5942387,1.82528652 C31.2581477,4.38540537 32.9969892,6.49167092 30.7952282,9.10238958 C28.5975177,11.7069281 26.418324,12.309877 25.2488735,11.5116746 C24.0817377,10.7128928 26.5876754,9.01915096 24.4482156,8.05427816 C24.0585917,7.87833759 23.3618978,9.9351621 23.3618978,9.9351621 C23.3618978,9.9351621 23.0621574,9.5855985 23.2783794,8.8692828 C23.4041392,8.45251029 23.5273915,7.2251751 23.3456956,7.12880369 C22.4219783,6.63786962 21.7038743,5.83329395 21.2077789,4.97251772 C20.7087902,4.11212774 20.9443005,1.87530694 22.2638141,0.842838978" id="Fill-83" fill="#000000"></path>
                    <path d="M32.4073068,14.0090072 C32.4073068,14.0090072 36.0520266,16.0268197 33.5266077,25.4723758 C31.1030311,34.5312876 34.0412199,43.0888364 34.0412199,43.0888364 C34.0412199,43.0888364 33.4536979,45.3355068 27.1514342,45.826634 C21.2013752,46.2893712 18.4894383,47.9027714 18.4894383,47.9027714 C18.4894383,47.9027714 18.2533493,39.5045541 18.2533493,35.5023406 C18.2533493,31.6787714 16.2743683,27.7642384 18.6728701,21.8994882 C21.0742652,16.0411112 23.6621783,15.3692152 26.914188,14.1669868 C30.1694767,12.9618614 30.0628123,12.7162013 30.0628123,12.7162013 L32.4073068,14.0090072 Z" id="Fill-87" fill="#0088D2"></path>
                    <path d="M16.483145,22.5969352 C17.7430577,20.675301 21.3623169,15.5838395 24.313236,17.7880215 C28.3832631,20.8357913 23.4984976,24.9193121 21.5455559,26.6858637 C19.5864418,28.4472007 14.822807,32.1241849 13.6647366,32.8381831 C12.512067,33.5523744 1.07101077,17.9852063 1.07101077,17.9852063 L12.4864135,27.8403892 C12.4864135,27.8403892 15.5162218,24.0670336 16.483145,22.5969352" id="Fill-89" fill="#48B3ED"></path>
                    <path d="M1.41793038,18.7278455 C1.41793038,18.7278455 0.121755694,18.0109504 0.0110407724,17.4180442 C-0.0960093691,16.8257173 0.597598395,15.9734388 1.13034162,16.8992995 C1.66887134,17.8243877 1.60386973,18.4705976 1.86098295,18.7925437 C2.07720495,19.0718083 1.41793038,18.7278455 1.41793038,18.7278455" id="Fill-91" fill="#F8BE95"></path>
                </g>
            </g>
        </g>
    </g>
</svg>