<?xml version="1.0" encoding="UTF-8"?>
<svg width="196px" height="48px" viewBox="0 0 196 48" version="1.1" xmlns="http://www.w3.org/2000/svg" xmlns:xlink="http://www.w3.org/1999/xlink">
    <!-- Generator: Sketch 64 (93537) - https://sketch.com -->
    <title>logo_yst</title>
    <desc>Created with Sketch.</desc>
    <defs>
        <path d="M18.3571279,17.9052471 L22.486142,17.9052471 C24.8603521,25.1475559 27.3010034,29.3409012 29.8054173,30.4852829 L29.8054173,31.2465716 C25.54995,31.5028739 22.9581979,29.3849787 21.9229973,26.6723098 C21.0490779,24.3835465 19.8579543,21.4635504 18.3571279,17.9052471 Z M34.1203604,37.9175059 L34.1203604,11.0443987 L17.0438378,11.0443987 L17.0438378,9.70955881 L34.1203604,9.70955881 L34.1203604,0.179574869 L37.6862298,0.179574869 L37.6862298,9.70955881 L42.0049236,9.70955881 L42.0049236,11.0443987 L37.6862298,11.0443987 L37.6862298,37.9175059 C37.6862298,42.3638885 34.2902147,44.3354029 30.2855103,44.3354029 C26.2379404,44.3354029 25.3731299,44.0551573 22.5424031,42.3268852 L22.5424031,40.6236448 C24.8351687,41.5051942 27.3256511,42.2120661 29.7577294,42.2120661 C32.0370996,42.2120661 34.2446702,40.8391346 34.1203604,37.9175059 Z M9.34895408,40.9675579 C11.0249931,40.9272896 11.7579922,40.2623184 11.7885339,38.2984223 L11.7885339,23.4317998 L3.90664973,23.4317998 L3.90664973,39.6332621 C4.78056903,40.6481322 5.34424967,40.9425263 6.90937431,40.9675579 L9.34895408,40.9675579 Z M6.90937431,4.94375059 C5.2236906,5.07380633 4.65733086,5.39105527 3.90664973,6.66005102 L3.90664973,22.0985924 L11.7885339,22.0985924 L11.7885339,7.80388852 C11.7869264,5.80788663 11.3009394,5.07380633 9.34895408,4.94375059 L6.90937431,4.94375059 Z M3.90664973,42.3530052 L0.340780307,42.3530052 L0.340780307,3.22908266 L3.90664973,3.22908266 L3.90664973,4.88280397 C3.90664973,3.36621257 5.41176275,3.43749834 7.28444697,3.41954086 L9.91209891,3.41954086 C13.9146601,3.29438262 15.7916308,4.81913651 15.5419396,7.99325839 L15.5419396,38.2984223 C15.5537276,41.5209749 14.162208,42.1386036 9.8290471,42.1614587 L7.18317736,42.1614587 C5.52214126,42.1620028 3.90664973,42.326341 3.90664973,41.0491828 L3.90664973,42.3530052 Z" id="path-1"></path>
        <linearGradient x1="29.9751745%" y1="-33.4700039%" x2="69.1419196%" y2="146.502637%" id="linearGradient-3">
            <stop stop-color="#00A3DA" offset="0%"></stop>
            <stop stop-color="#292D78" offset="100%"></stop>
        </linearGradient>
        <path d="M30.8841078,27.3613629 L39.7279553,27.3613629 L39.7279553,20.1407761 L30.8841078,20.1407761 L30.8841078,27.3613629 Z M35.0240107,11.777543 L30.8841078,11.777543 L30.8841078,18.8100511 L39.7279553,18.8100511 L39.7279553,16.3388605 C39.9784005,13.0450299 38.4109588,11.5245908 35.0240107,11.777543 Z M18.4654785,27.3613629 L27.3093259,27.3613629 L27.3093259,20.1407761 L18.4654785,20.1407761 L18.4654785,27.3613629 Z M22.2291738,11.777543 C20.5969618,11.777543 19.3425765,12.4137397 18.4654785,13.6774105 L18.4654785,18.8100511 L27.3093259,18.8100511 L27.3093259,11.777543 L22.2291738,11.777543 Z M18.4654785,37.2450351 L14.8906966,37.2450351 L14.8906966,10.2571039 L18.4654785,10.2571039 L18.4654785,13.108268 C18.9647498,11.0835598 20.4091278,10.1322632 22.7932154,10.2571039 L26.7458241,10.2571039 L19.6021977,5.26184249 L24.1183082,5.26184249 L26.3674575,6.64708304 L38.222585,2.65545325 C38.222585,2.65545325 39.5438995,2.2073353 39.5438995,1.95274759 C39.5438995,1.69979537 38.4109588,1.70415662 38.4109588,1.70415662 L14.9495296,1.79029122 L14.9495296,0.271487522 L39.3004711,0.185352927 C41.3574686,0.185352927 42.1460472,0.705976587 42.1233776,2.08576558 C42.1023272,3.35270735 41.3758202,3.88150834 40.1996991,4.33834878 L29.3787376,8.54695054 L31.8745539,10.334516 L35.5875126,10.2571039 C41.1064836,10.1322632 43.7410164,12.1575165 43.4921903,16.3388605 L43.4921903,31.9226803 C43.508295,35.8865072 42.3284836,37.6528115 38.9766196,37.6253315 C35.8357989,37.5982961 34.857767,37.5154323 32.8822722,35.6940673 L32.8822722,34.7629413 C35.1389781,35.7785664 35.8514516,36.08876 37.356282,36.0533249 C38.9177865,36.0173446 39.7279553,34.8392631 39.7279553,32.3042893 L39.7279553,28.6920878 L30.8841078,28.6920878 L30.8841078,36.673712 L27.3093259,36.673712 L27.3093259,28.6920878 L18.4654785,28.6920878 L18.4654785,37.2450351 Z M6.40794366,11.4542657 C6.4155002,9.2605593 5.52814681,8.33870107 3.4117766,8.37577166 L0.212662551,8.33870107 L0.212662551,7.00143423 L5.10498072,7.04559182 C8.71916457,7.04831761 9.79813015,8.32452702 9.76088722,11.3032576 L9.73066108,22.0041182 L6.39498959,22.0041182 C6.39498959,20.2438104 6.40794366,11.4542657 6.40794366,11.4542657 Z" id="path-4"></path>
        <linearGradient x1="30.8637523%" y1="-43.1092142%" x2="73.5083897%" y2="115.905813%" id="linearGradient-6">
            <stop stop-color="#00A3DA" offset="0%"></stop>
            <stop stop-color="#292D78" offset="100%"></stop>
        </linearGradient>
        <linearGradient x1="-1.83463711%" y1="21.2500914%" x2="58.162732%" y2="54.5271544%" id="linearGradient-7">
            <stop stop-color="#00A3DA" offset="0%"></stop>
            <stop stop-color="#292D78" offset="100%"></stop>
        </linearGradient>
        <linearGradient x1="25.4647104%" y1="-172.266225%" x2="56.601898%" y2="158.785845%" id="linearGradient-8">
            <stop stop-color="#00A3DA" offset="0%"></stop>
            <stop stop-color="#292D78" offset="100%"></stop>
        </linearGradient>
        <path d="M34.5490523,22.6395177 C30.4652639,22.6009012 22.0376108,25.9471368 13.5848578,25.721337 C8.84046451,25.721337 5.84504555,24.8433456 4.59913497,23.0884357 C3.35108825,21.4590298 3.71530214,19.5319543 6.0864307,16.0226707 C8.58252416,12.387347 11.7648564,8.12611249 15.6339615,3.2378946 L0.283040123,3.2378946 L0.283040123,0.410837712 L41.6554954,0.410837712 L41.6554954,3.2378946 L20.5011835,3.2378946 C16.7570434,7.37416148 13.0134372,12.3267404 9.26876295,18.0908041 C8.14568111,19.7202102 8.03032891,19.6429769 8.03032891,20.6464721 C8.03032891,22.1498379 10.3998554,22.9023253 15.1442487,22.9023253 C20.0130728,23.0868268 30.88929,19.7218192 34.9111299,19.8827217 C37.823239,19.9996441 40.2499075,21.1812048 41.0253306,21.5705889 L40.1537807,24.1557556 C38.6979932,23.3973686 36.5346053,22.6588261 34.5490523,22.6395177" id="path-9"></path>
        <linearGradient x1="34.8452969%" y1="-4.38072406%" x2="80.3415472%" y2="115.010281%" id="linearGradient-11">
            <stop stop-color="#00A3DA" offset="0%"></stop>
            <stop stop-color="#292D78" offset="100%"></stop>
        </linearGradient>
        <polygon id="path-12" points="0.486585675 0.126246575 35.3285229 0.126246575 35.3285229 2.33766576 0.486585675 2.33766576"></polygon>
        <linearGradient x1="41.8432602%" y1="47.8711042%" x2="99.6877743%" y2="62.9686738%" id="linearGradient-14">
            <stop stop-color="#00A3DA" offset="0%"></stop>
            <stop stop-color="#292D78" offset="100%"></stop>
        </linearGradient>
        <linearGradient x1="51.5603794%" y1="19.2273382%" x2="47.5044295%" y2="102.292668%" id="linearGradient-15">
            <stop stop-color="#00A3DA" offset="0%"></stop>
            <stop stop-color="#292D78" offset="100%"></stop>
        </linearGradient>
        <linearGradient x1="52.7607748%" y1="7.67564149%" x2="48.5225069%" y2="63.6378886%" id="linearGradient-16">
            <stop stop-color="#00A3DA" offset="0%"></stop>
            <stop stop-color="#292D78" offset="100%"></stop>
        </linearGradient>
    </defs>
    <g id="login" stroke="none" stroke-width="1" fill="none" fill-rule="evenodd">
        <g id="1.0登录" transform="translate(-360.000000, -64.000000)">
            <g id="logo_yst" transform="translate(360.000000, 64.000000)">
                <g id="Group-3" transform="translate(108.446701, 1.000000)">
                    <g id="Fill-1-Clipped">
                        <mask id="mask-2" fill="white">
                            <use xlink:href="#path-1"></use>
                        </mask>
                        <g id="path-1"></g>
                        <path d="M18.3571279,17.9052471 L22.486142,17.9052471 C24.8603521,25.1475559 27.3010034,29.3409012 29.8054173,30.4852829 L29.8054173,31.2465716 C25.54995,31.5028739 22.9581979,29.3849787 21.9229973,26.6723098 C21.0490779,24.3835465 19.8579543,21.4635504 18.3571279,17.9052471 Z M34.1203604,37.9175059 L34.1203604,11.0443987 L17.0438378,11.0443987 L17.0438378,9.70955881 L34.1203604,9.70955881 L34.1203604,0.179574869 L37.6862298,0.179574869 L37.6862298,9.70955881 L42.0049236,9.70955881 L42.0049236,11.0443987 L37.6862298,11.0443987 L37.6862298,37.9175059 C37.6862298,42.3638885 34.2902147,44.3354029 30.2855103,44.3354029 C26.2379404,44.3354029 25.3731299,44.0551573 22.5424031,42.3268852 L22.5424031,40.6236448 C24.8351687,41.5051942 27.3256511,42.2120661 29.7577294,42.2120661 C32.0370996,42.2120661 34.2446702,40.8391346 34.1203604,37.9175059 Z M9.34895408,40.9675579 C11.0249931,40.9272896 11.7579922,40.2623184 11.7885339,38.2984223 L11.7885339,23.4317998 L3.90664973,23.4317998 L3.90664973,39.6332621 C4.78056903,40.6481322 5.34424967,40.9425263 6.90937431,40.9675579 L9.34895408,40.9675579 Z M6.90937431,4.94375059 C5.2236906,5.07380633 4.65733086,5.39105527 3.90664973,6.66005102 L3.90664973,22.0985924 L11.7885339,22.0985924 L11.7885339,7.80388852 C11.7869264,5.80788663 11.3009394,5.07380633 9.34895408,4.94375059 L6.90937431,4.94375059 Z M3.90664973,42.3530052 L0.340780307,42.3530052 L0.340780307,3.22908266 L3.90664973,3.22908266 L3.90664973,4.88280397 C3.90664973,3.36621257 5.41176275,3.43749834 7.28444697,3.41954086 L9.91209891,3.41954086 C13.9146601,3.29438262 15.7916308,4.81913651 15.5419396,7.99325839 L15.5419396,38.2984223 C15.5537276,41.5209749 14.162208,42.1386036 9.8290471,42.1614587 L7.18317736,42.1614587 C5.52214126,42.1620028 3.90664973,42.326341 3.90664973,41.0491828 L3.90664973,42.3530052 Z" id="Fill-1" fill="url(#linearGradient-3)" fill-rule="nonzero" mask="url(#mask-2)"></path>
                    </g>
                </g>
                <g id="Group-6" transform="translate(149.238579, 4.000000)">
                    <g id="Fill-4-Clipped">
                        <mask id="mask-5" fill="white">
                            <use xlink:href="#path-4"></use>
                        </mask>
                        <g id="path-4"></g>
                        <path d="M30.8841078,27.3613629 L39.7279553,27.3613629 L39.7279553,20.1407761 L30.8841078,20.1407761 L30.8841078,27.3613629 Z M35.0240107,11.777543 L30.8841078,11.777543 L30.8841078,18.8100511 L39.7279553,18.8100511 L39.7279553,16.3388605 C39.9784005,13.0450299 38.4109588,11.5245908 35.0240107,11.777543 Z M18.4654785,27.3613629 L27.3093259,27.3613629 L27.3093259,20.1407761 L18.4654785,20.1407761 L18.4654785,27.3613629 Z M22.2291738,11.777543 C20.5969618,11.777543 19.3425765,12.4137397 18.4654785,13.6774105 L18.4654785,18.8100511 L27.3093259,18.8100511 L27.3093259,11.777543 L22.2291738,11.777543 Z M18.4654785,37.2450351 L14.8906966,37.2450351 L14.8906966,10.2571039 L18.4654785,10.2571039 L18.4654785,13.108268 C18.9647498,11.0835598 20.4091278,10.1322632 22.7932154,10.2571039 L26.7458241,10.2571039 L19.6021977,5.26184249 L24.1183082,5.26184249 L26.3674575,6.64708304 L38.222585,2.65545325 C38.222585,2.65545325 39.5438995,2.2073353 39.5438995,1.95274759 C39.5438995,1.69979537 38.4109588,1.70415662 38.4109588,1.70415662 L14.9495296,1.79029122 L14.9495296,0.271487522 L39.3004711,0.185352927 C41.3574686,0.185352927 42.1460472,0.705976587 42.1233776,2.08576558 C42.1023272,3.35270735 41.3758202,3.88150834 40.1996991,4.33834878 L29.3787376,8.54695054 L31.8745539,10.334516 L35.5875126,10.2571039 C41.1064836,10.1322632 43.7410164,12.1575165 43.4921903,16.3388605 L43.4921903,31.9226803 C43.508295,35.8865072 42.3284836,37.6528115 38.9766196,37.6253315 C35.8357989,37.5982961 34.857767,37.5154323 32.8822722,35.6940673 L32.8822722,34.7629413 C35.1389781,35.7785664 35.8514516,36.08876 37.356282,36.0533249 C38.9177865,36.0173446 39.7279553,34.8392631 39.7279553,32.3042893 L39.7279553,28.6920878 L30.8841078,28.6920878 L30.8841078,36.673712 L27.3093259,36.673712 L27.3093259,28.6920878 L18.4654785,28.6920878 L18.4654785,37.2450351 Z M6.40794366,11.4542657 C6.4155002,9.2605593 5.52814681,8.33870107 3.4117766,8.37577166 L0.212662551,8.33870107 L0.212662551,7.00143423 L5.10498072,7.04559182 C8.71916457,7.04831761 9.79813015,8.32452702 9.76088722,11.3032576 L9.73066108,22.0041182 L6.39498959,22.0041182 C6.39498959,20.2438104 6.40794366,11.4542657 6.40794366,11.4542657 Z" id="Fill-4" fill="url(#linearGradient-6)" fill-rule="nonzero" mask="url(#mask-5)"></path>
                    </g>
                </g>
                <polyline id="Fill-7" fill="url(#linearGradient-7)" points="196 46 165.15736 45.9942196 165.15736 43.0231214 196 43"></polyline>
                <g id="Group-12" transform="translate(156.203046, 22.000000)" fill="url(#linearGradient-8)">
                    <path d="M3.90045665,19.9736986 C3.89278075,22.1780822 4.79360312,22.1912328 6.94395328,22.1539727 L10.1936028,22.1912328 L10.1936028,24.4487672 L5.22345383,24.4049316 C1.55272607,24.4016439 0.45671639,23.119452 0.494547639,20.1243836 L0.518123635,0.277260273 L3.90977741,0.277260273 C3.90922912,2.04657534 3.90045665,19.9736986 3.90045665,19.9736986" id="Fill-10"></path>
                </g>
                <g id="Group-15" transform="translate(60.690355, 19.000000)">
                    <g id="Fill-13-Clipped">
                        <mask id="mask-10" fill="white">
                            <use xlink:href="#path-9"></use>
                        </mask>
                        <g id="path-9"></g>
                        <path d="M34.5490523,22.6395177 C30.4652639,22.6009012 22.0376108,25.9471368 13.5848578,25.721337 C8.84046451,25.721337 5.84504555,24.8433456 4.59913497,23.0884357 C3.35108825,21.4590298 3.71530214,19.5319543 6.0864307,16.0226707 C8.58252416,12.387347 11.7648564,8.12611249 15.6339615,3.2378946 L0.283040123,3.2378946 L0.283040123,0.410837712 L41.6554954,0.410837712 L41.6554954,3.2378946 L20.5011835,3.2378946 C16.7570434,7.37416148 13.0134372,12.3267404 9.26876295,18.0908041 C8.14568111,19.7202102 8.03032891,19.6429769 8.03032891,20.6464721 C8.03032891,22.1498379 10.3998554,22.9023253 15.1442487,22.9023253 C20.0130728,23.0868268 30.88929,19.7218192 34.9111299,19.8827217 C37.823239,19.9996441 40.2499075,21.1812048 41.0253306,21.5705889 L40.1537807,24.1557556 C38.6979932,23.3973686 36.5346053,22.6588261 34.5490523,22.6395177" id="Fill-13" fill="url(#linearGradient-11)" mask="url(#mask-10)"></path>
                    </g>
                </g>
                <g id="Group-18" transform="translate(64.670051, 6.000000)">
                    <g id="Fill-16-Clipped">
                        <mask id="mask-13" fill="white">
                            <use xlink:href="#path-12"></use>
                        </mask>
                        <g id="path-12"></g>
                        <polygon id="Fill-16" fill="url(#linearGradient-14)" mask="url(#mask-13)" points="0.486585675 2.33766576 35.3285229 2.33766576 35.3285229 0.126246575 0.486585675 0.126246575"></polygon>
                    </g>
                </g>
                <g id="Group">
                    <path d="M38.3614443,22.749124 L29.1706702,22.5723859 C13.5870524,34.0477051 3.39772166,27.8684753 3.39772166,23.8079015 C3.39772166,19.7473276 10.5902871,7.91908252 25.9739744,6.3300905 C41.3582096,4.74109849 36.563166,14.2745 36.563166,14.2745 L26.9736266,14.4512382 L30.5690877,8.80167233 L23.37707,8.80167233 L14.1862959,20.8066557 L40.1597226,20.8066557 C42.962035,17.8351415 44.551071,15.3475927 45.4455543,13.3616279 C41.5154152,5.44254542 33.3818074,0 23.9796,0 C10.735442,0 0,10.7914912 0,24.1035663 C0,28.0622817 0.955283988,31.7952567 2.63853382,35.0910663 C19.8073533,38.6605171 38.3614443,22.749124 38.3614443,22.749124" id="Fill-20" fill="url(#linearGradient-15)"></path>
                    <path d="M36.0770693,37.2581467 C22.45831,45.1540582 11.091416,41.761085 4.62158179,38.2499063 C8.93353697,44.149577 16.0004278,48 23.9930554,48 C36.8686176,48 47.3478041,38.0145555 47.7563452,25.5483871 C46.056445,29.4067612 42.5784134,33.4888244 36.0770693,37.2581467" id="Fill-23" fill="url(#linearGradient-16)"></path>
                </g>
            </g>
        </g>
    </g>
</svg>