<?xml version="1.0" encoding="UTF-8"?>
<svg width="12px" height="12px" viewBox="0 0 12 12" version="1.1" xmlns="http://www.w3.org/2000/svg" xmlns:xlink="http://www.w3.org/1999/xlink">
    <title>tab-icon-CloseCircleFilled-default</title>
    <g id="模版界面" stroke="none" stroke-width="1" fill="none" fill-rule="evenodd" fill-opacity="0.25">
        <g id="1.1.1首页" transform="translate(-106.000000, -46.000000)" fill="#000000">
            <g id="编组-21" transform="translate(0.000000, 40.000000)">
                <g id="tab-icon-CloseCircleFilled-default" transform="translate(106.000000, 6.000000)">
                    <path d="M6,0 C9.3137085,0 12,2.6862915 12,6 C12,9.3137085 9.3137085,12 6,12 C2.6862915,12 0,9.3137085 0,6 C0,2.6862915 2.6862915,0 6,0 Z M6.43201271,6.00093892 L8.1045458,7.67218322 C8.2165484,7.78967743 8.2165484,7.9741801 8.1045458,8.09192707 C7.98683398,8.20366828 7.80223821,8.20366828 7.6845264,8.09192707 L6.01199331,6.42068826 L4.26946615,8.16342474 C4.14821562,8.27885842 3.95771832,8.27885842 3.8364623,8.16342474 C3.72117923,8.04219959 3.72117923,7.85189996 3.8364623,7.73066932 L5.57924772,5.98743832 L3.90620361,4.31570498 C3.79465158,4.19812835 3.79465158,4.01379602 3.90620361,3.89621938 C4.02391542,3.7844562 4.2085057,3.7844562 4.32621751,3.89621938 L5.99900886,5.56795272 L7.73078249,3.83646399 C7.85201654,3.72117867 8.04232151,3.72117867 8.16355006,3.83646399 C8.27881665,3.95766716 8.27881665,4.14798877 8.16355006,4.26919194 L6.43201271,6.00093892 Z" id="icon_close-circle"></path>
                </g>
            </g>
        </g>
    </g>
</svg>